<?xml version="1.0" encoding="UTF-8" standalone="no"?>
<svg xmlns:xlink="http://www.w3.org/1999/xlink" height="29.7px" width="29.7px" xmlns="http://www.w3.org/2000/svg">
  <g transform="matrix(1.0, 0.0, 0.0, 1.0, -0.5, -0.5)">
    <path d="M29.7 15.35 L24.35 20.8 24.3 17.05 17.05 17.0 17.05 24.3 20.8 24.35 15.35 29.7 15.4 17.05 15.4 15.35 15.35 13.7 15.35 1.0 20.8 6.45 17.05 6.4 17.05 13.7 17.1 15.35 29.7 15.35 M13.7 17.05 L6.4 17.05 6.45 20.8 1.0 15.35 13.7 15.35 13.7 17.05" fill="#cccccc" fill-rule="evenodd" stroke="none"/>
    <path d="M17.05 13.7 L24.25 13.7 24.35 9.9 29.7 15.35 17.1 15.35 17.05 13.7 M15.35 29.7 L9.9 24.35 13.7 24.25 13.7 17.05 13.7 15.35 1.0 15.35 6.45 9.9 6.45 13.7 13.75 13.7 13.7 6.45 9.9 6.45 15.35 1.0 15.35 13.7 15.4 15.35 15.4 17.05 15.35 29.7" fill="#ffffff" fill-rule="evenodd" stroke="none"/>
    <path d="M17.05 13.7 L24.25 13.7 24.35 9.9 29.7 15.35 24.35 20.8 24.3 17.05 17.05 17.0 17.05 24.3 20.8 24.35 15.35 29.7 9.9 24.35 13.7 24.25 13.7 17.05 6.4 17.05 6.45 20.8 1.0 15.35 6.45 9.9 6.45 13.7 13.75 13.7 13.7 6.45 9.9 6.45 15.35 1.0 20.8 6.45 17.05 6.4 17.05 13.7 Z" fill="none" stroke="#000000" stroke-linecap="round" stroke-linejoin="round" stroke-width="1.0"/>
  </g>
</svg>
