<?xml version="1.0" encoding="UTF-8" standalone="no"?>
<svg xmlns:xlink="http://www.w3.org/1999/xlink" height="16.0px" width="42.0px" xmlns="http://www.w3.org/2000/svg">
  <g transform="matrix(1.0, 0.0, 0.0, 1.0, 0.0, 0.0)">
    <path d="M32.25 0.0 L34.65 0.0 36.4 0.25 36.35 0.25 Q38.3 0.75 39.8 2.25 41.95 4.4 42.0 7.45 L42.0 8.55 42.0 9.05 Q41.8 11.8 39.8 13.8 38.0 15.6 35.6 15.9 L35.55 15.9 34.4 16.0 32.25 16.0 32.25 15.55 32.3 15.55 34.4 15.55 35.5 15.5 Q37.8 15.2 39.5 13.5 41.4 11.6 41.6 9.0 L41.65 8.55 41.65 7.45 Q41.55 4.6 39.5 2.55 38.05 1.1 36.25 0.65 L34.2 0.4 32.25 0.4 32.25 0.0 M36.25 0.65 L34.65 0.4 34.2 0.4 34.65 0.4 36.25 0.65" fill="url(#gradient0)" fill-rule="evenodd" stroke="none"/>
    <path d="M32.25 0.4 L34.2 0.4 36.25 0.65 Q38.05 1.1 39.5 2.55 41.55 4.6 41.65 7.45 L41.65 8.55 41.6 9.0 Q41.4 11.6 39.5 13.5 37.8 15.2 35.5 15.5 L34.4 15.55 32.3 15.55 32.25 15.55 32.25 0.4" fill="url(#gradient1)" fill-rule="evenodd" stroke="none"/>
    <path d="M32.15 16.0 L32.0 16.0 32.0 15.55 32.15 15.55 32.15 16.0 M32.0 0.0 L32.15 0.0 32.15 0.4 32.05 0.4 32.0 0.4 32.0 0.0" fill="url(#gradient2)" fill-rule="evenodd" stroke="none"/>
    <path d="M32.25 0.0 L32.25 0.4 32.15 0.4 32.15 0.0 32.25 0.0 M32.25 15.55 L32.25 16.0 32.15 16.0 32.15 15.55 32.2 15.55 32.25 15.55" fill="url(#gradient3)" fill-rule="evenodd" stroke="none"/>
    <path d="M32.0 0.4 L32.05 0.4 32.15 0.4 32.15 15.55 32.0 15.55 32.0 0.4" fill="url(#gradient4)" fill-rule="evenodd" stroke="none"/>
    <path d="M32.15 0.4 L32.25 0.4 32.25 15.55 32.2 15.55 32.15 15.55 32.15 0.4" fill="url(#gradient5)" fill-rule="evenodd" stroke="none"/>
    <path d="M32.0 16.0 L31.65 16.0 31.65 15.55 32.0 15.55 32.0 16.0 M31.65 0.0 L32.0 0.0 32.0 0.4 31.65 0.4 31.65 0.0" fill="url(#gradient6)" fill-rule="evenodd" stroke="none"/>
    <path d="M31.65 16.0 L30.65 16.0 30.65 15.55 31.65 15.55 31.65 16.0 M30.65 0.0 L31.65 0.0 31.65 0.4 30.65 0.4 30.65 0.0" fill="url(#gradient7)" fill-rule="evenodd" stroke="none"/>
    <path d="M31.65 0.4 L32.0 0.4 32.0 15.55 31.65 15.55 31.65 0.4" fill="url(#gradient8)" fill-rule="evenodd" stroke="none"/>
    <path d="M30.65 16.0 L27.9 16.0 27.9 15.55 30.65 15.55 30.65 16.0 M27.9 0.0 L30.65 0.0 30.65 0.4 27.9 0.4 27.9 0.0" fill="url(#gradient9)" fill-rule="evenodd" stroke="none"/>
    <path d="M30.65 0.4 L31.65 0.4 31.65 15.55 30.65 15.55 30.65 0.4" fill="url(#gradient10)" fill-rule="evenodd" stroke="none"/>
    <path d="M27.9 16.0 L7.6 16.0 6.5 15.9 Q4.1 15.6 2.25 13.8 0.55 12.15 0.15 9.9 L0.0 8.55 0.0 8.45 0.0 8.3 0.0 8.25 0.0 8.15 0.0 8.0 0.0 7.45 0.2 5.95 0.2 6.0 Q0.65 3.85 2.25 2.25 3.75 0.75 5.65 0.25 L7.4 0.0 27.9 0.0 27.9 0.4 7.85 0.4 5.8 0.65 Q3.95 1.1 2.55 2.55 1.0 4.05 0.6 6.1 L0.4 7.45 0.4 7.6 0.4 7.45 0.6 6.1 0.4 7.6 0.4 8.0 0.4 8.15 0.4 8.25 0.4 8.45 0.4 8.55 0.5 9.2 0.4 8.55 0.4 8.45 0.5 9.2 0.55 9.8 Q0.95 11.95 2.55 13.5 4.3 15.2 6.5 15.5 L7.6 15.55 27.9 15.55 27.9 16.0 M7.85 0.4 L7.4 0.4 5.8 0.65 7.4 0.4 7.85 0.4" fill="url(#gradient11)" fill-rule="evenodd" stroke="none"/>
    <path d="M30.65 0.4 L30.65 15.55 27.9 15.55 27.9 0.4 30.65 0.4" fill="url(#gradient12)" fill-rule="evenodd" stroke="none"/>
    <path d="M27.9 15.55 L7.6 15.55 6.5 15.5 Q4.3 15.2 2.55 13.5 0.95 11.95 0.55 9.8 L0.5 9.2 0.4 8.45 0.4 8.25 0.4 8.15 0.4 8.0 0.4 7.6 0.6 6.1 Q1.0 4.05 2.55 2.55 3.95 1.1 5.8 0.65 L7.85 0.4 27.9 0.4 27.9 15.55" fill="url(#gradient13)" fill-rule="evenodd" stroke="none"/>
    <path d="M32.25 0.4 L34.2 0.4 34.65 0.4 36.25 0.65 Q38.05 1.1 39.5 2.55 41.55 4.6 41.65 7.45 L41.65 8.55 41.6 9.0 Q41.4 11.6 39.5 13.5 37.8 15.2 35.5 15.5 L34.4 15.55 32.3 15.55 M32.15 0.4 L32.25 0.4 M32.25 15.55 L32.2 15.55 M32.05 0.4 L32.15 0.4 M31.65 0.4 L32.0 0.4 M31.65 0.4 L30.65 0.4 27.9 0.4 7.85 0.4 7.4 0.4 5.8 0.65 Q3.95 1.1 2.55 2.55 1.0 4.05 0.6 6.1 L0.4 7.45 0.4 7.6 0.4 8.0 0.4 8.15 0.4 8.25 0.4 8.45 0.4 8.55 0.5 9.2 0.55 9.8 Q0.95 11.95 2.55 13.5 4.3 15.2 6.5 15.5 L7.6 15.55 27.9 15.55 30.65 15.55 31.65 15.55 32.0 15.55 32.15 15.55" fill="none" stroke="#000000" stroke-linecap="round" stroke-linejoin="round" stroke-opacity="0.3019608" stroke-width="0.5"/>
  </g>
  <defs>
    <linearGradient gradientTransform="matrix(0.0, -0.0081, 0.0083, 0.0, 25.95, 8.15)" gradientUnits="userSpaceOnUse" id="gradient0" spreadMethod="pad" x1="-819.2" x2="819.2">
      <stop offset="0.0" stop-color="#ffffff" stop-opacity="0.3019608"/>
      <stop offset="1.0" stop-color="#000000" stop-opacity="0.3019608"/>
    </linearGradient>
    <linearGradient gradientTransform="matrix(0.0, -0.0069, 0.0256, 0.0, 20.9, 3.75)" gradientUnits="userSpaceOnUse" id="gradient1" spreadMethod="pad" x1="-819.2" x2="819.2">
      <stop offset="0.0" stop-color="#352e29"/>
      <stop offset="1.0" stop-color="#191513"/>
    </linearGradient>
    <linearGradient gradientTransform="matrix(0.0, -0.0081, 0.0083, 0.0, 26.05, 8.15)" gradientUnits="userSpaceOnUse" id="gradient2" spreadMethod="pad" x1="-819.2" x2="819.2">
      <stop offset="0.0" stop-color="#ffffff" stop-opacity="0.3019608"/>
      <stop offset="1.0" stop-color="#000000" stop-opacity="0.3019608"/>
    </linearGradient>
    <linearGradient gradientTransform="matrix(0.0, -0.0081, 0.0083, 0.0, 26.0, 8.15)" gradientUnits="userSpaceOnUse" id="gradient3" spreadMethod="pad" x1="-819.2" x2="819.2">
      <stop offset="0.0" stop-color="#ffffff" stop-opacity="0.3019608"/>
      <stop offset="1.0" stop-color="#000000" stop-opacity="0.3019608"/>
    </linearGradient>
    <linearGradient gradientTransform="matrix(0.0, -0.0069, 0.0256, 0.0, 21.0, 3.75)" gradientUnits="userSpaceOnUse" id="gradient4" spreadMethod="pad" x1="-819.2" x2="819.2">
      <stop offset="0.0" stop-color="#352e29"/>
      <stop offset="1.0" stop-color="#191513"/>
    </linearGradient>
    <linearGradient gradientTransform="matrix(0.0, -0.0069, 0.0256, 0.0, 20.95, 3.75)" gradientUnits="userSpaceOnUse" id="gradient5" spreadMethod="pad" x1="-819.2" x2="819.2">
      <stop offset="0.0" stop-color="#352e29"/>
      <stop offset="1.0" stop-color="#191513"/>
    </linearGradient>
    <linearGradient gradientTransform="matrix(0.0, -0.0081, 0.0083, 0.0, 26.1, 8.15)" gradientUnits="userSpaceOnUse" id="gradient6" spreadMethod="pad" x1="-819.2" x2="819.2">
      <stop offset="0.0" stop-color="#ffffff" stop-opacity="0.3019608"/>
      <stop offset="1.0" stop-color="#000000" stop-opacity="0.3019608"/>
    </linearGradient>
    <linearGradient gradientTransform="matrix(0.0, -0.0081, 0.0083, 0.0, 26.35, 8.15)" gradientUnits="userSpaceOnUse" id="gradient7" spreadMethod="pad" x1="-819.2" x2="819.2">
      <stop offset="0.0" stop-color="#ffffff" stop-opacity="0.3019608"/>
      <stop offset="1.0" stop-color="#000000" stop-opacity="0.3019608"/>
    </linearGradient>
    <linearGradient gradientTransform="matrix(0.0, -0.0069, 0.0256, 0.0, 21.05, 3.75)" gradientUnits="userSpaceOnUse" id="gradient8" spreadMethod="pad" x1="-819.2" x2="819.2">
      <stop offset="0.0" stop-color="#352e29"/>
      <stop offset="1.0" stop-color="#191513"/>
    </linearGradient>
    <linearGradient gradientTransform="matrix(0.0, -0.0081, 0.0083, 0.0, 26.5, 8.15)" gradientUnits="userSpaceOnUse" id="gradient9" spreadMethod="pad" x1="-819.2" x2="819.2">
      <stop offset="0.0" stop-color="#ffffff" stop-opacity="0.3019608"/>
      <stop offset="1.0" stop-color="#000000" stop-opacity="0.3019608"/>
    </linearGradient>
    <linearGradient gradientTransform="matrix(0.0, -0.0069, 0.0256, 0.0, 21.3, 3.75)" gradientUnits="userSpaceOnUse" id="gradient10" spreadMethod="pad" x1="-819.2" x2="819.2">
      <stop offset="0.0" stop-color="#352e29"/>
      <stop offset="1.0" stop-color="#191513"/>
    </linearGradient>
    <linearGradient gradientTransform="matrix(0.0, -0.0081, 0.0083, 0.0, 26.6, 8.15)" gradientUnits="userSpaceOnUse" id="gradient11" spreadMethod="pad" x1="-819.2" x2="819.2">
      <stop offset="0.0" stop-color="#ffffff" stop-opacity="0.3019608"/>
      <stop offset="1.0" stop-color="#000000" stop-opacity="0.3019608"/>
    </linearGradient>
    <linearGradient gradientTransform="matrix(0.0, -0.0069, 0.0256, 0.0, 21.45, 3.75)" gradientUnits="userSpaceOnUse" id="gradient12" spreadMethod="pad" x1="-819.2" x2="819.2">
      <stop offset="0.0" stop-color="#352e29"/>
      <stop offset="1.0" stop-color="#191513"/>
    </linearGradient>
    <linearGradient gradientTransform="matrix(0.0, -0.0069, 0.0256, 0.0, 21.55, 3.75)" gradientUnits="userSpaceOnUse" id="gradient13" spreadMethod="pad" x1="-819.2" x2="819.2">
      <stop offset="0.0" stop-color="#352e29"/>
      <stop offset="1.0" stop-color="#191513"/>
    </linearGradient>
  </defs>
</svg>
