<?xml version="1.0" encoding="UTF-8" standalone="no"?>
<svg xmlns:xlink="http://www.w3.org/1999/xlink" height="14.0px" width="22.0px" xmlns="http://www.w3.org/2000/svg">
  <g transform="matrix(1.0, 0.0, 0.0, 1.0, 0.0, 0.0)">
    <path d="M22.0 7.95 L21.9 8.85 Q21.45 10.8 20.0 12.2 18.3 13.75 16.1 14.0 L5.95 14.0 Q3.75 13.75 2.1 12.2 0.5 10.75 0.2 8.7 L0.05 7.55 0.05 7.45 0.0 7.25 0.0 7.15 0.0 7.0 0.05 6.6 0.05 6.5 0.25 5.2 Q0.6 3.4 2.1 1.95 3.45 0.6 5.2 0.15 L5.75 0.0 16.3 0.0 16.85 0.15 Q18.55 0.5 20.0 1.95 21.95 3.85 22.0 6.5 L22.0 7.55 22.0 7.95 M16.0 0.75 L15.5 0.7 6.05 0.65 Q3.6 1.0 2.85 2.4 4.35 1.65 6.95 1.6 L7.85 1.6 15.15 1.6 16.0 1.7 Q19.45 2.25 20.95 5.95 20.65 4.2 19.8 2.95 18.15 1.05 16.0 0.75 M15.25 8.85 L11.8 8.85 9.3 8.85 6.95 8.85 5.65 8.85 Q1.9 9.1 2.2 3.2 0.95 4.9 0.9 7.5 1.55 12.8 6.95 13.35 L9.3 13.35 11.8 13.35 15.2 13.3 16.2 13.3 Q20.15 12.4 21.15 8.85 L15.25 8.85" fill="#d0d0d0" fill-rule="evenodd" stroke="none"/>
    <path d="M11.8 8.85 L15.25 8.85 15.2 13.3 11.8 13.35 11.8 8.85" fill="url(#gradient0)" fill-rule="evenodd" stroke="none"/>
    <path d="M16.0 0.75 Q18.15 1.05 19.8 2.95 20.65 4.2 20.95 5.95 19.45 2.25 16.0 1.7 L15.15 1.6 7.85 1.6 6.95 1.6 Q4.35 1.65 2.85 2.4 3.6 1.0 6.05 0.65 L15.5 0.7 16.0 0.75" fill="#cccccc" fill-rule="evenodd" stroke="none"/>
    <path d="M6.95 13.35 Q1.55 12.8 0.9 7.5 0.95 4.9 2.2 3.2 1.9 9.1 5.65 8.85 L6.95 8.85 6.95 13.35" fill="url(#gradient1)" fill-rule="evenodd" stroke="none"/>
    <path d="M6.95 8.85 L9.3 8.85 9.3 13.35 6.95 13.35 6.95 8.85" fill="url(#gradient2)" fill-rule="evenodd" stroke="none"/>
    <path d="M15.2 13.3 L15.25 8.85 21.15 8.85 Q20.15 12.4 16.2 13.3 L15.2 13.3" fill="url(#gradient3)" fill-rule="evenodd" stroke="none"/>
    <path d="M11.8 8.85 L11.8 13.35 9.3 13.35 9.3 8.85 11.8 8.85" fill="url(#gradient4)" fill-rule="evenodd" stroke="none"/>
  </g>
  <defs>
    <linearGradient gradientTransform="matrix(0.0, 0.0058, -0.024, 0.0, 21.5, 8.3)" gradientUnits="userSpaceOnUse" id="gradient0" spreadMethod="pad" x1="-819.2" x2="819.2">
      <stop offset="0.0" stop-color="#cccccc"/>
      <stop offset="1.0" stop-color="#525252"/>
    </linearGradient>
    <linearGradient gradientTransform="matrix(0.0, 0.0058, -0.0237, 0.0, 20.3, 8.3)" gradientUnits="userSpaceOnUse" id="gradient1" spreadMethod="pad" x1="-819.2" x2="819.2">
      <stop offset="0.0" stop-color="#cccccc"/>
      <stop offset="1.0" stop-color="#525252"/>
    </linearGradient>
    <linearGradient gradientTransform="matrix(0.0, 0.0058, -0.024, 0.0, 20.5, 8.3)" gradientUnits="userSpaceOnUse" id="gradient2" spreadMethod="pad" x1="-819.2" x2="819.2">
      <stop offset="0.0" stop-color="#cccccc"/>
      <stop offset="1.0" stop-color="#525252"/>
    </linearGradient>
    <linearGradient gradientTransform="matrix(0.0, 0.0058, -0.0237, 0.0, 2.0, 8.3)" gradientUnits="userSpaceOnUse" id="gradient3" spreadMethod="pad" x1="-819.2" x2="819.2">
      <stop offset="0.0" stop-color="#cccccc"/>
      <stop offset="1.0" stop-color="#525252"/>
    </linearGradient>
    <linearGradient gradientTransform="matrix(0.0, 0.0058, -0.04, 0.0, 27.95, 8.3)" gradientUnits="userSpaceOnUse" id="gradient4" spreadMethod="pad" x1="-819.2" x2="819.2">
      <stop offset="0.0" stop-color="#cccccc"/>
      <stop offset="1.0" stop-color="#525252"/>
    </linearGradient>
  </defs>
</svg>
