<?xml version="1.0" encoding="UTF-8" standalone="no"?>
<svg xmlns:xlink="http://www.w3.org/1999/xlink" height="11.0px" width="19.0px" xmlns="http://www.w3.org/2000/svg">
  <g transform="matrix(1.0, 0.0, 0.0, 1.0, 0.0, 0.0)">
    <path d="M0.6 0.4 L1.0 0.2 1.75 0.0 17.2 0.0 18.1 0.2 18.4 0.4 18.5 0.5 18.5 0.45 Q18.9 0.75 19.0 1.7 L18.95 2.75 18.95 2.8 18.5 3.5 18.55 3.5 18.15 4.0 11.6 10.05 11.5 10.15 Q10.6 10.9 9.65 11.0 L9.6 11.0 9.45 11.0 Q8.45 10.95 7.5 10.15 L7.4 10.05 0.95 4.0 0.6 3.7 0.6 2.7 0.6 3.7 0.45 3.5 0.1 2.75 0.1 2.8 0.0 1.7 Q0.05 0.8 0.55 0.45 L0.45 0.65 0.5 0.6 0.55 0.5 0.6 0.4 0.6 1.25 0.6 0.4 M18.5 2.3 L18.5 1.75 18.2 0.8 18.1 0.7 17.95 0.65 17.9 0.65 17.2 0.5 1.75 0.5 Q1.4 0.5 1.2 0.65 L0.9 0.75 0.9 0.8 0.6 1.25 0.5 1.75 0.5 1.8 0.6 2.65 0.6 2.7 0.85 3.2 0.9 3.25 1.2 3.65 7.75 9.7 7.85 9.8 Q8.65 10.5 9.45 10.55 L9.6 10.55 Q10.4 10.45 11.15 9.8 L11.25 9.7 17.8 3.7 18.15 3.25 18.15 3.2 18.45 2.65 18.5 2.3" fill="#3d220d" fill-rule="evenodd" stroke="none"/>
    <path d="M0.6 1.25 L0.9 0.8 0.9 0.75 1.2 0.65 Q1.4 0.5 1.75 0.5 L17.2 0.5 17.9 0.65 17.95 0.65 18.1 0.7 18.2 0.8 18.5 1.75 18.5 2.3 Q18.5 1.35 17.95 1.0 L17.8 1.15 16.85 0.95 1.35 0.95 1.2 1.15 1.1 1.0 0.6 1.5 0.6 1.25 0.6 1.5 0.5 1.8 0.5 1.75 0.6 1.25" fill="#fc8222" fill-rule="evenodd" stroke="none"/>
    <path d="M16.4 2.5 L11.4 7.05 11.3 7.15 Q10.45 7.95 9.45 8.0 8.55 7.95 7.65 7.15 L7.55 7.05 2.25 2.1 15.15 2.1 15.8 2.1 Q16.35 2.0 16.4 2.45 L16.4 2.5" fill="#f58a24" fill-rule="evenodd" stroke="none"/>
    <path d="M18.5 2.3 L18.45 2.65 18.15 3.2 18.15 3.25 17.8 3.7 11.25 9.7 11.15 9.8 Q10.4 10.45 9.6 10.55 L9.45 10.55 Q8.65 10.5 7.85 9.8 L7.75 9.7 1.2 3.65 0.9 3.25 0.85 3.2 0.6 2.7 0.6 2.65 0.6 1.5 0.6 2.65 0.5 1.8 0.6 1.5 1.1 1.0 1.2 1.15 0.9 1.65 0.95 2.1 2.25 2.1 7.55 7.05 7.65 7.15 Q8.55 7.95 9.45 8.0 10.45 7.95 11.3 7.15 L11.4 7.05 16.4 2.5 15.8 3.5 13.85 5.3 15.05 5.4 17.5 3.15 Q18.35 2.25 18.1 1.6 L17.8 1.15 17.95 1.0 Q18.5 1.35 18.5 2.3" fill="url(#gradient0)" fill-rule="evenodd" stroke="none"/>
    <path d="M17.8 1.15 L18.1 1.6 Q18.35 2.25 17.5 3.15 L15.05 5.4 13.85 5.3 15.8 3.5 16.4 2.5 16.4 2.45 Q16.35 2.0 15.8 2.1 L15.15 2.1 2.25 2.1 0.95 2.1 0.9 1.65 1.2 1.15 1.35 0.95 16.85 0.95 17.8 1.15" fill="url(#gradient1)" fill-rule="evenodd" stroke="none"/>
  </g>
  <defs>
    <linearGradient gradientTransform="matrix(0.0, -0.005, 0.011, 0.0, 9.45, 6.0)" gradientUnits="userSpaceOnUse" id="gradient0" spreadMethod="pad" x1="-819.2" x2="819.2">
      <stop offset="0.011764705882352941" stop-color="#c14a03"/>
      <stop offset="1.0" stop-color="#f58a24"/>
    </linearGradient>
    <linearGradient gradientTransform="matrix(0.0, 0.0025, -0.0106, 0.0, 9.5, 3.2)" gradientUnits="userSpaceOnUse" id="gradient1" spreadMethod="pad" x1="-819.2" x2="819.2">
      <stop offset="0.0196078431372549" stop-color="#f7ab31"/>
      <stop offset="1.0" stop-color="#de6e15"/>
    </linearGradient>
  </defs>
</svg>
