<?xml version="1.0" encoding="UTF-8" standalone="no"?>
<svg xmlns:xlink="http://www.w3.org/1999/xlink" height="33.2px" width="28.95px" xmlns="http://www.w3.org/2000/svg">
  <g transform="matrix(1.0, 0.0, 0.0, 1.0, 0.15, -4.05)">
    <path d="M21.4 6.3 Q22.1 7.7 22.1 10.7 L22.35 19.7 27.15 19.7 27.3 19.7 27.45 19.85 Q28.55 21.5 28.0 23.1 L27.95 23.25 16.35 35.6 16.3 35.6 Q15.25 36.7 14.35 36.65 L14.3 36.65 Q13.4 36.7 12.35 35.6 L0.7 23.25 0.65 23.1 Q0.1 21.5 1.25 19.85 L1.35 19.7 1.5 19.7 6.3 19.7 6.55 10.7 Q6.55 7.7 7.25 6.3 8.05 4.7 9.6 4.75 L14.2 4.75 14.35 4.7 14.5 4.75 19.05 4.75 Q20.65 4.7 21.4 6.3" fill="#48561b" fill-rule="evenodd" stroke="none"/>
    <path d="M21.15 4.9 Q22.0 5.6 22.3 6.85 22.75 8.25 22.75 10.7 L22.95 18.8 23.3 18.85 26.75 18.85 Q27.3 18.9 27.65 19.2 L27.95 19.5 Q29.2 21.4 28.6 23.3 L28.55 23.4 28.5 23.5 28.4 23.65 16.8 36.0 16.65 36.1 Q15.4 37.35 14.35 37.25 L14.3 37.25 Q13.2 37.35 11.9 36.0 L0.3 23.65 0.05 23.25 Q-0.5 21.4 0.65 19.6 0.7 19.4 0.9 19.3 1.2 18.95 1.8 18.85 L1.9 18.85 5.3 18.85 5.75 18.75 5.95 10.7 Q5.95 8.5 6.3 7.15 6.55 5.35 7.95 4.6 L8.05 4.55 Q8.3 4.35 8.65 4.3 8.9 4.15 9.25 4.1 L10.15 4.05 18.5 4.05 19.4 4.15 19.7 4.2 Q20.45 4.3 21.1 4.85 L21.15 4.9 M21.4 6.3 Q20.65 4.7 19.05 4.75 L14.5 4.75 14.35 4.7 14.2 4.75 9.6 4.75 Q8.05 4.7 7.25 6.3 6.55 7.7 6.55 10.7 L6.3 19.7 1.5 19.7 1.35 19.7 1.25 19.85 Q0.1 21.5 0.65 23.1 L0.7 23.25 12.35 35.6 Q13.4 36.7 14.3 36.65 L14.35 36.65 Q15.25 36.7 16.3 35.6 L16.35 35.6 27.95 23.25 28.0 23.1 Q28.55 21.5 27.45 19.85 L27.3 19.7 27.15 19.7 22.35 19.7 22.1 10.7 Q22.1 7.7 21.4 6.3" fill="#000000" fill-rule="evenodd" stroke="none"/>
    <path d="M27.25 20.65 L16.05 32.35 Q15.1 33.3 14.3 33.3 13.5 33.3 12.55 32.35 L1.4 20.65 1.2 20.25 1.2 20.0 1.2 19.85 Q1.35 19.55 1.9 19.45 L5.4 19.45 Q6.45 19.4 6.65 18.55 L6.85 7.65 Q7.05 5.15 9.3 4.7 L10.15 4.65 18.5 4.65 19.3 4.7 Q21.55 5.15 21.8 7.65 L22.0 18.55 Q22.2 19.4 23.25 19.45 L26.7 19.45 Q27.25 19.55 27.4 19.85 L27.25 20.65" fill="#c0e700" fill-rule="evenodd" stroke="none"/>
    <path d="M21.25 9.35 L21.2 9.5 21.2 9.55 Q20.95 7.8 19.3 7.35 L18.15 7.2 18.05 7.2 10.6 7.2 Q7.8 7.25 7.45 9.55 L7.4 9.3 Q7.3 5.5 10.45 5.4 L18.25 5.4 18.95 5.45 Q20.15 5.7 20.75 6.65 L20.7 6.7 Q21.3 7.65 21.25 9.3 L21.25 9.35" fill="#effca0" fill-rule="evenodd" stroke="none"/>
    <path d="M21.7 7.0 Q21.45 5.95 20.75 5.35 20.25 4.9 19.55 4.75 L19.3 4.7 18.5 4.65 10.15 4.65 9.3 4.7 8.9 4.85 8.3 5.1 Q7.1 5.7 6.9 7.3 6.55 8.6 6.55 10.7 L6.35 19.1 5.4 19.45 1.9 19.45 Q1.4 19.55 1.25 19.8 L1.25 19.85 Q0.1 21.5 0.65 23.1 L0.7 23.25 12.35 35.6 Q13.4 36.7 14.3 36.65 L14.35 36.65 Q15.25 36.7 16.3 35.6 L16.35 35.6 27.95 23.25 28.0 23.1 Q28.55 21.5 27.45 19.85 L27.3 19.7 Q27.1 19.5 26.7 19.45 L23.25 19.45 Q22.65 19.4 22.35 19.15 L22.1 10.7 Q22.1 8.35 21.7 7.0 Z" fill="none" stroke="#000000" stroke-linecap="round" stroke-linejoin="round" stroke-width="1.0"/>
  </g>
</svg>
