<?xml version="1.0" encoding="UTF-8" standalone="no"?>
<svg xmlns:xlink="http://www.w3.org/1999/xlink" height="25.2px" width="8.2px" xmlns="http://www.w3.org/2000/svg">
  <g transform="matrix(1.0, 0.0, 0.0, 1.0, 0.25, -4.45)">
    <path d="M6.6 5.75 Q7.7 6.8 7.7 8.45 L6.2 20.15 Q6.1 21.2 5.5 21.8 4.8 22.35 3.9 22.35 2.9 22.35 2.2 21.8 1.6 21.2 1.5 20.15 L0.0 8.5 Q0.0 6.8 1.1 5.75 2.25 4.7 3.9 4.7 5.5 4.7 6.6 5.75" fill="url(#gradient0)" fill-rule="evenodd" stroke="none"/>
    <path d="M6.0 28.7 Q5.3 29.4 3.9 29.4 2.5 29.4 1.8 28.7 1.0 28.05 1.0 26.9 1.0 25.85 1.8 25.2 2.5 24.5 3.9 24.5 5.25 24.5 6.1 25.2 6.8 25.9 6.8 26.9 6.8 28.05 6.0 28.7" fill="url(#gradient1)" fill-rule="evenodd" stroke="none"/>
    <path d="M6.6 5.75 Q7.7 6.8 7.7 8.45 L6.2 20.15 Q6.1 21.2 5.5 21.8 4.8 22.35 3.9 22.35 2.9 22.35 2.2 21.8 1.6 21.2 1.5 20.15 L0.0 8.5 Q0.0 6.8 1.1 5.75 2.25 4.7 3.9 4.7 5.5 4.7 6.6 5.75 M6.0 28.7 Q5.3 29.4 3.9 29.4 2.5 29.4 1.8 28.7 1.0 28.05 1.0 26.9 1.0 25.85 1.8 25.2 2.5 24.5 3.9 24.5 5.25 24.5 6.1 25.2 6.8 25.9 6.8 26.9 6.8 28.05 6.0 28.7" fill="none" stroke="#366b01" stroke-linecap="round" stroke-linejoin="round" stroke-width="0.5"/>
  </g>
  <defs>
    <linearGradient gradientTransform="matrix(-0.0017, -0.0044, 0.0101, -0.0038, 3.8, 13.55)" gradientUnits="userSpaceOnUse" id="gradient0" spreadMethod="pad" x1="-819.2" x2="819.2">
      <stop offset="0.050980392156862744" stop-color="#66cc00"/>
      <stop offset="1.0" stop-color="#a5e12a"/>
    </linearGradient>
    <linearGradient gradientTransform="matrix(-0.0011, -0.0029, 0.0033, -0.0012, 3.9, 27.0)" gradientUnits="userSpaceOnUse" id="gradient1" spreadMethod="pad" x1="-819.2" x2="819.2">
      <stop offset="0.050980392156862744" stop-color="#66cc00"/>
      <stop offset="1.0" stop-color="#a5e12a"/>
    </linearGradient>
  </defs>
</svg>
