<?xml version="1.0" encoding="UTF-8" standalone="no"?>
<svg xmlns:xlink="http://www.w3.org/1999/xlink" height="24.7px" width="7.0px" xmlns="http://www.w3.org/2000/svg">
  <g transform="matrix(1.0, 0.0, 0.0, 1.0, 3.7, 22.85)">
    <path d="M2.35 -20.95 Q3.25 -20.05 3.3 -18.65 L1.8 -6.95 Q1.7 -6.1 1.3 -5.65 L1.25 -5.6 Q0.7 -5.2 0.0 -5.2 -0.8 -5.2 -1.35 -5.6 L-1.35 -5.65 Q-1.8 -6.1 -1.9 -6.95 L-3.4 -18.6 Q-3.35 -20.05 -2.45 -20.9 L-2.45 -20.95 Q-1.45 -21.85 0.0 -21.85 1.4 -21.85 2.35 -20.95" fill="url(#gradient0)" fill-rule="evenodd" stroke="none"/>
    <path d="M1.85 -1.5 L1.9 -1.45 Q2.4 -0.95 2.4 -0.15 2.4 0.75 1.8 1.25 L1.75 1.3 Q1.15 1.85 0.0 1.85 -1.15 1.85 -1.75 1.3 L-1.75 1.25 Q-2.4 0.75 -2.4 -0.15 -2.4 -0.95 -1.75 -1.45 L-1.75 -1.5 Q-1.15 -2.05 0.0 -2.05 1.15 -2.05 1.85 -1.5" fill="url(#gradient1)" fill-rule="evenodd" stroke="none"/>
    <path d="M-3.2 -20.8 L-2.8 -21.3 Q-1.7 -22.3 -0.1 -22.35" fill="none" stroke="#ffffcc" stroke-linecap="round" stroke-linejoin="round" stroke-opacity="0.4509804" stroke-width="1.0"/>
  </g>
  <defs>
    <linearGradient gradientTransform="matrix(0.0054, 0.007, -0.0059, 0.0046, 0.1, -13.8)" gradientUnits="userSpaceOnUse" id="gradient0" spreadMethod="pad" x1="-819.2" x2="819.2">
      <stop offset="0.050980392156862744" stop-color="#66cc00"/>
      <stop offset="1.0" stop-color="#a5e12a"/>
    </linearGradient>
    <linearGradient gradientTransform="matrix(0.0016, 0.0021, -0.0022, 0.0017, 0.0, -0.1)" gradientUnits="userSpaceOnUse" id="gradient1" spreadMethod="pad" x1="-819.2" x2="819.2">
      <stop offset="0.050980392156862744" stop-color="#66cc00"/>
      <stop offset="1.0" stop-color="#a5e12a"/>
    </linearGradient>
  </defs>
</svg>
