<?xml version="1.0" encoding="UTF-8" standalone="no"?>
<svg xmlns:xlink="http://www.w3.org/1999/xlink" height="24.7px" width="8.7px" xmlns="http://www.w3.org/2000/svg">
  <g transform="matrix(1.0, 0.0, 0.0, 1.0, 4.4, 22.85)">
    <path d="M2.7 -13.7 L1.8 -6.95 Q1.75 -6.15 1.3 -5.65 0.75 -5.2 0.0 -5.2 -0.8 -5.2 -1.4 -5.65 -1.85 -6.15 -1.9 -6.95 L-2.4 -10.85 Q-0.65 -15.35 2.7 -13.7" fill="url(#gradient0)" fill-rule="evenodd" stroke="none"/>
    <path d="M-2.75 -18.6 L-3.3 -19.3 Q-3.15 -20.25 -2.45 -20.9 L-2.45 -20.95 Q-1.45 -21.85 0.0 -21.85 L1.7 -21.45 1.05 -20.2 -0.85 -19.8 Q-2.0 -19.8 -2.75 -18.6" fill="url(#gradient1)" fill-rule="evenodd" stroke="none"/>
    <path d="M2.4 -0.15 Q2.35 0.8 1.85 1.3 1.15 1.85 0.05 1.85 -1.1 1.85 -1.7 1.35 -2.4 0.75 -2.4 -0.1 L-2.4 -0.15 Q-2.4 -0.9 -1.85 -1.35 L1.85 -1.45 Q2.4 -0.9 2.4 -0.15" fill="url(#gradient2)" fill-rule="evenodd" stroke="none"/>
    <path d="M1.05 -20.2 L2.5 -20.8 Q3.25 -19.95 3.3 -18.65 L2.7 -13.7 Q-0.65 -15.35 -2.4 -10.85 L-3.25 -17.6 -2.75 -18.6 Q-2.0 -19.8 -0.85 -19.8 L1.05 -20.2" fill="#e2fe1f" fill-rule="evenodd" stroke="none"/>
    <path d="M0.1 -22.35 Q1.65 -22.3 2.7 -21.3 3.8 -20.25 3.8 -18.6 L2.7 -9.85 M-2.65 -8.95 L-3.9 -18.55 Q-3.9 -19.8 -3.3 -20.7" fill="none" stroke="#ffffcc" stroke-linecap="round" stroke-linejoin="round" stroke-opacity="0.4509804" stroke-width="1.0"/>
  </g>
  <defs>
    <linearGradient gradientTransform="matrix(0.0035, 0.0046, -0.004, 0.0031, 0.0, -10.6)" gradientUnits="userSpaceOnUse" id="gradient0" spreadMethod="pad" x1="-819.2" x2="819.2">
      <stop offset="0.050980392156862744" stop-color="#66cc00"/>
      <stop offset="1.0" stop-color="#a5e12a"/>
    </linearGradient>
    <linearGradient gradientTransform="matrix(0.001, 0.0013, -0.0026, 0.002, -0.8, -20.5)" gradientUnits="userSpaceOnUse" id="gradient1" spreadMethod="pad" x1="-819.2" x2="819.2">
      <stop offset="0.050980392156862744" stop-color="#66cc00"/>
      <stop offset="1.0" stop-color="#a5e12a"/>
    </linearGradient>
    <linearGradient gradientTransform="matrix(0.0016, 0.0021, -0.0022, 0.0017, 0.05, -0.05)" gradientUnits="userSpaceOnUse" id="gradient2" spreadMethod="pad" x1="-819.2" x2="819.2">
      <stop offset="0.050980392156862744" stop-color="#66cc00"/>
      <stop offset="1.0" stop-color="#a5e12a"/>
    </linearGradient>
  </defs>
</svg>
