<?xml version="1.0" encoding="UTF-8" standalone="no"?>
<svg xmlns:xlink="http://www.w3.org/1999/xlink" height="32.0px" width="32.0px" xmlns="http://www.w3.org/2000/svg">
  <g transform="matrix(1.0, 0.0, 0.0, 1.0, 0.0, 0.0)">
    <path d="M31.0 0.0 L31.0 31.0 0.0 31.0 0.0 0.0 31.0 0.0" fill="#ffffff" fill-opacity="0.0" fill-rule="evenodd" stroke="none"/>
    <path d="M21.45 21.45 Q21.85 21.0 22.35 21.0 22.9 21.0 23.3 21.45 L26.0 24.15 28.75 21.45 Q29.15 21.0 29.7 21.0 30.25 21.0 30.65 21.45 31.0 21.85 31.0 22.4 31.0 22.95 30.6 23.35 L27.95 26.05 30.6 28.7 Q31.0 29.15 31.0 29.65 31.0 30.2 30.6 30.6 30.2 31.0 29.65 31.0 29.15 31.0 28.75 30.6 L26.05 27.95 23.3 30.65 Q22.9 31.0 22.35 31.0 21.8 31.0 21.45 30.6 21.0 30.2 21.0 29.65 21.0 29.1 21.45 28.7 L24.15 26.0 21.45 23.3 Q21.0 22.9 21.0 22.35 21.0 21.85 21.45 21.45" fill="#d3161d" fill-rule="evenodd" stroke="none"/>
    <path d="M21.45 21.45 Q21.0 21.85 21.0 22.35 21.0 22.9 21.45 23.3 L24.15 26.0 21.45 28.7 Q21.0 29.1 21.0 29.65 21.0 30.2 21.45 30.6 21.8 31.0 22.35 31.0 22.9 31.0 23.3 30.65 L26.05 27.95 28.75 30.6 Q29.15 31.0 29.65 31.0 30.2 31.0 30.6 30.6 31.0 30.2 31.0 29.65 31.0 29.15 30.6 28.7 L27.95 26.05 30.6 23.35 Q31.0 22.95 31.0 22.4 31.0 21.85 30.65 21.45 30.25 21.0 29.7 21.0 29.15 21.0 28.75 21.45 L26.0 24.15 23.3 21.45 Q22.9 21.0 22.35 21.0 21.85 21.0 21.45 21.45 Z" fill="none" stroke="#000000" stroke-linecap="round" stroke-linejoin="round" stroke-width="2.0"/>
    <path d="M21.45 21.45 Q21.85 21.0 22.35 21.0 22.9 21.0 23.3 21.45 L26.0 24.15 28.75 21.45 Q29.15 21.0 29.7 21.0 30.25 21.0 30.65 21.45 31.0 21.85 31.0 22.4 31.0 22.95 30.6 23.35 L27.95 26.05 30.6 28.7 Q31.0 29.15 31.0 29.65 31.0 30.2 30.6 30.6 30.2 31.0 29.65 31.0 29.15 31.0 28.75 30.6 L26.05 27.95 23.3 30.65 Q22.9 31.0 22.35 31.0 21.8 31.0 21.45 30.6 21.0 30.2 21.0 29.65 21.0 29.1 21.45 28.7 L24.15 26.0 21.45 23.3 Q21.0 22.9 21.0 22.35 21.0 21.85 21.45 21.45" fill="#d3161d" fill-rule="evenodd" stroke="none"/>
  </g>
</svg>
