<?xml version="1.0" encoding="UTF-8" standalone="no"?>
<svg xmlns:xlink="http://www.w3.org/1999/xlink" height="32.0px" width="32.0px" xmlns="http://www.w3.org/2000/svg">
  <g transform="matrix(1.0, 0.0, 0.0, 1.0, 0.5, 0.5)">
    <path d="M0.0 0.0 L7.7 0.0 3.85 3.85 0.0 0.0" fill="#ffffff" fill-rule="evenodd" stroke="none"/>
    <path d="M0.0 0.0 L3.85 3.85 0.0 7.7 0.0 0.0" fill="#cccccc" fill-rule="evenodd" stroke="none"/>
    <path d="M3.85 3.85 L7.7 0.0 0.0 0.0 0.0 7.7 3.85 3.85 Z" fill="none" stroke="#000000" stroke-linecap="round" stroke-linejoin="round" stroke-width="1.0"/>
    <path d="M8.65 29.05 L8.65 6.25 Q8.65 4.0 10.8 4.0 L24.45 4.0 Q26.65 4.0 26.65 6.25 L26.65 12.0 25.25 12.15 25.25 7.65 Q25.25 5.6 23.35 5.6 L12.1 5.6 Q10.1 5.6 10.1 7.65 L10.1 24.25 10.1 28.8 10.1 29.0 25.25 29.0 25.25 24.25 25.25 22.2 26.65 22.35 26.65 29.05 8.65 29.05 M11.2 24.25 L11.2 6.75 12.5 6.75 12.55 6.8 12.55 28.05 11.2 28.05 11.2 24.25" fill="#ffffff" fill-rule="evenodd" stroke="none"/>
    <path d="M26.65 22.35 L25.25 22.2 25.25 24.25 16.55 24.25 17.75 23.1 17.75 19.45 17.75 19.35 17.75 19.1 17.75 14.95 17.75 11.7 12.55 6.8 12.5 6.75 11.2 6.75 11.2 24.25 10.1 24.25 10.1 7.65 Q10.1 5.6 12.1 5.6 L23.35 5.6 Q25.25 5.6 25.25 7.65 L25.25 12.15 26.65 12.0 26.65 13.05 31.0 12.5 31.0 21.9 26.65 21.35 26.65 22.35" fill="#333333" fill-rule="evenodd" stroke="none"/>
    <path d="M8.65 29.05 L26.65 29.05 28.6 29.05 Q28.85 29.05 29.15 29.3 L29.3 30.0 29.15 30.75 28.6 31.0 6.7 31.0 6.1 30.75 6.0 30.0 6.1 29.3 Q6.45 29.05 6.7 29.05 L8.65 29.05 M12.55 6.8 L17.75 11.7 17.75 14.95 17.75 19.1 17.75 19.35 17.75 19.45 17.75 23.1 16.55 24.25 12.55 28.05 12.55 6.8" fill="#cccccc" fill-rule="evenodd" stroke="none"/>
    <path d="M25.25 24.25 L25.25 29.0 10.1 29.0 10.1 28.8 10.1 24.25 11.2 24.25 11.2 28.05 12.55 28.05 16.55 24.25 25.25 24.25" fill="#666666" fill-rule="evenodd" stroke="none"/>
    <path d="M26.65 12.0 L26.65 6.25 Q26.65 4.0 24.45 4.0 L10.8 4.0 Q8.65 4.0 8.65 6.25 L8.65 29.05 26.65 29.05 26.65 22.35 26.65 21.35 31.0 21.9 31.0 12.5 26.65 13.05 26.65 12.0 M26.65 29.05 L28.6 29.05 Q28.85 29.05 29.15 29.3 L29.3 30.0 29.15 30.75 28.6 31.0 6.7 31.0 6.1 30.75 6.0 30.0 6.1 29.3 Q6.45 29.05 6.7 29.05 L8.65 29.05" fill="none" stroke="#000000" stroke-linecap="round" stroke-linejoin="round" stroke-width="1.0"/>
    <path d="M11.2 24.25 L11.2 6.75 12.5 6.75 12.55 6.8 17.75 11.7 17.75 14.95 17.75 19.1 17.75 19.35 17.75 19.45 17.75 23.1 16.55 24.25 12.55 28.05 11.2 28.05 11.2 24.25" fill="none" stroke="#000000" stroke-linecap="round" stroke-linejoin="round" stroke-width="0.5"/>
    <path d="M21.1 20.6 L21.1 24.8 16.4 17.2 21.1 9.55 21.1 13.8 31.0 12.5 31.0 21.9 21.1 20.6" fill="#ffffff" fill-rule="evenodd" stroke="none"/>
    <path d="M21.1 20.6 L21.1 24.8 16.4 17.2 21.1 9.55 21.1 13.8 31.0 12.5 31.0 21.9 21.1 20.6 Z" fill="none" stroke="#000000" stroke-linecap="round" stroke-linejoin="round" stroke-width="0.5"/>
  </g>
</svg>
