<?xml version="1.0" encoding="UTF-8" standalone="no"?>
<svg xmlns:xlink="http://www.w3.org/1999/xlink" height="32.0px" width="31.0px" xmlns="http://www.w3.org/2000/svg">
  <g transform="matrix(1.0, 0.0, 0.0, 1.0, 0.5, 0.5)">
    <path d="M0.0 0.0 L7.7 0.0 3.85 3.85 0.0 0.0" fill="#ffffff" fill-rule="evenodd" stroke="none"/>
    <path d="M0.0 0.0 L3.85 3.85 0.0 7.7 0.0 0.0" fill="#cccccc" fill-rule="evenodd" stroke="none"/>
    <path d="M3.85 3.85 L7.7 0.0 0.0 0.0 0.0 7.7 3.85 3.85 Z" fill="none" stroke="#000000" stroke-linecap="round" stroke-linejoin="round" stroke-width="1.0"/>
    <path d="M25.05 2.0 Q27.7 7.4 22.05 14.05 L19.3 14.05 18.45 14.05 Q18.85 15.2 18.85 16.65 L20.25 18.3 Q20.75 18.6 21.45 18.3 L22.45 17.65 19.4 20.55 17.5 18.3 15.8 20.35 13.45 18.25 13.5 18.2 14.65 18.3 16.05 16.65 Q16.05 15.2 16.45 14.05 16.8 13.1 17.5 12.25 L17.65 11.95 18.45 11.65 Q24.5 8.75 25.05 2.0 M9.9 2.0 Q10.5 8.75 16.45 11.65 L16.4 11.75 15.7 14.05 12.9 14.05 Q7.25 7.4 9.9 2.0 M18.2 15.3 L18.0 14.75 17.6 14.55 17.05 14.75 16.8 15.3 17.0 15.8 17.5 16.1 18.0 15.8 18.2 15.5 18.2 15.3" fill="#cccccc" fill-rule="evenodd" stroke="none"/>
    <path d="M25.05 2.0 Q24.5 8.75 18.45 11.65 L17.65 11.95 17.5 12.25 Q16.8 13.1 16.45 14.05 16.05 15.2 16.05 16.65 L14.65 18.3 13.5 18.2 15.1 16.0 15.7 14.05 16.4 11.75 16.45 11.65 Q10.5 8.75 9.9 2.0 12.6 6.75 17.5 10.9 22.3 6.75 25.05 2.0 M21.45 18.3 Q20.75 18.6 20.25 18.3 L18.85 16.65 Q18.85 15.2 18.45 14.05 L19.3 14.05 19.8 16.0 20.0 16.4 21.45 18.3" fill="#ffffff" fill-rule="evenodd" stroke="none"/>
    <path d="M13.45 18.25 L15.8 20.35 15.6 20.55 8.4 30.55 8.25 30.55 7.65 30.95 6.95 30.85 6.45 30.45 5.85 29.9 5.6 29.6 5.15 29.2 5.0 28.75 6.55 29.1 Q8.5 23.35 12.8 19.55 12.95 18.6 12.6 17.55 L12.7 17.55 Q12.95 17.85 13.3 18.0 L13.4 18.1 13.4 18.2 13.45 18.25 M19.4 20.55 L22.45 17.65 Q21.95 18.6 22.2 19.55 26.4 23.35 28.35 29.1 L29.9 28.75 29.75 29.2 29.4 29.6 29.05 29.9 28.55 30.45 27.95 30.85 27.25 30.95 26.65 30.55 26.55 30.55 19.4 20.55 M18.2 15.3 L18.2 15.5 18.0 15.8 17.5 16.1 17.0 15.8 16.8 15.3 17.05 14.75 17.6 14.55 18.0 14.75 18.2 15.3" fill="#333333" fill-rule="evenodd" stroke="none"/>
    <path d="M29.9 28.75 L28.35 29.1 Q26.4 23.35 22.2 19.55 21.95 18.6 22.45 17.65 27.45 21.5 29.85 28.05 L30.0 28.45 29.9 28.55 29.9 28.75 M12.6 17.55 Q12.95 18.6 12.8 19.55 8.5 23.35 6.55 29.1 L5.0 28.75 5.0 28.55 5.0 28.45 5.1 28.05 Q7.55 21.4 12.6 17.55" fill="#666666" fill-rule="evenodd" stroke="none"/>
    <path d="M13.4 18.1 L13.5 18.2 13.4 18.2 13.4 18.1 M12.6 17.55 L12.6 17.45 12.7 17.55 12.6 17.55" fill="#000000" fill-rule="evenodd" stroke="none"/>
    <path d="M13.5 18.2 L13.45 18.25 13.4 18.2 13.5 18.2" fill="#8a9991" fill-rule="evenodd" stroke="none"/>
    <path d="M19.3 14.05 L22.05 14.05 Q27.7 7.4 25.05 2.0 22.3 6.75 17.5 10.9 12.6 6.75 9.9 2.0 7.25 7.4 12.9 14.05 L15.7 14.05 15.1 16.0 13.5 18.2 M15.8 20.35 L17.5 18.3 19.4 20.55 26.55 30.55 26.65 30.55 27.25 30.95 27.95 30.85 28.55 30.45 29.05 29.9 29.4 29.6 29.75 29.2 29.9 28.75 29.9 28.55 30.0 28.45 29.85 28.05 Q27.45 21.5 22.45 17.65 L21.45 18.3 20.0 16.4 19.8 16.0 19.3 14.05 M12.7 17.55 Q12.95 17.85 13.3 18.0 M5.0 28.75 L5.15 29.2 5.6 29.6 5.85 29.9 6.45 30.45 6.95 30.85 7.65 30.95 8.25 30.55 8.4 30.55 15.6 20.55 15.8 20.35 M12.6 17.55 Q7.55 21.4 5.1 28.05 L5.0 28.45 5.0 28.55 5.0 28.75" fill="none" stroke="#000000" stroke-linecap="round" stroke-linejoin="round" stroke-width="1.0"/>
  </g>
</svg>
