<?xml version="1.0" encoding="UTF-8" standalone="no"?>
<svg xmlns:xlink="http://www.w3.org/1999/xlink" height="23.5px" width="7.95px" xmlns="http://www.w3.org/2000/svg">
  <g transform="matrix(1.0, 0.0, 0.0, 1.0, 4.0, 21.85)">
    <path d="M-1.95 -13.45 L-2.9 -15.05 -3.4 -18.6 Q-3.35 -20.05 -2.45 -20.9 L-2.45 -20.95 Q-1.45 -21.85 0.0 -21.85 1.4 -21.85 2.35 -20.95 3.25 -20.05 3.3 -18.65 L2.75 -14.35 1.9 -12.85 Q1.1 -14.0 0.2 -14.3 -0.8 -14.65 -1.95 -13.45" fill="url(#gradient0)" fill-rule="evenodd" stroke="none"/>
    <path d="M-1.85 -1.35 L1.15 -1.65 Q2.2 0.25 2.0 0.8 L0.65 1.6 -1.1 1.45 -1.15 1.45 Q-1.95 1.1 -2.15 0.4 L-2.3 0.15 -2.4 -0.15 Q-2.4 -0.9 -1.85 -1.35" fill="url(#gradient1)" fill-rule="evenodd" stroke="none"/>
    <path d="M-1.95 -13.45 Q-0.8 -14.65 0.2 -14.3 1.1 -14.0 1.9 -12.85 L2.45 -11.9 1.8 -6.95 Q1.75 -6.15 1.3 -5.65 0.75 -5.2 0.0 -5.2 -0.8 -5.2 -1.4 -5.65 -1.85 -6.15 -1.9 -6.95 L-2.6 -12.65 -1.95 -13.45" fill="#f9fe85" fill-rule="evenodd" stroke="none"/>
    <path d="M3.45 -15.7 L2.3 -6.9 Q2.2 -5.85 1.6 -5.25 0.9 -4.7 0.0 -4.7 -1.0 -4.7 -1.7 -5.25 -2.3 -5.85 -2.4 -6.9 L-3.5 -15.7" fill="none" stroke="#ffffcc" stroke-linecap="round" stroke-linejoin="round" stroke-opacity="0.4509804" stroke-width="1.0"/>
  </g>
  <defs>
    <linearGradient gradientTransform="matrix(0.0034, 0.0044, -0.0039, 0.003, 0.15, -17.3)" gradientUnits="userSpaceOnUse" id="gradient0" spreadMethod="pad" x1="-819.2" x2="819.2">
      <stop offset="0.050980392156862744" stop-color="#66cc00"/>
      <stop offset="1.0" stop-color="#a5e12a"/>
    </linearGradient>
    <linearGradient gradientTransform="matrix(0.0015, 0.002, -0.0019, 0.0015, -0.1, -0.1)" gradientUnits="userSpaceOnUse" id="gradient1" spreadMethod="pad" x1="-819.2" x2="819.2">
      <stop offset="0.050980392156862744" stop-color="#66cc00"/>
      <stop offset="1.0" stop-color="#a5e12a"/>
    </linearGradient>
  </defs>
</svg>
