<?xml version="1.0" encoding="UTF-8" standalone="no"?>
<svg xmlns:xlink="http://www.w3.org/1999/xlink" height="32.0px" width="32.0px" xmlns="http://www.w3.org/2000/svg">
  <g transform="matrix(1.0, 0.0, 0.0, 1.0, 0.5, 0.5)">
    <path d="M0.0 0.0 L7.7 0.0 3.85 3.85 0.0 0.0" fill="#ffffff" fill-rule="evenodd" stroke="none"/>
    <path d="M0.0 0.0 L3.85 3.85 0.0 7.7 0.0 0.0" fill="#cccccc" fill-rule="evenodd" stroke="none"/>
    <path d="M3.85 3.85 L7.7 0.0 0.0 0.0 0.0 7.7 3.85 3.85 Z" fill="none" stroke="#000000" stroke-linecap="round" stroke-linejoin="round" stroke-width="1.0"/>
    <path d="M19.3 5.4 L19.9 4.5 Q20.0 3.95 20.5 3.85 L21.2 3.75 21.9 4.2 22.65 4.5 22.9 4.7 23.35 4.95 23.6 5.7 23.6 6.15 23.6 6.35 21.9 5.35 10.65 25.45 Q7.4 29.3 6.65 28.05 L6.85 27.9 17.7 8.3 18.65 6.55 19.3 5.4" fill="#666666" fill-rule="evenodd" stroke="none"/>
    <path d="M30.9 23.85 L30.75 23.95 Q29.6 20.15 27.65 17.8 25.6 15.3 22.0 13.45 L23.0 11.55 21.3 10.65 21.2 10.55 22.2 8.8 23.5 9.7 24.85 10.45 Q27.65 13.15 29.7 18.45 30.8 20.9 30.9 23.85 M17.7 8.3 L15.95 7.1 14.95 8.95 Q11.7 6.45 8.6 5.6 5.7 4.95 2.0 5.6 L2.0 5.5 Q4.55 4.1 7.1 4.1 12.5 3.45 16.0 4.85 L17.25 5.7 18.65 6.55 17.7 8.3" fill="#cccccc" fill-rule="evenodd" stroke="none"/>
    <path d="M23.6 6.35 L22.8 7.65 22.2 8.8 21.2 10.55 21.3 10.65 10.2 30.6 Q9.95 30.7 9.65 30.95 L8.9 30.85 8.5 30.7 8.15 30.5 7.65 30.1 Q7.3 29.85 7.0 29.75 L6.6 29.0 6.65 28.05 Q7.4 29.3 10.65 25.45 L21.9 5.35 23.6 6.35" fill="#333333" fill-rule="evenodd" stroke="none"/>
    <path d="M22.8 7.65 L24.1 8.6 Q28.2 11.5 29.7 16.8 31.35 22.1 30.9 23.85 30.8 20.9 29.7 18.45 27.65 13.15 24.85 10.45 L23.5 9.7 22.2 8.8 22.8 7.65 M2.0 5.5 Q3.3 4.3 8.5 3.3 13.7 2.25 17.85 4.6 L19.3 5.4 18.65 6.55 17.25 5.7 16.0 4.85 Q12.5 3.45 7.1 4.1 4.55 4.1 2.0 5.5" fill="#ffffff" fill-rule="evenodd" stroke="none"/>
    <path d="M19.3 5.4 L19.9 4.5 Q20.0 3.95 20.5 3.85 L21.2 3.75 21.9 4.2 22.65 4.5 22.9 4.7 23.35 4.95 23.6 5.7 23.6 6.15 23.6 6.35 22.8 7.65 24.1 8.6 Q28.2 11.5 29.7 16.8 31.35 22.1 30.9 23.85 M30.75 23.95 Q29.6 20.15 27.65 17.8 25.6 15.3 22.0 13.45 L23.0 11.55 21.3 10.65 10.2 30.6 Q9.95 30.7 9.65 30.95 L8.9 30.85 8.5 30.7 8.15 30.5 7.65 30.1 Q7.3 29.85 7.0 29.75 L6.6 29.0 6.65 28.05 6.85 27.9 17.7 8.3 15.95 7.1 14.95 8.95 Q11.7 6.45 8.6 5.6 5.7 4.95 2.0 5.6 M2.0 5.5 Q3.3 4.3 8.5 3.3 13.7 2.25 17.85 4.6 L19.3 5.4 M21.2 10.55 L21.3 10.65" fill="none" stroke="#000000" stroke-linecap="round" stroke-linejoin="round" stroke-width="1.0"/>
  </g>
</svg>
