<?xml version="1.0" encoding="UTF-8" standalone="no"?>
<svg xmlns:xlink="http://www.w3.org/1999/xlink" height="31.0px" width="30.8px" xmlns="http://www.w3.org/2000/svg">
  <g transform="matrix(1.0, 0.0, 0.0, 1.0, 0.5, 0.5)">
    <path d="M0.0 0.0 L7.7 0.0 3.85 3.85 0.0 0.0" fill="#ffffff" fill-rule="evenodd" stroke="none"/>
    <path d="M0.0 0.0 L3.85 3.85 0.0 7.7 0.0 0.0" fill="#cccccc" fill-rule="evenodd" stroke="none"/>
    <path d="M3.85 3.85 L7.7 0.0 0.0 0.0 0.0 7.7 3.85 3.85 Z" fill="none" stroke="#000000" stroke-linecap="round" stroke-linejoin="round" stroke-width="1.0"/>
    <path d="M6.9 11.4 L7.1 10.8 4.95 8.65 Q4.6 8.3 4.7 7.9 4.6 7.3 4.95 7.0 L6.9 5.15 Q7.1 4.8 7.7 4.8 8.1 4.8 8.45 5.15 L10.6 7.3 Q11.95 6.55 13.35 6.2 L13.35 3.05 Q13.35 2.6 13.7 2.3 13.95 1.9 14.5 2.0 L17.2 2.0 Q17.6 1.9 17.9 2.3 18.25 2.6 18.25 3.05 L18.25 6.2 Q19.65 6.6 20.95 7.3 L23.2 5.15 Q23.5 4.8 23.9 4.8 24.45 4.8 24.7 5.15 L26.65 7.0 Q27.0 7.3 27.0 7.9 L26.65 8.65 24.45 10.8 24.7 11.5 25.0 13.9 Q25.0 18.1 22.25 21.1 19.55 24.1 15.8 24.1 12.0 24.1 9.3 21.1 6.6 18.1 6.6 13.9 6.6 12.6 6.9 11.4 M13.6 11.6 L12.9 12.1 12.4 12.5 Q10.9 14.0 10.9 16.0 10.9 17.9 12.4 19.4 13.8 20.9 15.8 20.9 17.7 20.9 19.2 19.4 20.7 17.9 20.7 16.0 20.7 14.0 19.2 12.5 L18.8 12.15 Q18.7 12.0 18.5 12.0 17.3 11.1 15.8 11.1 14.6 11.1 13.6 11.6" fill="#ffffff" fill-rule="evenodd" stroke="none"/>
    <path d="M6.9 11.4 Q6.6 12.6 6.6 13.9 6.6 18.1 9.3 21.1 12.0 24.1 15.8 24.1 19.55 24.1 22.25 21.1 25.0 18.1 25.0 13.9 L24.7 11.5 25.5 13.5 28.65 13.5 Q29.2 13.5 29.5 13.8 L29.8 14.6 29.8 17.3 29.5 18.1 Q29.2 18.45 28.65 18.45 L25.5 18.45 Q25.15 19.85 24.35 21.1 L26.65 23.4 Q27.0 23.7 27.0 24.1 27.0 24.7 26.65 24.9 L24.7 26.85 Q24.45 27.2 24.0 27.2 23.5 27.2 23.2 26.85 L20.9 24.6 18.25 25.7 18.25 28.95 17.9 29.65 Q17.6 30.0 17.2 30.0 L14.5 30.0 Q13.95 30.0 13.7 29.65 13.35 29.3 13.35 28.95 L13.35 25.7 Q11.95 25.4 10.7 24.6 L8.45 26.85 7.7 27.2 Q7.1 27.2 6.9 26.85 L4.95 24.9 Q4.6 24.7 4.6 24.1 4.6 23.7 4.95 23.4 L7.2 21.2 Q6.4 19.85 6.1 18.45 L2.9 18.45 Q2.5 18.45 2.15 18.1 1.8 17.75 1.8 17.3 L1.8 14.6 Q1.8 14.2 2.15 13.8 2.5 13.5 2.9 13.5 L6.1 13.5 Q6.35 12.4 6.9 11.4" fill="#cccccc" fill-rule="evenodd" stroke="none"/>
    <path d="M12.9 12.1 L13.6 11.6 13.0 12.15 12.9 12.1" fill="#374039" fill-rule="evenodd" stroke="none"/>
    <path d="M12.9 12.1 L13.0 12.15 Q11.8 13.4 11.8 15.1 11.8 16.8 13.0 18.0 14.1 19.2 15.9 19.2 17.55 19.2 18.8 18.0 19.9 16.8 19.9 15.1 19.9 13.4 18.8 12.15 L19.2 12.5 Q20.7 14.0 20.7 16.0 20.7 17.9 19.2 19.4 17.7 20.9 15.8 20.9 13.8 20.9 12.4 19.4 10.9 17.9 10.9 16.0 10.9 14.0 12.4 12.5 L12.9 12.1" fill="#333333" fill-rule="evenodd" stroke="none"/>
    <path d="M13.0 12.15 L13.6 11.6 Q14.6 11.1 15.8 11.1 17.3 11.1 18.5 12.0 18.7 12.0 18.8 12.15 19.9 13.4 19.9 15.1 19.9 16.8 18.8 18.0 17.55 19.2 15.9 19.2 14.1 19.2 13.0 18.0 11.8 16.8 11.8 15.1 11.8 13.4 13.0 12.15" fill="#666666" fill-rule="evenodd" stroke="none"/>
    <path d="M24.7 11.5 L24.45 10.8 26.65 8.65 27.0 7.9 Q27.0 7.3 26.65 7.0 L24.7 5.15 Q24.45 4.8 23.9 4.8 23.5 4.8 23.2 5.15 L20.95 7.3 Q19.65 6.6 18.25 6.2 L18.25 3.05 Q18.25 2.6 17.9 2.3 17.6 1.9 17.2 2.0 L14.5 2.0 Q13.95 1.9 13.7 2.3 13.35 2.6 13.35 3.05 L13.35 6.2 Q11.95 6.55 10.6 7.3 L8.45 5.15 Q8.1 4.8 7.7 4.8 7.1 4.8 6.9 5.15 L4.95 7.0 Q4.6 7.3 4.7 7.9 4.6 8.3 4.95 8.65 L7.1 10.8 6.9 11.4 Q6.35 12.4 6.1 13.5 L2.9 13.5 Q2.5 13.5 2.15 13.8 1.8 14.2 1.8 14.6 L1.8 17.3 Q1.8 17.75 2.15 18.1 2.5 18.45 2.9 18.45 L6.1 18.45 Q6.4 19.85 7.2 21.2 L4.95 23.4 Q4.6 23.7 4.6 24.1 4.6 24.7 4.95 24.9 L6.9 26.85 Q7.1 27.2 7.7 27.2 L8.45 26.85 10.7 24.6 Q11.95 25.4 13.35 25.7 L13.35 28.95 Q13.35 29.3 13.7 29.65 13.95 30.0 14.5 30.0 L17.2 30.0 Q17.6 30.0 17.9 29.65 L18.25 28.95 18.25 25.7 20.9 24.6 23.2 26.85 Q23.5 27.2 24.0 27.2 24.45 27.2 24.7 26.85 L26.65 24.9 Q27.0 24.7 27.0 24.1 27.0 23.7 26.65 23.4 L24.35 21.1 Q25.15 19.85 25.5 18.45 L28.65 18.45 Q29.2 18.45 29.5 18.1 L29.8 17.3 29.8 14.6 29.5 13.8 Q29.2 13.5 28.65 13.5 L25.5 13.5 24.7 11.5" fill="none" stroke="#000000" stroke-linecap="round" stroke-linejoin="round" stroke-width="1.0"/>
    <path d="M13.6 11.6 L12.9 12.1 12.4 12.5 Q10.9 14.0 10.9 16.0 10.9 17.9 12.4 19.4 13.8 20.9 15.8 20.9 17.7 20.9 19.2 19.4 20.7 17.9 20.7 16.0 20.7 14.0 19.2 12.5 L18.8 12.15 Q18.7 12.0 18.5 12.0 17.3 11.1 15.8 11.1 14.6 11.1 13.6 11.6" fill="none" stroke="#000000" stroke-linecap="round" stroke-linejoin="round" stroke-width="0.5"/>
  </g>
</svg>
