<?xml version="1.0" encoding="UTF-8" standalone="no"?>
<svg xmlns:xlink="http://www.w3.org/1999/xlink" height="31.0px" width="31.0px" xmlns="http://www.w3.org/2000/svg">
  <g transform="matrix(1.0, 0.0, 0.0, 1.0, 0.5, 0.5)">
    <path d="M0.0 0.0 L7.7 0.0 3.85 3.85 0.0 0.0" fill="#ffffff" fill-rule="evenodd" stroke="none"/>
    <path d="M0.0 0.0 L3.85 3.85 0.0 7.7 0.0 0.0" fill="#cccccc" fill-rule="evenodd" stroke="none"/>
    <path d="M3.85 3.85 L7.7 0.0 0.0 0.0 0.0 7.7 3.85 3.85 Z" fill="none" stroke="#000000" stroke-linecap="round" stroke-linejoin="round" stroke-width="1.0"/>
    <path d="M27.75 14.3 L28.55 14.3 28.75 14.3 28.85 14.3 29.3 14.4 Q30.0 14.8 30.0 16.2 L30.0 28.3 Q30.0 30.2 28.65 30.0 L10.25 30.0 Q9.0 30.2 9.0 28.3 L9.0 26.85 Q14.05 26.55 17.85 25.6 L17.85 26.9 20.95 26.9 20.95 24.6 Q28.25 21.4 27.75 14.3 M11.9 14.3 L11.9 10.6 Q12.0 6.65 13.75 4.5 L13.85 4.5 13.75 4.45 Q15.6 2.2 19.5 2.0 27.0 2.3 27.1 10.6 L27.1 12.55 27.1 14.3 24.45 14.3 24.45 11.25 Q24.45 5.55 19.5 5.15 14.65 5.55 14.65 11.25 L14.65 14.3 11.9 14.3" fill="#cccccc" fill-rule="evenodd" stroke="none"/>
    <path d="M9.0 26.85 L9.0 16.2 Q9.0 14.8 9.7 14.4 L10.55 14.3 11.9 14.3 14.65 14.3 24.45 14.3 27.1 14.3 27.75 14.3 Q28.25 21.4 20.95 24.6 L20.95 23.0 21.65 22.45 Q22.7 21.3 22.7 20.3 22.7 18.9 21.65 17.95 20.75 17.05 19.5 17.05 18.05 17.05 16.95 17.95 16.2 18.9 16.2 20.3 16.2 21.3 16.95 22.45 L17.85 23.0 17.85 25.6 Q14.05 26.55 9.0 26.85" fill="#ffffff" fill-rule="evenodd" stroke="none"/>
    <path d="M20.95 24.6 L20.95 26.9 17.85 26.9 17.85 25.6 17.85 23.0 16.95 22.45 Q16.2 21.3 16.2 20.3 16.2 18.9 16.95 17.95 18.05 17.05 19.5 17.05 20.75 17.05 21.65 17.95 22.7 18.9 22.7 20.3 22.7 21.3 21.65 22.45 L20.95 23.0 20.95 24.6" fill="#333333" fill-rule="evenodd" stroke="none"/>
    <path d="M13.75 4.5 L13.75 4.45 13.85 4.5 13.75 4.5" fill="#625040" fill-rule="evenodd" stroke="none"/>
    <path d="M27.75 14.3 L28.55 14.3 28.75 14.3 28.85 14.3 29.3 14.4 Q30.0 14.8 30.0 16.2 L30.0 28.3 Q30.0 30.2 28.65 30.0 L10.25 30.0 Q9.0 30.2 9.0 28.3 L9.0 26.85 9.0 16.2 Q9.0 14.8 9.7 14.4 L10.55 14.3 11.9 14.3 11.9 10.6 Q12.0 6.65 13.75 4.5 M13.75 4.45 Q15.6 2.2 19.5 2.0 27.0 2.3 27.1 10.6 L27.1 12.55 27.1 14.3 27.75 14.3 M14.65 14.3 L14.65 11.25 Q14.65 5.55 19.5 5.15 24.45 5.55 24.45 11.25 L24.45 14.3 14.65 14.3" fill="none" stroke="#000000" stroke-linecap="round" stroke-linejoin="round" stroke-width="1.0"/>
  </g>
</svg>
