<?xml version="1.0" encoding="UTF-8" standalone="no"?>
<svg xmlns:xlink="http://www.w3.org/1999/xlink" height="28.0px" width="32.0px" xmlns="http://www.w3.org/2000/svg">
  <g transform="matrix(1.0, 0.0, 0.0, 1.0, 0.5, 0.5)">
    <path d="M0.0 0.0 L7.7 0.0 3.85 3.85 0.0 0.0" fill="#ffffff" fill-rule="evenodd" stroke="none"/>
    <path d="M0.0 0.0 L3.85 3.85 0.0 7.7 0.0 0.0" fill="#cccccc" fill-rule="evenodd" stroke="none"/>
    <path d="M3.85 3.85 L7.7 0.0 0.0 0.0 0.0 7.7 3.85 3.85 Z" fill="none" stroke="#000000" stroke-linecap="round" stroke-linejoin="round" stroke-width="1.0"/>
    <path d="M25.5 8.1 Q26.15 8.35 26.7 8.8 31.0 11.5 31.0 15.45 31.0 19.35 26.7 22.15 25.3 23.05 23.8 23.65 23.35 25.35 25.1 27.0 21.55 26.8 20.25 24.6 L16.5 24.9 Q10.5 24.9 6.3 22.15 2.4 19.65 2.1 16.2 7.6 22.05 17.9 19.75 20.8 19.05 22.8 18.0 L23.55 18.1 23.65 18.1 Q24.5 18.1 25.1 17.5 25.65 16.9 25.7 16.2 L25.7 15.9 25.7 15.55 25.85 15.25 Q27.55 12.4 25.5 8.1" fill="#cccccc" fill-rule="evenodd" stroke="none"/>
    <path d="M25.7 15.55 L25.7 15.9 25.7 16.2 Q25.65 16.9 25.1 17.5 24.5 18.1 23.65 18.1 L23.55 18.1 22.8 18.0 22.5 17.85 22.4 17.25 Q22.4 16.35 23.1 15.75 23.7 15.15 24.7 15.15 L25.65 15.4 25.7 15.55 M8.65 17.85 L8.6 17.25 Q8.6 16.35 9.3 15.75 9.9 15.15 10.8 15.15 L11.75 15.3 11.8 15.9 Q11.8 16.8 11.3 17.5 10.65 18.1 9.65 18.1 L8.65 17.85 M15.6 17.85 L15.5 17.25 Q15.5 16.35 16.2 15.75 16.8 15.15 17.75 15.15 L18.7 15.4 18.8 15.9 Q18.8 16.8 18.2 17.5 17.55 18.1 16.6 18.1 L15.6 17.85" fill="#666666" fill-rule="evenodd" stroke="none"/>
    <path d="M2.1 16.2 L2.0 15.45 Q2.0 11.5 6.3 8.8 10.5 6.0 16.5 6.0 21.65 6.0 25.5 8.1 27.55 12.4 25.85 15.25 L25.7 15.55 25.65 15.4 25.1 14.4 Q24.5 13.8 23.55 13.8 22.55 13.8 21.95 14.4 21.25 15.0 21.25 15.9 21.25 16.8 21.95 17.5 L22.5 17.85 22.8 18.0 Q20.8 19.05 17.9 19.75 7.6 22.05 2.1 16.2 M11.75 15.3 L11.3 14.4 Q10.65 13.8 9.65 13.8 8.75 13.8 8.15 14.4 7.45 15.0 7.45 15.9 7.45 16.8 8.15 17.5 L8.65 17.85 9.65 18.1 Q10.65 18.1 11.3 17.5 11.8 16.8 11.8 15.9 L11.75 15.3 M18.7 15.4 L18.2 14.4 Q17.55 13.8 16.6 13.8 15.65 13.8 15.05 14.4 14.35 15.0 14.35 15.9 14.35 16.8 15.05 17.5 L15.6 17.85 16.6 18.1 Q17.55 18.1 18.2 17.5 18.8 16.8 18.8 15.9 L18.7 15.4" fill="#ffffff" fill-rule="evenodd" stroke="none"/>
    <path d="M22.5 17.85 L21.95 17.5 Q21.25 16.8 21.25 15.9 21.25 15.0 21.95 14.4 22.55 13.8 23.55 13.8 24.5 13.8 25.1 14.4 L25.65 15.4 24.7 15.15 Q23.7 15.15 23.1 15.75 22.4 16.35 22.4 17.25 L22.5 17.85 M11.75 15.3 L10.8 15.15 Q9.9 15.15 9.3 15.75 8.6 16.35 8.6 17.25 L8.65 17.85 8.15 17.5 Q7.45 16.8 7.45 15.9 7.45 15.0 8.15 14.4 8.75 13.8 9.65 13.8 10.65 13.8 11.3 14.4 L11.75 15.3 M18.7 15.4 L17.75 15.15 Q16.8 15.15 16.2 15.75 15.5 16.35 15.5 17.25 L15.6 17.85 15.05 17.5 Q14.35 16.8 14.35 15.9 14.35 15.0 15.05 14.4 15.65 13.8 16.6 13.8 17.55 13.8 18.2 14.4 L18.7 15.4" fill="#333333" fill-rule="evenodd" stroke="none"/>
    <path d="M25.5 8.1 Q26.15 8.35 26.7 8.8 31.0 11.5 31.0 15.45 31.0 19.35 26.7 22.15 25.3 23.05 23.8 23.65 23.35 25.35 25.1 27.0 21.55 26.8 20.25 24.6 L16.5 24.9 Q10.5 24.9 6.3 22.15 2.4 19.65 2.1 16.2 L2.0 15.45 Q2.0 11.5 6.3 8.8 10.5 6.0 16.5 6.0 21.65 6.0 25.5 8.1 Z" fill="none" stroke="#000000" stroke-linecap="round" stroke-linejoin="round" stroke-width="1.0"/>
  </g>
</svg>
