<?xml version="1.0" encoding="UTF-8" standalone="no"?>
<svg xmlns:xlink="http://www.w3.org/1999/xlink" height="31.0px" width="31.0px" xmlns="http://www.w3.org/2000/svg">
  <g transform="matrix(1.0, 0.0, 0.0, 1.0, 0.5, 0.5)">
    <path d="M0.0 0.0 L7.7 0.0 3.85 3.85 0.0 0.0" fill="#ffffff" fill-rule="evenodd" stroke="none"/>
    <path d="M0.0 0.0 L3.85 3.85 0.0 7.7 0.0 0.0" fill="#cccccc" fill-rule="evenodd" stroke="none"/>
    <path d="M3.85 3.85 L7.7 0.0 0.0 0.0 0.0 7.7 3.85 3.85 Z" fill="none" stroke="#000000" stroke-linecap="round" stroke-linejoin="round" stroke-width="1.0"/>
    <path d="M1.2 27.05 L1.2 26.95 17.7 1.65 Q18.1 1.15 18.65 1.05 L19.45 1.15 20.0 1.55 20.45 1.9 20.55 2.0 20.85 2.3 21.1 2.5 21.3 3.2 21.4 4.05 19.85 2.8 2.75 28.6 Q1.8 28.4 1.2 27.05 M12.4 18.7 L16.6 21.8 Q17.1 22.25 16.7 23.2 L16.6 23.2 12.95 20.55 Q11.95 19.95 12.4 18.7" fill="#666666" fill-rule="evenodd" stroke="none"/>
    <path d="M1.2 27.05 Q1.8 28.4 2.75 28.6 L19.85 2.8 21.4 4.05 21.2 4.25 20.55 5.4 20.65 5.4 18.3 8.7 18.25 8.75 16.15 12.1 11.85 18.3 12.4 18.7 Q11.95 19.95 12.95 20.55 L16.6 23.2 Q16.0 23.95 15.25 23.65 L10.75 20.35 4.85 29.35 Q4.55 29.95 3.85 29.95 L3.2 29.95 2.75 29.75 2.65 29.45 2.0 29.2 1.35 28.6 Q1.0 28.4 1.1 28.0 0.9 27.45 1.2 27.05" fill="#333333" fill-rule="evenodd" stroke="none"/>
    <path d="M20.65 5.4 L21.0 5.8 20.45 7.05 Q24.25 9.6 26.3 14.15 27.95 18.2 27.75 22.25 25.85 13.35 18.35 8.75 L18.3 8.7 20.65 5.4" fill="#cccccc" fill-rule="evenodd" stroke="none"/>
    <path d="M21.0 5.8 L22.2 6.55 24.2 4.9 Q33.6 13.0 27.75 22.25 27.95 18.2 26.3 14.15 24.25 9.6 20.45 7.05 L21.0 5.8" fill="#ffffff" fill-rule="evenodd" stroke="none"/>
    <path d="M18.35 8.75 L16.15 12.1 18.25 8.75 18.35 8.75" fill="#000000" fill-rule="evenodd" stroke="none"/>
    <path d="M18.35 8.75 L18.25 8.75 18.3 8.7 18.35 8.75" fill="#8a9991" fill-rule="evenodd" stroke="none"/>
    <path d="M21.4 4.05 L21.3 3.2 21.1 2.5 20.85 2.3 20.55 2.0 20.45 1.9 20.0 1.55 19.45 1.15 18.65 1.05 Q18.1 1.15 17.7 1.65 L1.2 26.95 1.2 27.05 Q0.9 27.45 1.1 28.0 1.0 28.4 1.35 28.6 L2.0 29.2 2.65 29.45 2.75 29.75 3.2 29.95 3.85 29.95 Q4.55 29.95 4.85 29.35 L10.75 20.35 15.25 23.65 Q16.0 23.95 16.6 23.2 L16.7 23.2 Q17.1 22.25 16.6 21.8 L12.4 18.7 11.85 18.3 16.15 12.1 18.35 8.75 Q25.85 13.35 27.75 22.25 33.6 13.0 24.2 4.9 L22.2 6.55 21.0 5.8 20.65 5.4 20.55 5.4 21.2 4.25 21.4 4.05 Z" fill="none" stroke="#000000" stroke-linecap="round" stroke-linejoin="round" stroke-width="1.0"/>
  </g>
</svg>
