<?xml version="1.0" encoding="UTF-8" standalone="no"?>
<svg xmlns:xlink="http://www.w3.org/1999/xlink" height="23.6px" width="6.8px" xmlns="http://www.w3.org/2000/svg">
  <g transform="matrix(1.0, 0.0, 0.0, 1.0, 3.4, 21.85)">
    <path d="M1.8 -6.95 L1.8 -7.05 1.85 -7.05 1.8 -6.95 M2.1 0.9 L2.05 0.95 2.1 0.85 2.1 0.9" fill="#ffffcc" fill-rule="evenodd" stroke="none"/>
    <path d="M2.35 -20.95 Q3.25 -20.05 3.3 -18.65 L2.0 -8.4 Q1.1 -7.6 0.15 -7.7 -0.95 -7.85 -2.15 -9.05 L-3.4 -18.6 Q-3.35 -20.05 -2.45 -20.9 L-2.45 -20.95 Q-1.45 -21.85 0.0 -21.85 1.4 -21.85 2.35 -20.95" fill="url(#gradient0)" fill-rule="evenodd" stroke="none"/>
    <path d="M1.8 -7.05 L1.8 -6.95 Q1.75 -6.15 1.3 -5.65 0.75 -5.2 0.0 -5.2 -0.8 -5.2 -1.4 -5.65 -1.85 -6.15 -1.9 -6.95 L-1.95 -7.55 Q-0.95 -6.85 0.0 -6.7 0.9 -6.6 1.8 -7.05 M2.1 0.85 Q1.4 1.55 0.7 1.7 L0.05 1.75 -1.2 1.55 -1.65 1.25 -1.7 1.2 -2.25 0.4 -2.3 0.25 -2.4 -0.1 -2.4 -0.15 Q-2.4 -0.85 -1.9 -1.3 L1.4 -1.6 Q2.05 -0.8 2.15 -0.1 L2.15 -0.05 2.1 0.9 2.1 0.85" fill="#f9fe85" fill-rule="evenodd" stroke="none"/>
    <path d="M-2.85 0.4 L-2.9 -0.15 Q-2.9 -1.2 -2.1 -1.85 -1.4 -2.55 0.0 -2.55 1.35 -2.55 2.2 -1.85 2.9 -1.15 2.9 -0.15 M2.5 -8.35 L2.3 -6.9 Q2.2 -5.85 1.6 -5.25 0.9 -4.7 0.0 -4.7 -1.0 -4.7 -1.7 -5.25 -2.3 -5.85 -2.4 -6.9 L-2.6 -8.55" fill="none" stroke="#ffffcc" stroke-linecap="round" stroke-linejoin="round" stroke-opacity="0.4509804" stroke-width="1.0"/>
  </g>
  <defs>
    <linearGradient gradientTransform="matrix(0.0047, 0.0061, -0.0052, 0.004, 0.15, -14.95)" gradientUnits="userSpaceOnUse" id="gradient0" spreadMethod="pad" x1="-819.2" x2="819.2">
      <stop offset="0.050980392156862744" stop-color="#66cc00"/>
      <stop offset="1.0" stop-color="#a5e12a"/>
    </linearGradient>
  </defs>
</svg>
