<?xml version="1.0" encoding="UTF-8" standalone="no"?>
<svg xmlns:xlink="http://www.w3.org/1999/xlink" height="32.0px" width="29.0px" xmlns="http://www.w3.org/2000/svg">
  <g transform="matrix(1.0, 0.0, 0.0, 1.0, 0.5, 0.5)">
    <path d="M0.0 0.0 L7.7 0.0 3.85 3.85 0.0 0.0" fill="#ffffff" fill-rule="evenodd" stroke="none"/>
    <path d="M0.0 0.0 L3.85 3.85 0.0 7.7 0.0 0.0" fill="#cccccc" fill-rule="evenodd" stroke="none"/>
    <path d="M3.85 3.85 L7.7 0.0 0.0 0.0 0.0 7.7 3.85 3.85 Z" fill="none" stroke="#000000" stroke-linecap="round" stroke-linejoin="round" stroke-width="1.0"/>
    <path d="M24.3 23.55 L24.25 23.55 Q22.4 24.05 19.8 22.75 16.8 20.1 17.5 19.2 L18.8 17.1 Q18.15 20.0 19.7 20.95 L19.8 21.25 Q21.4 22.45 23.6 22.95 L24.3 23.55 M19.05 23.95 L17.3 23.4 14.3 27.9 Q14.85 29.55 14.3 30.8 L13.1 31.0 Q12.35 31.0 11.55 30.6 L10.95 30.35 10.6 30.05 9.45 28.85 Q11.55 28.55 11.8 27.15 L11.9 26.7 12.05 26.8 12.25 26.85 Q13.8 27.15 14.6 25.3 15.6 23.25 13.65 22.0 L13.8 21.45 13.65 21.15 12.75 20.0 15.7 22.2 19.05 23.95" fill="#333333" fill-rule="evenodd" stroke="none"/>
    <path d="M18.8 17.1 L17.5 19.2 Q16.8 20.1 19.8 22.75 22.4 24.05 24.25 23.55 L24.3 23.55 24.35 23.55 Q24.75 24.15 24.45 24.6 L23.55 24.75 Q21.4 24.75 19.05 23.95 L15.7 22.2 12.75 20.0 9.65 16.65 9.2 15.75 Q9.55 15.05 11.05 15.6 12.55 17.3 14.5 17.9 16.65 19.1 18.3 17.5 L18.8 17.1 M9.45 28.85 Q9.05 28.35 9.0 27.75 9.85 26.7 11.55 26.25 L13.65 22.0 Q15.6 23.25 14.6 25.3 13.8 27.15 12.25 26.85 L12.05 26.8 11.9 26.7 11.8 27.15 Q11.55 28.55 9.45 28.85" fill="#666666" fill-rule="evenodd" stroke="none"/>
    <path d="M28.0 1.0 L18.8 17.1 18.3 17.5 Q16.65 19.1 14.5 17.9 16.35 8.7 28.0 1.0" fill="#ffffff" fill-rule="evenodd" stroke="none"/>
    <path d="M19.7 20.95 Q18.15 20.0 18.8 17.1 L28.0 1.0 Q27.35 15.35 19.7 20.95" fill="#cccccc" fill-rule="evenodd" stroke="none"/>
    <path d="M24.3 23.55 L23.6 22.95 Q21.4 22.45 19.8 21.25 L19.7 20.95 Q27.35 15.35 28.0 1.0 16.35 8.7 14.5 17.9 12.55 17.3 11.05 15.6 9.55 15.05 9.2 15.75 L9.65 16.65 12.75 20.0 13.65 21.15 13.8 21.45 13.65 22.0 11.55 26.25 Q9.85 26.7 9.0 27.75 9.05 28.35 9.45 28.85 L10.6 30.05 10.95 30.35 11.55 30.6 Q12.35 31.0 13.1 31.0 L14.3 30.8 Q14.85 29.55 14.3 27.9 L17.3 23.4 19.05 23.95 Q21.4 24.75 23.55 24.75 L24.45 24.6 Q24.75 24.15 24.35 23.55 L24.3 23.55 Z" fill="none" stroke="#000000" stroke-linecap="round" stroke-linejoin="round" stroke-width="1.0"/>
  </g>
</svg>
