<?xml version="1.0" encoding="UTF-8" standalone="no"?>
<svg xmlns:xlink="http://www.w3.org/1999/xlink" height="32.0px" width="32.0px" xmlns="http://www.w3.org/2000/svg">
  <g transform="matrix(1.0, 0.0, 0.0, 1.0, 0.5, 0.5)">
    <path d="M0.0 0.0 L7.7 0.0 3.85 3.85 0.0 0.0" fill="#ffffff" fill-rule="evenodd" stroke="none"/>
    <path d="M0.0 0.0 L3.85 3.85 0.0 7.7 0.0 0.0" fill="#cccccc" fill-rule="evenodd" stroke="none"/>
    <path d="M3.85 3.85 L7.7 0.0 0.0 0.0 0.0 7.7 3.85 3.85 Z" fill="none" stroke="#000000" stroke-linecap="round" stroke-linejoin="round" stroke-width="1.0"/>
    <path d="M19.35 4.0 L20.0 3.15 Q21.15 2.0 22.9 2.0 24.7 2.0 25.75 3.15 26.9 4.25 26.9 5.9 26.9 6.8 26.5 7.5 26.15 6.9 25.15 6.8 26.05 5.2 24.3 3.75 22.2 2.3 19.35 4.0 M25.75 18.6 L26.05 18.6 Q28.05 18.65 29.45 20.2 31.0 21.65 31.0 23.55 31.0 25.5 30.6 26.3 30.25 27.35 29.0 28.5 26.4 31.0 22.9 31.0 L21.15 30.8 Q26.2 30.45 28.5 27.8 31.4 24.4 28.9 21.25 29.3 21.85 27.65 23.0 28.6 21.15 27.0 19.6 L26.5 19.1 25.75 18.6" fill="#ffffff" fill-rule="evenodd" stroke="none"/>
    <path d="M19.35 4.0 Q22.2 2.3 24.3 3.75 26.05 5.2 25.15 6.8 26.15 6.9 26.5 7.5 26.3 8.2 25.75 8.6 25.15 9.25 24.3 9.55 L24.3 14.15 Q24.05 16.3 22.4 16.95 L20.4 17.85 18.95 18.75 Q17.45 20.4 17.45 22.5 17.45 24.75 18.95 26.3 20.7 27.8 23.0 27.8 25.25 27.8 26.9 26.3 28.5 24.75 28.4 23.65 27.45 24.3 26.6 24.2 27.85 21.3 26.7 19.6 L26.5 19.4 25.75 18.6 26.5 19.1 27.0 19.6 Q28.6 21.15 27.65 23.0 29.3 21.85 28.9 21.25 31.4 24.4 28.5 27.8 26.2 30.45 21.15 30.8 18.5 30.35 16.5 28.5 14.0 26.1 14.0 22.6 14.0 19.1 16.5 16.7 17.65 15.7 18.85 15.15 L19.75 14.75 Q21.55 13.9 21.45 12.6 L21.45 9.65 21.35 9.55 21.15 9.45 Q20.5 9.25 20.0 8.6 18.8 7.5 18.8 5.9 18.8 4.9 19.35 4.0 M23.95 5.9 Q23.95 5.45 23.55 5.0 L22.8 4.8 21.85 5.0 Q21.55 5.45 21.55 5.9 21.55 6.45 21.85 6.65 22.2 7.05 22.8 7.05 23.25 7.05 23.55 6.65 23.95 6.45 23.95 5.9" fill="#cccccc" fill-rule="evenodd" stroke="none"/>
    <path d="M26.5 7.5 Q26.9 6.8 26.9 5.9 26.9 4.25 25.75 3.15 24.7 2.0 22.9 2.0 21.15 2.0 20.0 3.15 L19.35 4.0 Q18.8 4.9 18.8 5.9 18.8 7.5 20.0 8.6 20.5 9.25 21.15 9.45 L21.35 9.55 21.45 9.65 21.45 12.6 Q21.55 13.9 19.75 14.75 L18.85 15.15 Q17.65 15.7 16.5 16.7 14.0 19.1 14.0 22.6 14.0 26.1 16.5 28.5 18.5 30.35 21.15 30.8 L22.9 31.0 Q26.4 31.0 29.0 28.5 30.25 27.35 30.6 26.3 31.0 25.5 31.0 23.55 31.0 21.65 29.45 20.2 28.05 18.65 26.05 18.6 L25.75 18.6 26.5 19.4 26.7 19.6 Q27.85 21.3 26.6 24.2 27.45 24.3 28.4 23.65 28.5 24.75 26.9 26.3 25.25 27.8 23.0 27.8 20.7 27.8 18.95 26.3 17.45 24.75 17.45 22.5 17.45 20.4 18.95 18.75 L20.4 17.85 22.4 16.95 Q24.05 16.3 24.3 14.15 L24.3 9.55 Q25.15 9.25 25.75 8.6 26.3 8.2 26.5 7.5 M23.95 5.9 Q23.95 6.45 23.55 6.65 23.25 7.05 22.8 7.05 22.2 7.05 21.85 6.65 21.55 6.45 21.55 5.9 21.55 5.45 21.85 5.0 L22.8 4.8 23.55 5.0 Q23.95 5.45 23.95 5.9" fill="none" stroke="#000000" stroke-linecap="round" stroke-linejoin="round" stroke-width="1.0"/>
  </g>
</svg>
