<?xml version="1.0" encoding="UTF-8" standalone="no"?>
<svg xmlns:xlink="http://www.w3.org/1999/xlink" height="32.0px" width="32.0px" xmlns="http://www.w3.org/2000/svg">
  <g transform="matrix(1.0, 0.0, 0.0, 1.0, 0.5, 0.5)">
    <path d="M0.0 0.0 L7.7 0.0 3.85 3.85 0.0 0.0" fill="#ffffff" fill-rule="evenodd" stroke="none"/>
    <path d="M0.0 0.0 L3.85 3.85 0.0 7.7 0.0 0.0" fill="#cccccc" fill-rule="evenodd" stroke="none"/>
    <path d="M3.85 3.85 L7.7 0.0 0.0 0.0 0.0 7.7 3.85 3.85 Z" fill="none" stroke="#000000" stroke-linecap="round" stroke-linejoin="round" stroke-width="1.0"/>
    <path d="M20.0 23.0 Q23.1 20.6 24.95 16.85 25.95 15.1 26.55 13.0 22.5 12.9 17.8 10.0 L17.7 9.75 17.7 9.55 18.3 8.95 18.55 8.5 19.0 8.65 Q23.3 11.1 26.75 11.45 L28.7 11.35 31.0 10.8 Q30.75 21.4 21.6 26.85 L21.25 26.75 Q21.05 24.95 20.0 23.0" fill="#ffffff" fill-rule="evenodd" stroke="none"/>
    <path d="M17.7 9.75 L17.8 10.0 Q22.5 12.9 26.55 13.0 25.95 15.1 24.95 16.85 23.1 20.6 20.0 23.0 18.95 20.8 16.9 18.85 L14.05 16.35 Q14.75 15.3 14.5 14.35 L14.3 14.55 14.2 14.05 16.8 9.75 17.0 9.75 17.05 9.85 17.05 9.9 17.05 10.0 17.7 9.75" fill="#cccccc" fill-rule="evenodd" stroke="none"/>
    <path d="M1.25 28.0 L1.35 27.85 14.85 4.7 Q15.0 4.15 15.55 4.05 L16.35 4.05 17.0 4.45 17.6 4.8 17.85 5.0 18.2 5.4 18.5 6.05 Q18.65 6.45 18.4 6.85 L16.9 5.7 5.25 25.4 Q3.05 27.9 2.0 28.2 1.35 28.4 1.25 28.0" fill="#666666" fill-rule="evenodd" stroke="none"/>
    <path d="M16.8 9.75 L14.2 14.05 5.0 30.25 4.0 31.0 3.4 30.9 2.95 30.6 2.7 30.4 2.05 30.05 1.45 29.55 1.0 28.8 1.25 28.0 Q1.35 28.4 2.0 28.2 3.05 27.9 5.25 25.4 L16.9 5.7 18.4 6.85 18.3 7.15 16.8 9.75" fill="#333333" fill-rule="evenodd" stroke="none"/>
    <path d="M17.7 9.55 L17.7 9.75 17.05 10.0 17.05 9.9 17.1 9.9 17.7 9.55" fill="#625040" fill-rule="evenodd" stroke="none"/>
    <path d="M20.0 23.0 Q21.05 24.95 21.25 26.75 L21.6 26.85 Q30.75 21.4 31.0 10.8 L28.7 11.35 26.75 11.45 Q23.3 11.1 19.0 8.65 L18.55 8.5 18.3 8.95 17.7 9.55 M17.7 9.75 L17.05 10.0 17.05 9.9 M14.2 14.05 L14.3 14.55 14.5 14.35 Q14.75 15.3 14.05 16.35 L16.9 18.85 Q18.95 20.8 20.0 23.0 M18.4 6.85 Q18.65 6.45 18.5 6.05 L18.2 5.4 17.85 5.0 17.6 4.8 17.0 4.45 16.35 4.05 15.55 4.05 Q15.0 4.15 14.85 4.7 L1.35 27.85 1.25 28.0 1.0 28.8 1.45 29.55 2.05 30.05 2.7 30.4 2.95 30.6 3.4 30.9 4.0 31.0 5.0 30.25 14.2 14.05 M18.4 6.85 L18.3 7.15 16.8 9.75" fill="none" stroke="#000000" stroke-linecap="round" stroke-linejoin="round" stroke-width="1.0"/>
  </g>
</svg>
