<?xml version="1.0" encoding="UTF-8" standalone="no"?>
<svg xmlns:xlink="http://www.w3.org/1999/xlink" height="30.0px" width="31.0px" xmlns="http://www.w3.org/2000/svg">
  <g transform="matrix(1.0, 0.0, 0.0, 1.0, 0.5, 0.5)">
    <path d="M0.0 0.0 L7.7 0.0 3.85 3.85 0.0 0.0" fill="#ffffff" fill-rule="evenodd" stroke="none"/>
    <path d="M0.0 0.0 L3.85 3.85 0.0 7.7 0.0 0.0" fill="#cccccc" fill-rule="evenodd" stroke="none"/>
    <path d="M3.85 3.85 L7.7 0.0 0.0 0.0 0.0 7.7 3.85 3.85 Z" fill="none" stroke="#000000" stroke-linecap="round" stroke-linejoin="round" stroke-width="1.0"/>
    <path d="M22.55 7.2 L22.55 10.85 24.35 13.0 27.75 17.0 28.0 17.25 28.1 17.8 Q28.1 18.3 27.7 18.7 L26.8 18.95 5.3 18.95 4.5 18.7 Q4.0 18.3 4.0 17.8 3.9 17.55 4.05 17.25 L15.0 4.45 Q15.25 4.15 15.65 4.1 16.0 3.9 16.45 4.1 L17.05 4.45 20.85 8.8 20.85 7.2 22.55 7.2" fill="#ffffff" fill-rule="evenodd" stroke="none"/>
    <path d="M22.55 7.2 L24.35 7.2 24.35 13.0 22.55 10.85 22.55 7.2 M28.0 17.25 L29.75 19.2 Q30.1 19.6 30.0 20.2 L29.65 21.0 28.65 21.35 26.5 21.35 26.3 27.65 Q26.3 28.2 25.9 28.55 25.55 29.0 25.0 29.0 L18.4 29.0 18.4 27.5 18.4 25.45 18.4 23.3 13.7 23.3 13.7 25.45 13.7 27.5 13.7 29.0 7.1 29.0 Q6.5 29.0 6.1 28.55 5.8 28.2 5.8 27.65 L5.6 21.35 3.35 21.35 Q2.8 21.35 2.5 21.0 2.0 20.65 2.0 20.2 1.9 19.6 2.35 19.2 L4.05 17.25 Q3.9 17.55 4.0 17.8 4.0 18.3 4.5 18.7 L5.3 18.95 26.8 18.95 27.7 18.7 Q28.1 18.3 28.1 17.8 L28.0 17.25" fill="#cccccc" fill-rule="evenodd" stroke="none"/>
    <path d="M13.7 25.45 L13.7 23.3 18.4 23.3 18.4 25.45 13.7 25.45" fill="#333333" fill-rule="evenodd" stroke="none"/>
    <path d="M18.4 27.5 L13.7 27.5 13.7 25.45 18.4 25.45 18.4 27.5" fill="#666666" fill-rule="evenodd" stroke="none"/>
    <path d="M24.35 13.0 L24.35 7.2 22.55 7.2 20.85 7.2 20.85 8.8 17.05 4.45 16.45 4.1 Q16.0 3.9 15.65 4.1 15.25 4.15 15.0 4.45 L4.05 17.25 2.35 19.2 Q1.9 19.6 2.0 20.2 2.0 20.65 2.5 21.0 2.8 21.35 3.35 21.35 L5.6 21.35 5.8 27.65 Q5.8 28.2 6.1 28.55 6.5 29.0 7.1 29.0 L13.7 29.0 13.7 27.5 18.4 27.5 18.4 29.0 25.0 29.0 Q25.55 29.0 25.9 28.55 26.3 28.2 26.3 27.65 L26.5 21.35 28.65 21.35 29.65 21.0 30.0 20.2 Q30.1 19.6 29.75 19.2 L28.0 17.25 M24.35 13.0 L27.75 17.0" fill="none" stroke="#000000" stroke-linecap="round" stroke-linejoin="round" stroke-width="1.0"/>
    <path d="M13.7 25.45 L13.7 23.3 18.4 23.3 18.4 25.45 18.4 27.5 M13.7 27.5 L13.7 25.45" fill="none" stroke="#000000" stroke-linecap="round" stroke-linejoin="round" stroke-width="0.5"/>
  </g>
</svg>
