<?xml version="1.0" encoding="UTF-8" standalone="no"?>
<svg xmlns:xlink="http://www.w3.org/1999/xlink" height="32.0px" width="32.0px" xmlns="http://www.w3.org/2000/svg">
  <g transform="matrix(1.0, 0.0, 0.0, 1.0, 0.5, 0.5)">
    <path d="M0.0 0.0 L7.7 0.0 3.85 3.85 0.0 0.0" fill="#ffffff" fill-rule="evenodd" stroke="none"/>
    <path d="M0.0 0.0 L3.85 3.85 0.0 7.7 0.0 0.0" fill="#cccccc" fill-rule="evenodd" stroke="none"/>
    <path d="M3.85 3.85 L7.7 0.0 0.0 0.0 0.0 7.7 3.85 3.85 Z" fill="none" stroke="#000000" stroke-linecap="round" stroke-linejoin="round" stroke-width="1.0"/>
    <path d="M24.65 12.8 Q24.35 13.55 23.4 13.8 L18.6 11.15 18.55 11.1 18.5 11.2 12.7 7.65 11.1 7.65 10.75 7.55 Q9.6 7.4 9.25 6.3 L9.15 5.95 9.05 5.75 Q8.95 5.5 9.15 5.3 L9.15 5.05 9.6 4.3 9.95 3.75 Q10.5 3.15 12.0 2.6 L13.55 2.15 14.95 2.05 Q16.75 2.05 17.45 3.6 L30.2 6.05 30.2 6.55 29.1 7.05 16.4 4.5 16.5 4.3 16.2 3.75 15.5 3.3 13.55 3.25 11.65 3.75 11.2 4.05 Q10.3 4.6 10.5 5.3 10.3 5.95 11.2 6.4 L13.25 6.4 13.9 6.85 24.65 12.8 M28.15 8.4 L27.6 9.2 17.65 6.75 27.35 9.55 26.7 10.35 16.15 6.75 26.25 10.9 25.9 11.45 14.25 6.65 15.95 5.75 28.15 8.4" fill="#ffffff" fill-rule="evenodd" stroke="none"/>
    <path d="M23.4 13.8 Q24.35 13.55 24.65 12.8 L25.8 28.0 25.9 29.9 24.35 31.0 23.4 13.8 M29.1 7.05 L30.2 6.55 31.0 23.75 29.95 24.85 29.1 7.05 M25.9 11.45 L26.25 10.9 16.15 6.75 26.7 10.35 27.35 9.55 17.65 6.75 27.6 9.2 28.15 8.4 28.95 24.85 28.95 25.65 28.4 25.6 28.4 26.3 27.6 26.95 27.25 26.75 27.25 27.1 27.05 27.2 25.9 11.45" fill="#cccccc" fill-rule="evenodd" stroke="none"/>
    <path d="M13.9 6.85 L13.25 6.4 11.2 6.4 Q10.3 5.95 10.5 5.3 10.3 4.6 11.2 4.05 L11.65 3.75 13.55 3.25 15.5 3.3 16.2 3.75 16.5 4.3 16.4 4.5 29.1 7.05 29.95 24.85 28.95 24.85 28.15 8.4 15.95 5.75 14.25 6.65 13.9 6.85 M10.75 7.55 L11.1 7.65 12.7 7.65 14.35 19.9 Q16.5 18.0 17.55 15.55 L17.55 15.45 Q18.35 13.55 18.55 11.2 L18.6 11.15 23.4 13.8 24.35 31.0 14.95 24.5 Q12.3 25.75 11.45 24.95 L11.4 24.2 Q12.55 23.4 12.35 20.95 L10.75 7.55" fill="#333333" fill-rule="evenodd" stroke="none"/>
    <path d="M24.65 12.8 L13.9 6.85 14.25 6.65 25.9 11.45 27.05 27.2 25.8 28.0 24.65 12.8 M9.25 6.3 Q9.6 7.4 10.75 7.55 L12.35 20.95 Q12.55 23.4 11.4 24.2 L9.25 6.3 M12.7 7.65 L18.5 11.2 18.55 11.2 Q18.35 13.55 17.55 15.45 L17.55 15.55 Q16.5 18.0 14.35 19.9 L12.7 7.65" fill="#666666" fill-rule="evenodd" stroke="none"/>
    <path d="M18.5 11.2 L18.55 11.1 18.55 11.2 18.5 11.2 M27.6 26.95 L28.4 26.3 28.4 27.0 27.7 26.95 27.6 26.95 M28.95 25.65 L28.95 24.85 29.4 25.65 28.95 25.65" fill="#b4beb8" fill-rule="evenodd" stroke="none"/>
    <path d="M18.55 11.1 L18.6 11.15 18.55 11.2 18.55 11.1" fill="#374039" fill-rule="evenodd" stroke="none"/>
    <path d="M30.2 6.55 L30.2 6.05 17.45 3.6 Q16.75 2.05 14.95 2.05 L13.55 2.15 12.0 2.6 Q10.5 3.15 9.95 3.75 L9.6 4.3 9.15 5.05 9.15 5.3 Q8.95 5.5 9.05 5.75 L9.15 5.95 9.25 6.3 11.4 24.2 11.45 24.95 Q12.3 25.75 14.95 24.5 L24.35 31.0 25.9 29.9 25.8 28.0 27.05 27.2 27.25 27.1 Q27.45 27.05 27.6 26.95 L28.4 26.3 28.95 25.95 28.95 25.65 28.95 24.85 29.95 24.85 31.0 23.75 30.2 6.55 Z" fill="none" stroke="#000000" stroke-linecap="round" stroke-linejoin="round" stroke-width="1.0"/>
  </g>
</svg>
