<?xml version="1.0" encoding="UTF-8" standalone="no"?>
<svg xmlns:xlink="http://www.w3.org/1999/xlink" height="13.15px" width="11.4px" xmlns="http://www.w3.org/2000/svg">
  <g transform="matrix(1.0, 0.0, 0.0, 1.0, -20.6, -18.85)">
    <path d="M21.7 19.9 L22.0 19.85 22.35 19.9 30.7 19.9 30.75 20.15 30.7 20.75 30.25 21.0 30.05 21.15 30.05 21.35 Q30.0 22.55 29.25 23.5 L27.25 24.95 27.05 25.1 26.95 25.35 27.1 25.55 27.35 25.6 Q28.55 25.9 29.2 26.85 29.95 27.95 30.0 29.4 L30.1 29.8 30.4 29.85 30.75 29.9 30.95 30.15 31.0 30.6 30.95 30.95 30.6 31.0 30.15 30.95 26.1 30.95 22.0 31.0 21.7 30.9 21.65 30.6 21.65 30.4 21.65 30.15 21.8 29.95 22.05 29.85 22.45 29.75 22.55 29.35 22.55 29.05 22.6 28.8 Q22.85 27.55 23.45 26.75 24.15 25.9 25.35 25.6 L25.5 25.5 25.6 25.35 25.55 25.15 25.35 25.0 Q24.6 24.7 24.0 24.2 22.7 23.15 22.55 21.3 L22.5 21.1 22.35 21.0 21.9 20.9 21.65 20.6 21.6 20.2 21.7 19.9 M23.7 21.8 L23.7 22.2 Q23.85 23.15 24.6 23.75 25.4 24.35 26.4 24.35 27.35 24.3 28.05 23.7 28.8 23.05 28.95 22.1 L28.9 21.8 28.6 21.75 27.45 21.75 26.3 21.75 24.1 21.75 23.7 21.8 M27.9 27.9 Q27.15 27.35 26.25 27.35 25.25 27.4 24.55 28.05 23.85 28.7 23.7 29.65 L23.75 29.95 24.0 30.0 26.3 30.0 28.45 30.0 28.95 29.9 28.9 29.35 Q28.65 28.45 27.9 27.9" fill="none" stroke="#000000" stroke-linecap="round" stroke-linejoin="round" stroke-width="2.0"/>
    <path d="M21.7 19.9 L22.0 19.85 22.35 19.9 30.7 19.9 30.75 20.15 30.7 20.75 30.25 21.0 30.05 21.15 30.05 21.35 Q30.0 22.55 29.25 23.5 L27.25 24.95 27.05 25.1 26.95 25.35 27.1 25.55 27.35 25.6 Q28.55 25.9 29.2 26.85 29.95 27.95 30.0 29.4 L30.1 29.8 30.4 29.85 30.75 29.9 30.95 30.15 31.0 30.6 30.95 30.95 30.6 31.0 30.15 30.95 26.1 30.95 22.0 31.0 21.7 30.9 21.65 30.6 21.65 30.4 21.65 30.15 21.8 29.95 22.05 29.85 22.45 29.75 22.55 29.35 22.55 29.05 22.6 28.8 Q22.85 27.55 23.45 26.75 24.15 25.9 25.35 25.6 L25.5 25.5 25.6 25.35 25.55 25.15 25.35 25.0 Q24.6 24.7 24.0 24.2 22.7 23.15 22.55 21.3 L22.5 21.1 22.35 21.0 21.9 20.9 21.65 20.6 21.6 20.2 21.7 19.9 M23.7 21.8 L23.7 22.2 Q23.85 23.15 24.6 23.75 25.4 24.35 26.4 24.35 27.35 24.3 28.05 23.7 28.8 23.05 28.95 22.1 L28.9 21.8 28.6 21.75 27.45 21.75 26.3 21.75 24.1 21.75 23.7 21.8 M27.9 27.9 Q27.15 27.35 26.25 27.35 25.25 27.4 24.55 28.05 23.85 28.7 23.7 29.65 L23.75 29.95 24.0 30.0 26.3 30.0 28.45 30.0 28.95 29.9 28.9 29.35 Q28.65 28.45 27.9 27.9" fill="#f8cd01" fill-rule="evenodd" stroke="none"/>
  </g>
</svg>
