<?xml version="1.0" encoding="UTF-8" standalone="no"?>
<svg xmlns:xlink="http://www.w3.org/1999/xlink" height="33.0px" width="33.0px" xmlns="http://www.w3.org/2000/svg">
  <g transform="matrix(1.0, 0.0, 0.0, 1.0, 0.0, 0.0)">
    <path d="M0.0 0.0 L33.0 0.0 33.0 33.0 0.0 33.0 0.0 0.0" fill="#ffffff" fill-opacity="0.0" fill-rule="evenodd" stroke="none"/>
    <path d="M24.1 8.95 Q20.95 5.8 16.5 5.8 12.95 5.8 10.25 7.8 L25.2 22.75 Q27.2 20.05 27.2 16.5 27.2 12.05 24.1 8.95 M16.5 2.35 Q22.35 2.35 26.5 6.5 30.65 10.65 30.65 16.5 30.65 22.35 26.5 26.5 22.35 30.65 16.5 30.65 10.65 30.65 6.5 26.5 2.35 22.35 2.35 16.5 2.35 10.65 6.5 6.5 10.65 2.35 16.5 2.35 M8.95 24.1 Q12.05 27.2 16.5 27.2 19.9 27.2 22.5 25.4 L7.6 10.5 Q5.8 13.1 5.8 16.5 5.8 20.95 8.95 24.1" fill="#d3161d" fill-rule="evenodd" stroke="none"/>
    <path d="M24.1 8.95 Q27.2 12.05 27.2 16.5 27.2 20.05 25.2 22.75 L10.25 7.8 Q12.95 5.8 16.5 5.8 20.95 5.8 24.1 8.95 M8.95 24.1 Q5.8 20.95 5.8 16.5 5.8 13.1 7.6 10.5 L22.5 25.4 Q19.9 27.2 16.5 27.2 12.05 27.2 8.95 24.1" fill="none" stroke="#000000" stroke-linecap="round" stroke-linejoin="round" stroke-opacity="0.8" stroke-width="1.0"/>
    <path d="M16.5 2.35 Q22.35 2.35 26.5 6.5 30.65 10.65 30.65 16.5 30.65 22.35 26.5 26.5 22.35 30.65 16.5 30.65 10.65 30.65 6.5 26.5 2.35 22.35 2.35 16.5 2.35 10.65 6.5 6.5 10.65 2.35 16.5 2.35 M16.5 27.2 Q19.9 27.2 22.5 25.4 L7.6 10.5 Q5.8 13.1 5.8 16.5 5.8 20.95 8.95 24.1 12.05 27.2 16.5 27.2 M16.5 5.8 Q12.95 5.8 10.25 7.8 L25.2 22.75 Q27.2 20.05 27.2 16.5 27.2 12.05 24.1 8.95 20.95 5.8 16.5 5.8" fill="#d3161d" fill-rule="evenodd" stroke="none"/>
    <path d="M23.5 11.75 Q20.55 8.8 16.35 8.8 14.05 8.8 12.15 9.7 L10.25 7.8 Q12.95 5.8 16.5 5.8 20.95 5.8 24.1 8.95 27.2 12.05 27.2 16.5 27.2 18.95 26.25 21.05 L26.45 18.85 Q26.45 14.65 23.5 11.75 M6.3 18.85 L6.35 20.05 Q5.8 18.4 5.8 16.5 5.8 13.1 7.6 10.5 L22.5 25.4 21.05 26.25 8.0 13.2 Q6.3 15.65 6.3 18.85" fill="#000000" fill-opacity="0.3019608" fill-rule="evenodd" stroke="none"/>
    <path d="M16.5 2.35 Q22.35 2.35 26.5 6.5 30.65 10.65 30.65 16.5 30.65 22.35 26.5 26.5 22.35 30.65 16.5 30.65 10.65 30.65 6.5 26.5 2.35 22.35 2.35 16.5 2.35 10.65 6.5 6.5 10.65 2.35 16.5 2.35 Z" fill="none" stroke="#000000" stroke-linecap="round" stroke-linejoin="round" stroke-opacity="0.8" stroke-width="1.0"/>
    <path d="M3.35 16.45 Q3.35 11.0 7.2 7.15 11.05 3.35 16.5 3.35 21.95 3.35 25.8 7.15 29.65 11.0 29.65 16.45 M10.15 8.45 L24.75 23.05" fill="none" stroke="#fe6767" stroke-linecap="round" stroke-linejoin="round" stroke-width="1.0"/>
  </g>
</svg>
