<?xml version="1.0" encoding="UTF-8" standalone="no"?>
<svg xmlns:xlink="http://www.w3.org/1999/xlink" height="16.7px" width="27.45px" xmlns="http://www.w3.org/2000/svg">
  <g transform="matrix(1.0, 0.0, 0.0, 1.0, 1.0, 1.0)">
    <path d="M20.3 12.9 L20.4 13.0 20.3 12.9" fill="url(#gradient0)" fill-rule="evenodd" stroke="none"/>
    <path d="M20.4 13.0 L20.3 13.1 20.3 12.9 20.4 13.0" fill="url(#gradient1)" fill-rule="evenodd" stroke="none"/>
    <path d="M20.3 13.1 L19.5 14.15 Q18.9 14.7 18.05 14.7 L1.75 14.7 Q1.0 14.7 0.45 14.15 -0.1 13.7 0.0 12.9 L0.7 7.7 Q0.8 7.1 1.2 6.65 L1.45 6.45 Q2.2 5.9 2.9 5.9 L19.2 5.9 Q19.95 5.9 20.55 6.45 21.1 6.95 20.95 7.7 L20.3 12.9 20.3 13.1" fill="url(#gradient2)" fill-rule="evenodd" stroke="none"/>
    <path d="M2.05 5.55 L5.2 1.35 5.9 0.5 Q6.65 0.0 7.35 0.0 L23.65 0.0 Q24.45 0.0 24.95 0.5 25.55 1.05 25.45 1.8 L24.75 6.95 24.5 7.75 24.3 8.0 23.95 8.25 24.05 8.3 23.6 8.9 20.4 13.0 20.3 12.9 20.95 7.7 Q21.1 6.95 20.55 6.45 19.95 5.9 19.2 5.9 L2.9 5.9 Q2.2 5.9 1.45 6.45 L1.4 6.4 2.05 5.55" fill="url(#gradient3)" fill-rule="evenodd" stroke="none"/>
    <path d="M20.4 13.0 L20.3 13.1 20.3 12.9 M1.2 6.65 L1.65 6.05 M1.45 6.45 L1.2 6.65" fill="none" stroke="url(#gradient4)" stroke-linecap="round" stroke-linejoin="round" stroke-width="2.0"/>
    <path d="M2.05 5.55 L5.2 1.35 5.9 0.5 Q6.65 0.0 7.35 0.0 L23.65 0.0 Q24.45 0.0 24.95 0.5 25.55 1.05 25.45 1.8 L24.75 6.95 24.5 7.75 24.3 8.0 23.6 8.9 20.4 13.0 M20.3 13.1 L19.5 14.15 Q18.9 14.7 18.05 14.7 L1.75 14.7 Q1.0 14.7 0.45 14.15 -0.1 13.7 0.0 12.9 L0.7 7.7 Q0.8 7.1 1.2 6.65 M1.65 6.05 L2.05 5.55 M1.45 6.45 Q2.2 5.9 2.9 5.9 L19.2 5.9 Q19.95 5.9 20.55 6.45 21.1 6.95 20.95 7.7 L20.3 12.9" fill="none" stroke="url(#gradient5)" stroke-linecap="round" stroke-linejoin="round" stroke-width="2.0"/>
    <path d="M2.05 7.25 Q2.5 6.9 2.9 6.9 L19.2 6.9 Q19.55 6.9 19.9 7.2 L20.0 7.5 19.95 7.6 19.75 9.1 4.1 9.1 Q3.7 9.1 3.25 9.45 L3.2 9.5 3.1 9.55 3.15 9.55 Q2.95 9.75 2.9 10.1 L2.9 10.05 2.4 13.7 1.75 13.7 1.15 13.45 1.1 13.4 1.0 13.05 1.7 7.85 1.7 7.9 Q1.75 7.55 1.95 7.35 L1.9 7.35 2.0 7.3 2.05 7.25" fill="#ffffff" fill-opacity="0.3019608" fill-rule="evenodd" stroke="none"/>
  </g>
  <defs>
    <linearGradient gradientTransform="matrix(0.0024, 0.0089, -0.0145, 0.0038, 14.9, 9.5)" gradientUnits="userSpaceOnUse" id="gradient0" spreadMethod="pad" x1="-819.2" x2="819.2">
      <stop offset="0.011764705882352941" stop-color="#4e5f06"/>
      <stop offset="1.0" stop-color="#212703"/>
    </linearGradient>
    <linearGradient gradientTransform="matrix(1.0E-4, 0.0, 0.0, 1.0E-4, 20.35, 13.0)" gradientUnits="userSpaceOnUse" id="gradient1" spreadMethod="pad" x1="-819.2" x2="819.2">
      <stop offset="0.011764705882352941" stop-color="#4e5f06"/>
      <stop offset="1.0" stop-color="#212703"/>
    </linearGradient>
    <linearGradient gradientTransform="matrix(0.0021, 0.0037, -0.0114, 0.0065, 9.8, 9.1)" gradientUnits="userSpaceOnUse" id="gradient2" spreadMethod="pad" x1="-819.2" x2="819.2">
      <stop offset="0.011764705882352941" stop-color="#9966cc"/>
      <stop offset="1.0" stop-color="#d69bed"/>
    </linearGradient>
    <linearGradient gradientTransform="matrix(0.0264, 0.0, 0.0, 0.0079, 18.35, 5.95)" gradientUnits="userSpaceOnUse" id="gradient3" spreadMethod="pad" x1="-819.2" x2="819.2">
      <stop offset="0.011764705882352941" stop-color="#8b53c6"/>
      <stop offset="1.0" stop-color="#391155"/>
    </linearGradient>
    <linearGradient gradientTransform="matrix(0.0168, 0.0, 0.0, 0.0102, 12.7, 7.35)" gradientUnits="userSpaceOnUse" id="gradient4" spreadMethod="pad" x1="-819.2" x2="819.2">
      <stop offset="0.011764705882352941" stop-color="#4e5f06"/>
      <stop offset="1.0" stop-color="#212703"/>
    </linearGradient>
    <linearGradient gradientTransform="matrix(0.0168, 0.0, 0.0, 0.0102, 12.7, 7.35)" gradientUnits="userSpaceOnUse" id="gradient5" spreadMethod="pad" x1="-819.2" x2="819.2">
      <stop offset="0.011764705882352941" stop-color="#7b46b0"/>
      <stop offset="1.0" stop-color="#3d145b"/>
    </linearGradient>
  </defs>
</svg>
