<?xml version="1.0" encoding="UTF-8" standalone="no"?>
<svg xmlns:xlink="http://www.w3.org/1999/xlink" height="51.05px" width="43.75px" xmlns="http://www.w3.org/2000/svg">
  <g transform="matrix(1.0, 0.0, 0.0, 1.0, 1.0, 1.0)">
    <path d="M1.95 6.55 L5.9 1.25 6.3 0.7 6.4 0.6 Q7.15 0.0 8.05 0.0 L39.75 0.0 Q40.7 0.0 41.25 0.6 41.8 1.25 41.75 2.15 L40.7 9.85 40.65 9.9 40.65 9.95 40.35 10.25 36.35 15.15 37.3 8.05 Q37.4 7.2 36.8 6.55 36.25 5.9 35.35 5.9 L3.6 5.9 Q2.7 5.9 1.95 6.55 M19.2 43.1 Q20.2 40.6 21.35 38.3 23.6 33.9 26.0 29.8 28.6 25.65 31.1 22.2 L34.15 18.3 30.45 23.85 Q28.0 27.95 25.85 32.35 L21.65 41.55 20.8 42.6 20.75 42.65 Q20.05 43.15 19.35 43.15 L19.2 43.1" fill="url(#gradient0)" fill-rule="evenodd" stroke="none"/>
    <path d="M1.95 6.55 Q2.7 5.9 3.6 5.9 L35.35 5.9 Q36.25 5.9 36.8 6.55 37.4 7.2 37.3 8.05 L36.35 15.15 36.3 15.35 36.25 15.8 36.05 16.05 35.8 16.3 34.15 18.3 31.1 22.2 Q28.6 25.65 26.0 29.8 23.6 33.9 21.35 38.3 20.2 40.6 19.2 43.1 L19.15 43.15 17.15 47.5 17.1 47.7 16.6 48.4 16.3 48.6 14.9 49.05 2.85 49.05 Q1.7 49.05 1.15 48.1 0.7 47.3 1.35 45.8 5.6 37.75 11.25 29.95 13.05 27.25 15.3 24.3 L16.45 22.95 Q18.2 20.85 20.1 19.1 L19.2 19.1 1.9 19.1 Q1.05 19.1 0.5 18.45 -0.1 17.75 0.0 16.95 L1.15 8.05 Q1.25 7.35 1.8 6.7 L1.95 6.55" fill="url(#gradient1)" fill-rule="evenodd" stroke="none"/>
    <path d="M19.2 19.1 L20.1 19.1 Q18.2 20.85 16.45 22.95 17.7 21.05 19.2 19.1 M19.15 43.15 L19.2 43.1 19.35 43.15 19.15 43.15" fill="#000000" fill-rule="evenodd" stroke="none"/>
    <path d="M36.35 15.15 L40.35 10.25 40.65 9.95 40.65 9.9 40.7 9.85 41.75 2.15 Q41.8 1.25 41.25 0.6 40.7 0.0 39.75 0.0 L8.05 0.0 Q7.15 0.0 6.4 0.6 L6.3 0.7 5.9 1.25 1.95 6.55 Q2.7 5.9 3.6 5.9 L35.35 5.9 Q36.25 5.9 36.8 6.55 37.4 7.2 37.3 8.05 L36.35 15.15 40.0 10.75 40.35 10.25 M16.45 22.95 Q18.2 20.85 20.1 19.1 L19.2 19.1 Q17.7 21.05 16.45 22.95 L15.3 24.3 Q13.05 27.25 11.25 29.95 5.6 37.75 1.35 45.8 0.7 47.3 1.15 48.1 1.7 49.05 2.85 49.05 L14.9 49.05 16.3 48.6 16.6 48.4 17.1 47.7 17.15 47.5 19.15 43.15 19.2 43.1 Q20.2 40.6 21.35 38.3 23.6 33.9 26.0 29.8 28.6 25.65 31.1 22.2 L34.15 18.3 35.8 16.3 36.05 16.05 36.25 15.8 36.3 15.35 36.35 15.15 M40.65 9.95 L40.0 10.75 36.25 15.8 M19.35 43.15 Q20.05 43.15 20.75 42.65 L20.8 42.6 21.65 41.55 25.85 32.35 Q28.0 27.95 30.45 23.85 L34.15 18.3 M1.95 6.55 L1.8 6.7 Q1.25 7.35 1.15 8.05 L0.0 16.95 Q-0.1 17.75 0.5 18.45 1.05 19.1 1.9 19.1 L19.2 19.1 M19.15 43.15 L19.35 43.15 M20.75 42.65 L17.1 47.7" fill="none" stroke="url(#gradient2)" stroke-linecap="round" stroke-linejoin="round" stroke-width="2.0"/>
    <path d="M23.15 18.85 L23.2 19.45 22.9 19.95 Q21.05 21.65 19.35 23.7 L19.3 23.75 18.2 25.0 13.3 32.7 13.25 32.75 Q7.8 40.3 3.7 48.05 L2.85 48.05 2.05 47.6 Q1.85 47.15 2.3 46.2 L2.25 46.3 Q6.45 38.3 12.05 30.55 L12.1 30.5 Q13.85 27.85 16.1 24.95 L16.1 24.9 17.2 23.65 17.25 23.6 Q18.7 21.8 20.3 20.3 L20.8 19.85 21.1 19.35 21.05 18.75 20.7 18.3 20.2 18.1 22.2 18.2 22.8 18.4 23.15 18.85 M35.35 15.0 L35.45 14.7 35.4 14.9 35.35 15.0 M36.05 7.2 L36.1 7.25 36.3 7.9 36.3 7.95 36.15 9.1 4.8 9.1 Q4.35 9.1 3.95 9.4 L3.7 9.65 Q3.45 10.0 3.35 10.4 L2.35 18.1 1.9 18.1 Q1.5 18.1 1.3 17.8 L1.25 17.8 Q0.95 17.45 1.0 17.1 L2.15 8.2 2.5 7.45 2.75 7.2 3.6 6.9 35.35 6.9 Q35.75 6.9 36.05 7.2" fill="#ffffff" fill-opacity="0.3019608" fill-rule="evenodd" stroke="none"/>
  </g>
  <defs>
    <linearGradient gradientTransform="matrix(0.005, 0.019, -0.0234, 0.0062, 25.35, 17.45)" gradientUnits="userSpaceOnUse" id="gradient0" spreadMethod="pad" x1="-819.2" x2="819.2">
      <stop offset="0.011764705882352941" stop-color="#01376d"/>
      <stop offset="1.0" stop-color="#012343"/>
    </linearGradient>
    <linearGradient gradientTransform="matrix(0.0038, 0.0142, -0.0268, 0.0071, 17.0, 19.3)" gradientUnits="userSpaceOnUse" id="gradient1" spreadMethod="pad" x1="-819.2" x2="819.2">
      <stop offset="0.011764705882352941" stop-color="#0099ff"/>
      <stop offset="1.0" stop-color="#5fbefe"/>
    </linearGradient>
    <linearGradient gradientTransform="matrix(0.0092, 0.0191, -0.0096, 0.0047, -291.55, 173.35)" gradientUnits="userSpaceOnUse" id="gradient2" spreadMethod="pad" x1="-819.2" x2="819.2">
      <stop offset="0.011764705882352941" stop-color="#01376d"/>
      <stop offset="1.0" stop-color="#01264a"/>
    </linearGradient>
  </defs>
</svg>
