<?xml version="1.0" encoding="UTF-8" standalone="no"?>
<svg xmlns:xlink="http://www.w3.org/1999/xlink" height="52.5px" width="43.2px" xmlns="http://www.w3.org/2000/svg">
  <g transform="matrix(1.0, 0.0, 0.0, 1.0, 1.0, 1.0)">
    <path d="M35.95 16.8 L36.75 10.1 Q36.8 9.55 36.45 9.1 36.25 8.5 35.8 8.25 34.2 7.3 30.75 6.55 L22.95 5.95 Q14.15 5.95 8.05 11.0 L8.0 11.0 9.2 8.95 9.6 8.35 10.2 7.45 10.8 6.75 12.55 5.1 Q18.55 0.0 27.45 0.0 L35.15 0.65 Q38.6 1.35 40.2 2.3 40.65 2.55 40.95 3.15 41.25 3.6 41.2 4.15 L40.2 11.95 Q40.05 12.85 39.5 13.45 L36.35 17.8 35.85 17.35 35.95 16.8 M35.0 40.5 Q35.85 38.35 36.15 35.85 37.05 28.75 33.25 24.85 29.5 21.0 21.75 21.0 17.95 21.0 15.5 21.95 L16.0 21.05 16.6 19.75 Q18.1 17.0 21.5 17.0 25.6 17.0 27.8 17.85 L30.1 18.8 32.35 19.8 34.6 19.75 35.2 19.15 36.35 17.8 37.75 18.95 Q41.5 22.85 40.6 29.9 40.2 32.75 39.25 35.0 L35.75 39.9 35.0 40.5 M13.95 39.0 Q13.7 37.35 13.75 34.05 L14.25 33.0 15.3 31.35 18.2 31.4 18.4 33.05 18.35 33.05 Q18.9 33.55 21.75 33.55 L22.1 33.55 22.1 35.55 Q21.85 37.45 20.6 38.4 19.4 39.45 17.3 39.45 L13.95 39.05 13.95 39.0" fill="url(#gradient0)" fill-rule="evenodd" stroke="none"/>
    <path d="M8.0 11.0 L8.05 11.0 Q14.15 5.95 22.95 5.95 L30.75 6.55 Q34.2 7.3 35.8 8.25 36.25 8.5 36.45 9.1 36.8 9.55 36.75 10.1 L35.95 16.8 35.75 17.9 35.2 19.15 34.6 19.75 32.35 19.8 30.1 18.8 27.8 17.85 Q25.6 17.0 21.5 17.0 18.1 17.0 16.6 19.75 L16.0 21.05 15.5 21.95 Q17.95 21.0 21.75 21.0 29.5 21.0 33.25 24.85 37.05 28.75 36.15 35.85 35.85 38.35 35.0 40.5 L34.5 41.55 31.95 45.15 29.95 46.8 Q24.75 50.5 15.95 50.5 6.85 50.5 3.15 45.6 -1.1 40.35 0.4 28.6 1.45 20.4 4.4 15.4 L6.65 12.45 8.0 11.0 M18.2 31.4 L15.3 31.35 14.25 33.0 13.75 34.05 Q13.7 37.35 13.95 39.0 L13.9 39.0 13.95 39.05 17.3 39.45 Q19.4 39.45 20.6 38.4 21.85 37.45 22.1 35.55 L22.1 33.55 Q21.45 31.4 18.35 31.4 L18.2 31.4" fill="url(#gradient1)" fill-rule="evenodd" stroke="none"/>
    <path d="M35.85 17.35 L36.35 17.8 35.2 19.15 35.75 17.9 35.85 17.35" fill="url(#gradient2)" fill-rule="evenodd" stroke="none"/>
    <path d="M39.25 35.0 Q38.0 37.85 35.75 39.9 L39.25 35.0" fill="url(#gradient3)" fill-rule="evenodd" stroke="none"/>
    <path d="M13.95 39.0 L13.95 39.05 13.9 39.0 13.95 39.0" fill="url(#gradient4)" fill-rule="evenodd" stroke="none"/>
    <path d="M8.0 11.0 L8.05 11.0 Q14.15 5.95 22.95 5.95 L30.75 6.55 Q34.2 7.3 35.8 8.25 36.25 8.5 36.45 9.1 36.8 9.55 36.75 10.1 L35.95 16.8 35.75 17.9 35.2 19.15 34.6 19.75 32.35 19.8 30.1 18.8 27.8 17.85 Q25.6 17.0 21.5 17.0 18.1 17.0 16.6 19.75 L16.0 21.05 15.5 21.95 Q17.95 21.0 21.75 21.0 29.5 21.0 33.25 24.85 37.05 28.75 36.15 35.85 35.85 38.35 35.0 40.5 L35.75 39.9 39.25 35.0 Q38.0 37.85 35.75 39.9 L34.5 41.55 35.0 40.5 M35.85 17.35 L36.35 17.8 39.5 13.45 Q40.05 12.85 40.2 11.95 L41.2 4.15 Q41.25 3.6 40.95 3.15 40.65 2.55 40.2 2.3 38.6 1.35 35.15 0.65 L27.45 0.0 Q18.55 0.0 12.55 5.1 L10.8 6.75 10.2 7.45 9.6 8.35 9.2 8.95 8.0 11.0 6.65 12.45 4.4 15.4 Q1.45 20.4 0.4 28.6 -1.1 40.35 3.15 45.6 6.85 50.5 15.95 50.5 24.75 50.5 29.95 46.8 L31.95 45.15 34.5 41.55 M36.35 17.8 L35.2 19.15 M36.35 17.8 L37.75 18.95 Q41.5 22.85 40.6 29.9 40.2 32.75 39.25 35.0 M18.2 31.4 L15.3 31.35 14.25 33.0 13.75 34.05 Q13.7 37.35 13.95 39.0 L13.9 39.0 13.95 39.05 17.3 39.45 Q19.4 39.45 20.6 38.4 21.85 37.45 22.1 35.55 L22.1 33.55 21.75 33.55 Q18.9 33.55 18.35 33.05 L18.4 33.05 18.2 31.4 18.35 31.4 Q21.45 31.4 22.1 33.55 M6.65 12.45 L9.2 8.95" fill="none" stroke="url(#gradient5)" stroke-linecap="round" stroke-linejoin="round" stroke-width="2.0"/>
    <path d="M23.15 33.6 Q23.95 34.3 24.25 35.45 L24.3 35.6 24.3 37.9 Q24.0 40.25 22.4 41.4 21.0 42.65 18.5 42.65 15.1 42.65 14.45 42.15 13.2 41.05 13.2 40.7 L13.2 40.55 13.2 39.7 13.25 39.75 13.35 39.85 14.05 40.2 17.3 40.45 Q19.8 40.45 21.2 39.2 22.8 38.05 23.1 35.7 L23.15 33.6 M14.5 23.2 L14.65 22.75 14.75 22.6 15.2 22.9 15.85 22.9 16.35 22.7 Q18.55 22.0 21.75 22.0 29.0 22.0 32.55 25.55 33.8 26.9 34.5 28.65 33.8 27.75 31.3 25.9 28.75 24.0 23.25 24.0 17.75 24.0 15.45 24.9 L14.8 24.9 14.25 24.45 Q14.05 24.15 14.15 23.8 L14.5 23.2 M6.4 18.25 Q3.6 23.05 2.6 30.95 1.5 39.55 3.6 44.55 0.05 39.45 1.4 28.75 2.4 20.85 5.2 16.05 L7.45 13.1 8.5 11.9 8.7 11.8 Q14.55 6.95 22.95 6.95 L30.55 7.55 Q33.8 8.25 35.3 9.1 L35.35 9.15 35.5 9.45 35.65 9.75 35.75 10.0 35.65 10.9 Q34.2 10.25 31.75 9.75 L24.15 9.15 Q15.75 9.15 9.9 14.0 L9.7 14.1 8.65 15.3 6.4 18.25" fill="#ffffff" fill-opacity="0.3019608" fill-rule="evenodd" stroke="none"/>
  </g>
  <defs>
    <linearGradient gradientTransform="matrix(0.0054, 0.0202, -0.02, 0.0053, 28.0, 20.25)" gradientUnits="userSpaceOnUse" id="gradient0" spreadMethod="pad" x1="-819.2" x2="819.2">
      <stop offset="0.011764705882352941" stop-color="#751111"/>
      <stop offset="1.0" stop-color="#420b0b"/>
    </linearGradient>
    <linearGradient gradientTransform="matrix(0.0065, 0.0157, -0.0255, 0.0106, 17.85, 23.2)" gradientUnits="userSpaceOnUse" id="gradient1" spreadMethod="pad" x1="-819.2" x2="819.2">
      <stop offset="0.011764705882352941" stop-color="#df3122"/>
      <stop offset="1.0" stop-color="#eb4d27"/>
    </linearGradient>
    <linearGradient gradientTransform="matrix(7.0E-4, 0.0, 0.0, 0.0011, 35.75, 18.25)" gradientUnits="userSpaceOnUse" id="gradient2" spreadMethod="pad" x1="-819.2" x2="819.2">
      <stop offset="0.011764705882352941" stop-color="#751111"/>
      <stop offset="1.0" stop-color="#420b0b"/>
    </linearGradient>
    <linearGradient gradientTransform="matrix(0.0021, 0.0, 0.0, 0.003, 37.5, 37.45)" gradientUnits="userSpaceOnUse" id="gradient3" spreadMethod="pad" x1="-819.2" x2="819.2">
      <stop offset="0.011764705882352941" stop-color="#751111"/>
      <stop offset="1.0" stop-color="#420b0b"/>
    </linearGradient>
    <linearGradient gradientTransform="matrix(0.0, 0.0, 0.0, 0.0, 13.9, 39.0)" gradientUnits="userSpaceOnUse" id="gradient4" spreadMethod="pad" x1="-819.2" x2="819.2">
      <stop offset="0.011764705882352941" stop-color="#751111"/>
      <stop offset="1.0" stop-color="#420b0b"/>
    </linearGradient>
    <linearGradient gradientTransform="matrix(0.0092, 0.0191, -0.0096, 0.0047, -246.9, 155.05)" gradientUnits="userSpaceOnUse" id="gradient5" spreadMethod="pad" x1="-819.2" x2="819.2">
      <stop offset="0.011764705882352941" stop-color="#751111"/>
      <stop offset="1.0" stop-color="#420b0b"/>
    </linearGradient>
  </defs>
</svg>
