<?xml version="1.0" encoding="UTF-8" standalone="no"?>
<svg xmlns:xlink="http://www.w3.org/1999/xlink" height="24.7px" width="8.7px" xmlns="http://www.w3.org/2000/svg">
  <g transform="matrix(1.0, 0.0, 0.0, 1.0, 4.4, 22.85)">
    <path d="M3.3 -18.75 L3.3 -18.65 1.8 -6.95 Q1.75 -6.15 1.3 -5.65 0.75 -5.2 0.0 -5.2 -0.8 -5.2 -1.4 -5.65 -1.85 -6.15 -1.9 -6.95 L-3.05 -15.9 Q-0.15 -20.7 3.3 -18.75" fill="url(#gradient0)" fill-rule="evenodd" stroke="none"/>
    <path d="M2.4 -0.15 Q2.4 0.75 1.8 1.25 L1.75 1.3 Q1.15 1.85 0.0 1.85 -1.15 1.85 -1.75 1.3 L-1.75 1.25 Q-2.4 0.75 -2.4 -0.15 -2.4 -0.9 -1.85 -1.35 L1.9 -1.45 Q2.4 -0.95 2.4 -0.15" fill="url(#gradient1)" fill-rule="evenodd" stroke="none"/>
    <path d="M-3.05 -15.9 L-3.25 -17.55 Q-3.15 -19.5 -2.6 -20.55 L-1.3 -21.6 -2.3 -21.05 Q-1.05 -22.85 2.0 -21.25 L2.35 -20.95 Q3.25 -20.1 3.3 -18.75 -0.15 -20.7 -3.05 -15.9" fill="#3cecff" fill-rule="evenodd" stroke="none"/>
    <path d="M-2.6 -20.55 L-3.15 -19.9 -2.45 -20.9 -2.45 -20.95 -2.3 -21.05 -1.3 -21.6 -2.6 -20.55" fill="url(#gradient2)" fill-rule="evenodd" stroke="none"/>
    <path d="M-3.5 -15.4 L-3.9 -18.55 Q-3.9 -20.25 -2.8 -21.3 -1.65 -22.35 0.0 -22.35 1.6 -22.35 2.7 -21.3 3.65 -20.4 3.8 -19.05" fill="none" stroke="#ffffcc" stroke-linecap="round" stroke-linejoin="round" stroke-opacity="0.4509804" stroke-width="1.0"/>
  </g>
  <defs>
    <linearGradient gradientTransform="matrix(0.0054, 0.007, -0.0059, 0.0046, 0.1, -13.8)" gradientUnits="userSpaceOnUse" id="gradient0" spreadMethod="pad" x1="-819.2" x2="819.2">
      <stop offset="0.050980392156862744" stop-color="#029cc1"/>
      <stop offset="1.0" stop-color="#33ccff"/>
    </linearGradient>
    <linearGradient gradientTransform="matrix(0.0016, 0.0021, -0.0022, 0.0017, 0.0, -0.1)" gradientUnits="userSpaceOnUse" id="gradient1" spreadMethod="pad" x1="-819.2" x2="819.2">
      <stop offset="0.050980392156862744" stop-color="#029cc1"/>
      <stop offset="1.0" stop-color="#33ccff"/>
    </linearGradient>
    <radialGradient cx="0" cy="0" gradientTransform="matrix(0.0244, 0.0, 0.0, 0.0232, -1.6, -17.85)" gradientUnits="userSpaceOnUse" id="gradient2" r="819.2" spreadMethod="pad">
      <stop offset="0.0" stop-color="#abf7fe"/>
      <stop offset="1.0" stop-color="#3cecff"/>
    </radialGradient>
  </defs>
</svg>
