<?xml version="1.0" encoding="UTF-8" standalone="no"?>
<svg xmlns:xlink="http://www.w3.org/1999/xlink" height="51.8px" width="45.0px" xmlns="http://www.w3.org/2000/svg">
  <g transform="matrix(1.0, 0.0, 0.0, 1.0, 1.0, 1.0)">
    <path d="M10.55 6.3 L10.6 6.25 10.7 6.1 Q10.7 5.9 10.85 5.85 L11.1 5.5 Q12.0 4.7 13.65 3.9 15.35 3.1 18.55 1.95 23.25 0.0 28.45 0.0 35.5 0.0 39.3 3.1 43.65 6.55 42.9 12.55 42.65 14.5 41.8 16.4 L38.2 21.5 37.35 22.35 Q38.25 20.45 38.45 18.5 39.2 12.5 34.85 9.05 31.05 5.95 23.95 5.95 18.75 5.95 14.1 7.85 11.55 8.75 9.95 9.5 L10.25 7.1 Q10.25 6.75 10.55 6.3 M30.25 30.85 L38.65 30.85 Q39.55 30.85 40.2 31.5 40.65 32.25 40.55 33.05 L39.45 41.8 39.35 42.4 35.2 47.75 35.05 47.65 36.1 39.0 Q36.25 38.15 35.75 37.45 35.15 36.8 34.25 36.8 L24.55 36.8 26.0 35.45 28.7 32.65 30.25 30.85 M5.35 36.05 L5.45 35.85 5.9 35.2 22.45 22.2 22.5 22.15 22.6 22.2 22.6 22.25 22.2 23.75 17.95 28.1 4.85 38.45 5.1 36.65 5.35 36.05" fill="url(#gradient0)" fill-rule="evenodd" stroke="none"/>
    <path d="M9.95 9.5 Q11.55 8.75 14.1 7.85 18.75 5.95 23.95 5.95 31.05 5.95 34.85 9.05 39.2 12.5 38.45 18.5 38.25 20.45 37.35 22.35 L36.6 23.75 Q35.0 26.4 32.15 28.95 L30.25 30.85 28.7 32.65 26.0 35.45 24.55 36.8 34.25 36.8 Q35.15 36.8 35.75 37.45 36.25 38.15 36.1 39.0 L35.05 47.65 35.0 48.0 34.2 49.2 Q33.45 49.8 32.65 49.8 L1.9 49.8 Q1.05 49.8 0.45 49.2 -0.1 48.5 0.05 47.65 L0.65 42.55 0.85 42.0 0.95 41.8 1.45 41.15 1.6 41.0 4.85 38.45 17.95 28.1 22.2 23.75 22.6 22.25 22.6 22.2 22.6 21.9 22.65 21.45 Q22.9 20.05 22.1 19.2 21.2 18.35 19.45 18.35 16.5 18.35 13.1 20.45 9.55 22.75 8.3 24.2 7.7 24.9 6.95 25.05 L5.7 25.05 Q5.15 24.8 4.75 24.3 4.4 23.8 4.5 23.0 L5.8 13.0 Q5.8 12.65 6.1 12.2 L6.35 11.75 6.45 11.7 6.55 11.6 6.7 11.45 Q7.55 10.65 9.15 9.8 L9.95 9.5" fill="url(#gradient1)" fill-rule="evenodd" stroke="none"/>
    <path d="M22.5 22.15 L22.4 22.15 22.6 21.9 22.6 22.2 22.5 22.15" fill="url(#gradient2)" fill-rule="evenodd" stroke="none"/>
    <path d="M35.2 47.75 L35.0 48.0 35.05 47.65 35.2 47.75" fill="url(#gradient3)" fill-rule="evenodd" stroke="none"/>
    <path d="M38.2 21.5 L41.8 16.4 Q40.6 18.95 38.2 21.5" fill="url(#gradient4)" fill-rule="evenodd" stroke="none"/>
    <path d="M41.8 16.4 Q42.65 14.5 42.9 12.55 43.65 6.55 39.3 3.1 35.5 0.0 28.45 0.0 23.25 0.0 18.55 1.95 15.35 3.1 13.65 3.9 12.0 4.7 11.1 5.5 L10.85 5.85 Q10.7 5.9 10.7 6.1 L10.6 6.25 10.55 6.3 6.7 11.45 6.55 11.6 6.45 11.7 6.35 11.75 6.1 12.2 Q5.8 12.65 5.8 13.0 L4.5 23.0 Q4.4 23.8 4.75 24.3 5.15 24.8 5.7 25.05 L6.95 25.05 Q7.7 24.9 8.3 24.2 9.55 22.75 13.1 20.45 16.5 18.35 19.45 18.35 21.2 18.35 22.1 19.2 22.9 20.05 22.65 21.45 L22.6 21.9 22.4 22.15 22.5 22.15 22.45 22.2 5.9 35.2 5.45 35.85 5.35 36.05 5.1 36.65 4.85 38.45 1.6 41.0 5.35 36.05 M9.95 9.5 Q11.55 8.75 14.1 7.85 18.75 5.95 23.95 5.95 31.05 5.95 34.85 9.05 39.2 12.5 38.45 18.5 38.25 20.45 37.35 22.35 L38.2 21.5 41.8 16.4 Q40.6 18.95 38.2 21.5 L36.6 23.75 Q35.0 26.4 32.15 28.95 L30.25 30.85 38.65 30.85 Q39.55 30.85 40.2 31.5 40.65 32.25 40.55 33.05 L39.45 41.8 39.35 42.4 35.2 47.75 35.0 48.0 34.2 49.2 Q33.45 49.8 32.65 49.8 L1.9 49.8 Q1.05 49.8 0.45 49.2 -0.1 48.5 0.05 47.65 L0.65 42.55 0.85 42.0 0.95 41.8 1.45 41.15 1.6 41.0 M9.95 9.5 L9.15 9.8 Q7.55 10.65 6.7 11.45 M22.6 22.2 L22.6 21.9 M22.6 22.2 L22.6 22.25 22.2 23.75 17.95 28.1 4.85 38.45 M35.05 47.65 L36.1 39.0 Q36.25 38.15 35.75 37.45 35.15 36.8 34.25 36.8 L24.55 36.8 26.0 35.45 28.7 32.65 30.25 30.85 M35.05 47.65 L35.0 48.0 M36.6 23.75 L37.35 22.35" fill="none" stroke="url(#gradient5)" stroke-linecap="round" stroke-linejoin="round" stroke-width="2.0"/>
    <path d="M15.7 11.0 L15.65 11.0 Q13.15 11.85 11.6 12.6 L11.5 12.65 10.85 12.9 10.75 12.95 Q9.3 13.7 8.6 14.4 L8.45 14.5 8.35 14.6 8.25 14.7 8.25 14.75 8.15 14.95 8.0 15.2 8.0 15.35 6.9 24.05 6.75 24.1 6.0 24.1 5.6 23.75 5.5 23.15 6.8 13.15 6.8 13.0 6.95 12.75 7.05 12.55 7.05 12.5 7.15 12.4 7.25 12.3 7.4 12.2 Q8.15 11.45 9.65 10.7 L9.55 10.75 10.3 10.45 10.4 10.4 Q11.95 9.65 14.45 8.8 L14.5 8.8 Q18.95 6.95 23.95 6.95 30.65 6.95 34.25 9.85 36.2 11.4 37.05 13.65 L35.45 12.05 Q31.85 9.15 25.15 9.15 20.15 9.15 15.7 11.0 M6.65 12.5 L6.7 12.45 6.8 12.45 6.65 12.5 M6.35 12.75 L6.45 12.7 6.5 12.7 6.35 12.75 M23.7 20.45 L24.0 20.7 24.05 20.75 Q25.2 21.9 24.85 23.85 L24.8 24.1 24.8 24.4 24.8 24.45 24.8 24.65 24.35 26.3 24.1 26.65 19.85 31.0 19.8 31.1 3.45 44.0 3.35 44.05 3.05 44.5 3.0 44.6 2.95 44.65 2.85 44.95 2.4 48.8 1.9 48.8 Q1.5 48.8 1.25 48.6 0.95 48.25 1.05 47.85 L1.05 47.8 1.65 42.75 1.75 42.45 1.8 42.4 1.85 42.3 2.15 41.85 1.9 42.05 2.05 41.9 2.25 41.8 18.6 28.9 18.65 28.8 22.9 24.45 23.15 24.1 23.6 22.45 23.6 22.25 23.6 22.2 23.6 21.9 23.65 21.65 23.7 20.45 M35.0 40.0 L23.35 40.0 22.65 39.7 Q22.35 39.4 22.35 39.0 22.35 38.6 22.65 38.3 L23.55 36.65 23.55 36.8 Q23.55 37.2 23.85 37.5 L24.55 37.8 34.25 37.8 34.95 38.05 35.15 38.85 35.1 38.9 35.0 40.0" fill="#ffffff" fill-opacity="0.3019608" fill-rule="evenodd" stroke="none"/>
  </g>
  <defs>
    <linearGradient gradientTransform="matrix(0.006, 0.0226, -0.0189, 0.005, 30.25, 23.45)" gradientUnits="userSpaceOnUse" id="gradient0" spreadMethod="pad" x1="-819.2" x2="819.2">
      <stop offset="0.011764705882352941" stop-color="#751111"/>
      <stop offset="1.0" stop-color="#420b0b"/>
    </linearGradient>
    <linearGradient gradientTransform="matrix(0.0061, 0.0158, -0.0274, 0.0105, 16.7, 24.7)" gradientUnits="userSpaceOnUse" id="gradient1" spreadMethod="pad" x1="-819.2" x2="819.2">
      <stop offset="0.011764705882352941" stop-color="#df3122"/>
      <stop offset="1.0" stop-color="#eb4d27"/>
    </linearGradient>
    <linearGradient gradientTransform="matrix(1.0E-4, 0.0, 0.0, 2.0E-4, 22.5, 22.05)" gradientUnits="userSpaceOnUse" id="gradient2" spreadMethod="pad" x1="-819.2" x2="819.2">
      <stop offset="0.011764705882352941" stop-color="#751111"/>
      <stop offset="1.0" stop-color="#420b0b"/>
    </linearGradient>
    <linearGradient gradientTransform="matrix(1.0E-4, 0.0, 0.0, 2.0E-4, 35.1, 47.8)" gradientUnits="userSpaceOnUse" id="gradient3" spreadMethod="pad" x1="-819.2" x2="819.2">
      <stop offset="0.011764705882352941" stop-color="#751111"/>
      <stop offset="1.0" stop-color="#420b0b"/>
    </linearGradient>
    <linearGradient gradientTransform="matrix(0.0022, 0.0, 0.0, 0.0031, 40.0, 18.95)" gradientUnits="userSpaceOnUse" id="gradient4" spreadMethod="pad" x1="-819.2" x2="819.2">
      <stop offset="0.011764705882352941" stop-color="#751111"/>
      <stop offset="1.0" stop-color="#420b0b"/>
    </linearGradient>
    <linearGradient gradientTransform="matrix(0.0092, 0.0191, -0.0096, 0.0047, -68.1, 69.75)" gradientUnits="userSpaceOnUse" id="gradient5" spreadMethod="pad" x1="-819.2" x2="819.2">
      <stop offset="0.011764705882352941" stop-color="#751111"/>
      <stop offset="1.0" stop-color="#420b0b"/>
    </linearGradient>
  </defs>
</svg>
