<?xml version="1.0" encoding="UTF-8" standalone="no"?>
<svg xmlns:xlink="http://www.w3.org/1999/xlink" height="51.75px" width="44.1px" xmlns="http://www.w3.org/2000/svg">
  <g transform="matrix(1.0, 0.0, 0.0, 1.0, 1.0, 1.0)">
    <path d="M40.85 9.6 L37.1 12.75 37.25 11.45 37.6 8.05 Q37.75 7.15 37.2 6.55 36.5 5.9 35.65 5.9 L8.7 5.9 Q7.85 5.9 7.1 6.55 L11.55 0.6 Q12.3 0.0 13.15 0.0 L40.15 0.0 Q40.95 0.0 41.6 0.6 42.25 1.25 42.05 2.15 L40.85 9.6 M34.3 17.5 Q37.45 18.6 39.25 21.05 41.65 24.25 41.0 29.35 40.5 33.6 38.65 36.5 L37.15 38.5 35.4 40.05 Q36.25 37.9 36.55 35.25 37.2 30.15 34.8 26.95 32.4 23.75 27.45 22.85 L34.3 17.5 M8.9 28.3 L9.15 27.9 9.4 27.55 Q9.85 26.95 10.35 26.85 L12.05 27.0 12.65 27.4 12.35 29.5 Q12.3 30.4 12.75 31.0 13.3 31.65 14.25 31.65 19.85 31.85 20.95 32.5 22.2 33.85 22.05 34.85 21.9 35.8 21.0 36.3 L18.55 36.8 Q14.65 36.8 11.9 35.4 L9.25 33.95 7.65 32.95 6.4 32.75 8.8 28.45 8.9 28.3" fill="url(#gradient0)" fill-rule="evenodd" stroke="none"/>
    <path d="M37.25 11.45 L36.8 14.7 36.4 15.5 36.35 15.75 36.25 15.85 36.2 15.95 35.95 16.2 34.3 17.5 27.45 22.85 Q32.4 23.75 34.8 26.95 37.2 30.15 36.55 35.25 36.25 37.9 35.4 40.05 L34.3 42.25 32.8 44.3 30.55 46.2 Q25.6 49.75 17.05 49.75 10.85 49.75 6.2 47.6 L2.55 45.6 0.7 44.35 0.45 44.1 Q0.0 43.65 0.0 42.9 -0.05 42.2 0.35 41.45 L4.35 34.35 4.75 33.75 4.95 33.4 5.0 33.4 5.15 33.25 5.95 32.8 6.4 32.75 7.65 32.95 9.25 33.95 11.9 35.4 Q14.65 36.8 18.55 36.8 L21.0 36.3 Q21.9 35.8 22.05 34.85 22.2 33.85 20.95 32.5 19.85 31.85 14.25 31.65 13.3 31.65 12.75 31.0 12.3 30.4 12.35 29.5 L12.65 27.4 13.1 23.95 13.3 23.4 13.45 23.2 Q13.65 22.6 14.0 22.45 L14.4 22.2 17.25 20.5 20.8 18.35 17.85 18.35 17.5 18.35 7.15 18.35 Q6.25 18.35 5.7 17.8 5.2 17.15 5.25 16.2 L6.2 8.05 Q6.35 7.15 7.1 6.6 L7.1 6.55 Q7.85 5.9 8.7 5.9 L35.65 5.9 Q36.5 5.9 37.2 6.55 37.75 7.15 37.6 8.05 L37.25 11.45" fill="url(#gradient1)" fill-rule="evenodd" stroke="none"/>
    <path d="M17.85 18.35 L20.8 18.35 17.25 20.5 17.45 18.85 17.85 18.35" fill="url(#gradient2)" fill-rule="evenodd" stroke="none"/>
    <path d="M17.45 18.85 L17.5 18.35 17.85 18.35 17.45 18.85" fill="url(#gradient3)" fill-rule="evenodd" stroke="none"/>
    <path d="M36.35 15.75 L40.35 10.25 40.85 9.6 42.05 2.15 Q42.25 1.25 41.6 0.6 40.95 0.0 40.15 0.0 L13.15 0.0 Q12.3 0.0 11.55 0.6 L7.1 6.55 Q7.85 5.9 8.7 5.9 L35.65 5.9 Q36.5 5.9 37.2 6.55 37.75 7.15 37.6 8.05 L37.25 11.45 36.8 14.7 36.4 15.5 36.35 15.75 36.25 15.85 36.2 15.95 35.95 16.2 34.3 17.5 Q37.45 18.6 39.25 21.05 41.65 24.25 41.0 29.35 40.5 33.6 38.65 36.5 L37.15 38.5 34.3 42.25 32.8 44.3 30.55 46.2 Q25.6 49.75 17.05 49.75 10.85 49.75 6.2 47.6 L2.55 45.6 0.7 44.35 0.45 44.1 Q0.0 43.65 0.0 42.9 -0.05 42.2 0.35 41.45 L4.35 34.35 4.75 33.75 4.95 33.4 5.0 33.4 5.15 33.25 8.9 28.3 9.15 27.9 9.4 27.55 Q9.85 26.95 10.35 26.85 L12.05 27.0 12.65 27.4 13.1 23.95 13.3 23.4 13.45 23.2 Q13.65 22.6 14.0 22.45 L14.4 22.2 17.45 18.85 17.5 18.35 7.15 18.35 Q6.25 18.35 5.7 17.8 5.2 17.15 5.25 16.2 L6.2 8.05 Q6.35 7.15 7.1 6.6 L7.1 6.55 M35.4 40.05 Q36.25 37.9 36.55 35.25 37.2 30.15 34.8 26.95 32.4 23.75 27.45 22.85 L34.3 17.5 M34.3 42.25 L35.4 40.05 37.15 38.5 M17.5 18.35 L17.85 18.35 20.8 18.35 17.25 20.5 14.4 22.2 M17.85 18.35 L17.45 18.85 17.25 20.5 M12.65 27.4 L12.35 29.5 Q12.3 30.4 12.75 31.0 13.3 31.65 14.25 31.65 19.85 31.85 20.95 32.5 22.2 33.85 22.05 34.85 21.9 35.8 21.0 36.3 L18.55 36.8 Q14.65 36.8 11.9 35.4 L9.25 33.95 7.65 32.95 6.4 32.75 5.95 32.8 5.15 33.25 M8.9 28.3 L8.8 28.45 6.4 32.75" fill="none" stroke="url(#gradient4)" stroke-linecap="round" stroke-linejoin="round" stroke-width="2.0"/>
    <path d="M21.4 17.55 L23.3 17.55 23.9 17.75 Q24.2 17.95 24.3 18.3 L24.25 18.95 23.85 19.4 15.75 25.5 15.6 25.6 15.6 25.75 15.4 26.05 15.3 26.3 14.7 30.7 14.3 30.65 14.25 30.65 13.55 30.35 13.35 29.65 14.1 24.1 14.2 23.85 14.4 23.55 14.4 23.4 14.55 23.3 21.35 19.2 21.75 18.75 21.8 18.1 21.4 17.55 M7.95 7.15 Q8.3 6.9 8.7 6.9 L35.65 6.9 Q36.1 6.9 36.5 7.25 L36.65 7.9 36.6 7.95 36.45 9.1 9.9 9.1 Q9.5 9.1 9.15 9.35 L8.9 9.6 Q8.45 9.9 8.4 10.45 L8.4 10.35 7.6 17.35 7.15 17.35 6.5 17.15 Q6.25 16.8 6.25 16.3 L6.25 16.25 7.2 8.15 7.2 8.25 Q7.25 7.7 7.7 7.4 L7.95 7.15 M23.1 34.25 Q24.55 35.85 24.25 37.2 24.05 38.65 22.7 39.4 21.6 40.0 19.75 40.0 15.6 40.0 12.65 38.5 L12.6 38.45 10.05 37.05 9.95 37.0 8.4 36.05 7.75 35.95 7.6 35.95 7.4 36.0 7.35 36.0 7.1 36.1 7.25 35.9 7.1 36.05 6.9 36.35 6.8 36.5 6.65 36.65 6.5 36.95 6.45 37.05 2.45 44.15 2.35 44.35 1.25 43.45 1.15 43.4 1.0 42.9 1.0 42.85 1.25 41.95 5.25 34.85 5.3 34.75 5.45 34.45 5.6 34.3 5.7 34.15 5.9 33.85 6.05 33.7 5.9 33.9 6.15 33.8 6.2 33.8 6.4 33.75 6.55 33.75 7.2 33.85 8.75 34.8 8.85 34.85 11.4 36.25 11.45 36.3 Q14.4 37.8 18.55 37.8 20.4 37.8 21.5 37.2 22.85 36.45 23.05 35.0 L23.1 34.25 M25.85 23.8 Q25.9 23.4 26.45 22.7 L26.65 23.45 Q26.9 23.75 27.3 23.85 L28.3 24.05 Q32.05 25.0 34.0 27.55 L35.1 29.65 35.2 29.9 Q30.85 25.7 26.7 24.95 L26.05 24.55 Q25.8 24.2 25.85 23.8" fill="#ffffff" fill-opacity="0.3019608" fill-rule="evenodd" stroke="none"/>
  </g>
  <defs>
    <linearGradient gradientTransform="matrix(0.0074, 0.0217, -0.0201, 0.0068, 30.35, 20.7)" gradientUnits="userSpaceOnUse" id="gradient0" spreadMethod="pad" x1="-819.2" x2="819.2">
      <stop offset="0.011764705882352941" stop-color="#751111"/>
      <stop offset="1.0" stop-color="#420b0b"/>
    </linearGradient>
    <linearGradient gradientTransform="matrix(0.0068, 0.0148, -0.0273, 0.0126, 17.25, 21.95)" gradientUnits="userSpaceOnUse" id="gradient1" spreadMethod="pad" x1="-819.2" x2="819.2">
      <stop offset="0.011764705882352941" stop-color="#df3122"/>
      <stop offset="1.0" stop-color="#eb4d27"/>
    </linearGradient>
    <linearGradient gradientTransform="matrix(0.0022, 0.0, 0.0, 0.0013, 19.0, 19.4)" gradientUnits="userSpaceOnUse" id="gradient2" spreadMethod="pad" x1="-819.2" x2="819.2">
      <stop offset="0.011764705882352941" stop-color="#751111"/>
      <stop offset="1.0" stop-color="#420b0b"/>
    </linearGradient>
    <linearGradient gradientTransform="matrix(2.0E-4, 0.0, 0.0, 3.0E-4, 17.65, 18.6)" gradientUnits="userSpaceOnUse" id="gradient3" spreadMethod="pad" x1="-819.2" x2="819.2">
      <stop offset="0.011764705882352941" stop-color="#751111"/>
      <stop offset="1.0" stop-color="#420b0b"/>
    </linearGradient>
    <linearGradient gradientTransform="matrix(0.0099, 0.0206, -0.0096, 0.0047, -337.7, 199.6)" gradientUnits="userSpaceOnUse" id="gradient4" spreadMethod="pad" x1="-819.2" x2="819.2">
      <stop offset="0.011764705882352941" stop-color="#751111"/>
      <stop offset="1.0" stop-color="#420b0b"/>
    </linearGradient>
  </defs>
</svg>
