<?xml version="1.0" encoding="UTF-8" standalone="no"?>
<svg xmlns:xlink="http://www.w3.org/1999/xlink" height="39.85px" width="39.4px" xmlns="http://www.w3.org/2000/svg">
  <g transform="matrix(1.0, 0.0, 0.0, 1.0, 1.0, 1.0)">
    <path d="M1.75 16.6 L5.7 11.4 6.25 10.55 Q6.9 10.05 7.75 10.05 L12.15 10.05 11.35 16.0 3.35 16.0 Q2.45 16.0 1.75 16.6 M13.2 6.55 L17.1 1.45 17.75 0.55 Q18.35 0.0 19.2 0.0 L26.65 0.0 Q27.55 0.0 28.1 0.6 28.6 1.25 28.55 2.15 L27.45 10.05 35.45 10.05 Q36.3 10.05 36.95 10.7 37.5 11.3 37.35 12.2 L36.45 19.55 36.05 20.6 35.8 20.95 35.6 21.1 35.65 21.1 31.85 26.05 32.0 25.5 32.9 18.15 Q33.05 17.25 32.5 16.6 31.85 16.0 31.0 16.0 L23.0 16.0 24.05 8.1 Q24.2 7.15 23.65 6.55 23.05 5.95 22.25 5.95 L14.8 5.95 Q13.9 5.95 13.2 6.55 M25.3 27.65 L25.0 29.85 24.55 31.0 24.4 31.2 24.25 31.35 Q23.5 31.95 22.6 31.95 L21.1 31.95 21.2 31.35 21.6 27.65 25.3 27.65" fill="url(#gradient0)" fill-rule="evenodd" stroke="none"/>
    <path d="M12.15 10.05 L12.4 8.1 Q12.5 7.25 13.1 6.7 L13.2 6.55 Q13.9 5.95 14.8 5.95 L22.25 5.95 Q23.05 5.95 23.65 6.55 24.2 7.15 24.05 8.1 L23.0 16.0 31.0 16.0 Q31.85 16.0 32.5 16.6 33.05 17.25 32.9 18.15 L32.0 25.5 31.85 26.05 31.15 27.05 Q30.55 27.65 29.6 27.65 L25.3 27.65 21.6 27.65 21.2 31.35 20.55 35.7 20.4 36.35 19.75 37.3 19.5 37.45 Q18.95 37.85 18.15 37.85 L10.7 37.85 Q9.85 37.85 9.3 37.3 8.8 36.65 8.9 35.7 L10.0 27.65 1.85 27.65 Q1.0 27.65 0.45 27.05 -0.15 26.4 0.05 25.5 L0.9 18.65 0.85 18.65 Q0.95 17.6 1.45 16.9 L1.6 16.8 1.65 16.7 1.75 16.6 Q2.45 16.0 3.35 16.0 L11.35 16.0 12.15 10.05" fill="url(#gradient1)" fill-rule="evenodd" stroke="none"/>
    <path d="M17.1 1.45 Q17.25 1.0 17.65 0.6 L17.75 0.55 17.1 1.45" fill="url(#gradient2)" fill-rule="evenodd" stroke="none"/>
    <path d="M1.75 16.6 L5.7 11.4 6.25 10.55 Q6.9 10.05 7.75 10.05 L12.15 10.05 12.4 8.1 Q12.5 7.25 13.1 6.7 L13.2 6.55 17.1 1.45 Q17.25 1.0 17.65 0.6 L17.75 0.55 Q18.35 0.0 19.2 0.0 L26.65 0.0 Q27.55 0.0 28.1 0.6 28.6 1.25 28.55 2.15 L27.45 10.05 35.45 10.05 Q36.3 10.05 36.95 10.7 37.5 11.3 37.35 12.2 L36.45 19.55 36.05 20.6 35.8 20.95 35.65 21.1 31.85 26.05 31.15 27.05 Q30.55 27.65 29.6 27.65 L25.3 27.65 25.0 29.85 24.55 31.0 24.4 31.2 20.4 36.35 19.75 37.3 19.5 37.45 Q18.95 37.85 18.15 37.85 L10.7 37.85 Q9.85 37.85 9.3 37.3 8.8 36.65 8.9 35.7 L10.0 27.65 1.85 27.65 Q1.0 27.65 0.45 27.05 -0.15 26.4 0.05 25.5 L0.9 18.65 0.85 18.65 Q0.95 17.6 1.45 16.9 L1.6 16.8 1.65 16.7 1.75 16.6 Q2.45 16.0 3.35 16.0 L11.35 16.0 12.15 10.05 M31.85 26.05 L32.0 25.5 32.9 18.15 Q33.05 17.25 32.5 16.6 31.85 16.0 31.0 16.0 L23.0 16.0 24.05 8.1 Q24.2 7.15 23.65 6.55 23.05 5.95 22.25 5.95 L14.8 5.95 Q13.9 5.95 13.2 6.55 M17.1 1.45 L17.75 0.55 M21.1 31.95 L22.6 31.95 Q23.5 31.95 24.25 31.35 L24.4 31.2 M20.4 36.35 L20.55 35.7 21.2 31.35 21.6 27.65 25.3 27.65" fill="none" stroke="url(#gradient3)" stroke-linecap="round" stroke-linejoin="round" stroke-width="2.0"/>
    <path d="M2.6 16.8 L2.65 16.7 2.6 16.85 2.6 16.8 M2.3 17.5 L2.45 17.3 Q2.85 17.0 3.35 17.0 L11.35 17.0 12.0 16.75 12.35 16.15 13.4 8.25 Q13.45 7.75 13.8 7.45 L13.95 7.25 14.8 6.95 22.25 6.95 22.95 7.25 23.05 7.95 22.9 9.15 16.0 9.15 Q15.55 9.15 15.15 9.45 L15.0 9.65 Q14.65 9.95 14.6 10.45 L13.55 18.35 13.2 18.95 12.55 19.2 4.55 19.2 Q4.05 19.2 3.65 19.5 L3.5 19.7 3.45 19.75 Q3.1 20.25 3.05 20.95 L3.05 21.0 2.4 26.65 1.85 26.65 1.2 26.4 Q0.95 26.1 1.05 25.75 L1.05 25.65 1.85 18.8 1.85 18.75 Q1.9 18.05 2.25 17.55 L2.3 17.5 M11.95 26.8 L12.3 27.25 11.25 36.85 10.7 36.85 10.1 36.65 Q9.85 36.3 9.9 35.85 L9.9 35.8 11.0 27.8 10.9 27.25 10.55 26.8 10.05 26.65 10.55 26.65 11.05 26.7 11.95 26.8 M21.9 18.05 L22.0 16.15 22.1 16.45 22.45 16.85 23.0 17.0 31.0 17.0 31.75 17.25 31.95 18.0 31.9 18.05 31.75 19.2 22.9 19.2 22.35 19.05 22.0 18.65 21.9 18.05" fill="#ffffff" fill-opacity="0.3019608" fill-rule="evenodd" stroke="none"/>
  </g>
  <defs>
    <linearGradient gradientTransform="matrix(0.0053, 0.0198, -0.013, 0.0035, 28.1, 19.6)" gradientUnits="userSpaceOnUse" id="gradient0" spreadMethod="pad" x1="-819.2" x2="819.2">
      <stop offset="0.011764705882352941" stop-color="#751111"/>
      <stop offset="1.0" stop-color="#420b0b"/>
    </linearGradient>
    <linearGradient gradientTransform="matrix(0.005, 0.0115, -0.0188, 0.0082, 15.45, 19.4)" gradientUnits="userSpaceOnUse" id="gradient1" spreadMethod="pad" x1="-819.2" x2="819.2">
      <stop offset="0.011764705882352941" stop-color="#df3122"/>
      <stop offset="1.0" stop-color="#eb4d27"/>
    </linearGradient>
    <linearGradient gradientTransform="matrix(4.0E-4, 0.0, 0.0, 5.0E-4, 17.4, 1.0)" gradientUnits="userSpaceOnUse" id="gradient2" spreadMethod="pad" x1="-819.2" x2="819.2">
      <stop offset="0.011764705882352941" stop-color="#751111"/>
      <stop offset="1.0" stop-color="#420b0b"/>
    </linearGradient>
    <linearGradient gradientTransform="matrix(0.0092, 0.0191, -0.0096, 0.0047, -453.35, 248.1)" gradientUnits="userSpaceOnUse" id="gradient3" spreadMethod="pad" x1="-819.2" x2="819.2">
      <stop offset="0.011764705882352941" stop-color="#751111"/>
      <stop offset="1.0" stop-color="#420b0b"/>
    </linearGradient>
  </defs>
</svg>
