<?xml version="1.0" encoding="UTF-8" standalone="no"?>
<svg xmlns:xlink="http://www.w3.org/1999/xlink" height="52.5px" width="44.7px" xmlns="http://www.w3.org/2000/svg">
  <g transform="matrix(1.0, 0.0, 0.0, 1.0, 1.0, 1.0)">
    <path d="M6.1 25.4 Q5.0 24.35 4.4 22.8 3.75 20.6 4.05 18.2 4.4 15.4 5.9 13.25 L6.25 12.65 6.7 12.1 Q7.65 10.9 9.1 9.85 9.6 9.45 10.25 9.1 15.35 5.95 22.65 5.95 29.7 5.95 34.35 9.2 38.85 12.55 38.1 18.25 L37.75 20.1 37.65 20.3 36.45 22.9 Q35.05 25.05 33.0 26.15 34.2 26.7 36.25 29.15 38.1 31.35 37.5 36.1 37.2 38.35 36.45 40.25 L35.5 42.3 33.4 45.0 31.15 46.9 Q25.65 50.5 16.95 50.5 12.6 50.5 9.35 49.6 6.0 48.65 3.75 46.95 1.6 45.15 0.65 42.5 -0.3 39.85 0.15 36.5 0.6 32.8 2.3 30.2 3.5 28.35 5.4 27.1 L7.1 26.1 6.1 25.4 M23.5 17.85 Q22.75 17.3 21.2 17.3 19.65 17.3 18.7 17.8 17.8 18.35 17.75 19.3 17.6 20.25 18.3 20.85 L20.7 21.3 23.1 20.85 Q24.05 20.25 24.15 19.3 24.25 18.4 23.5 17.85 M22.9 33.3 L22.5 32.9 Q21.6 31.95 19.3 31.95 14.9 31.95 14.45 35.6 13.95 39.2 18.5 39.2 20.65 39.2 21.8 38.25 23.05 37.35 23.25 35.6 23.45 34.1 22.9 33.3" fill="url(#gradient0)" fill-rule="evenodd" stroke="none"/>
    <path d="M36.45 40.25 Q37.2 38.35 37.5 36.1 38.1 31.35 36.25 29.15 34.2 26.7 33.0 26.15 35.05 25.05 36.45 22.9 L37.65 20.3 Q38.9 21.0 40.05 23.2 L40.0 23.2 Q42.6 25.35 41.95 30.2 41.4 34.0 39.6 36.9 L39.15 37.55 38.8 38.0 38.7 38.15 36.45 40.25 M37.75 20.1 L38.1 18.25 Q38.85 12.55 34.35 9.2 29.7 5.95 22.65 5.95 15.35 5.95 10.25 9.1 9.6 9.45 9.1 9.85 9.45 8.65 10.1 7.6 L10.85 6.5 Q12.35 4.55 14.7 3.15 19.75 0.0 27.1 0.0 34.2 0.0 38.75 3.25 43.3 6.6 42.6 12.35 42.2 14.75 40.9 16.95 39.6 18.95 37.75 20.1 M23.5 17.85 Q24.25 18.4 24.15 19.3 24.05 20.25 23.1 20.85 L20.7 21.3 18.3 20.85 Q17.6 20.25 17.75 19.3 17.8 18.35 18.7 17.8 19.65 17.3 21.2 17.3 22.75 17.3 23.5 17.85 M22.9 33.3 Q23.45 34.1 23.25 35.6 23.05 37.35 21.8 38.25 20.65 39.2 18.5 39.2 13.95 39.2 14.45 35.6 14.9 31.95 19.3 31.95 20.2 33.3 22.9 33.3" fill="url(#gradient1)" fill-rule="evenodd" stroke="none"/>
    <path d="M6.1 25.4 L7.1 26.1 5.4 27.1 6.1 25.4" fill="url(#gradient2)" fill-rule="evenodd" stroke="none"/>
    <path d="M9.1 9.85 Q7.65 10.9 6.7 12.1 L6.25 12.65 5.9 13.25 Q4.4 15.4 4.05 18.2 3.75 20.6 4.4 22.8 5.0 24.35 6.1 25.4 L7.1 26.1 5.4 27.1 Q3.5 28.35 2.3 30.2 0.6 32.8 0.15 36.5 -0.3 39.85 0.65 42.5 1.6 45.15 3.75 46.95 6.0 48.65 9.35 49.6 12.6 50.5 16.95 50.5 25.65 50.5 31.15 46.9 L33.4 45.0 35.5 42.3 36.45 40.25 Q37.2 38.35 37.5 36.1 38.1 31.35 36.25 29.15 34.2 26.7 33.0 26.15 35.05 25.05 36.45 22.9 L37.65 20.3 37.75 20.1 38.1 18.25 Q38.85 12.55 34.35 9.2 29.7 5.95 22.65 5.95 15.35 5.95 10.25 9.1 9.6 9.45 9.1 9.85 9.45 8.65 10.1 7.6 L6.7 12.1 M37.75 20.1 Q39.6 18.95 40.9 16.95 42.2 14.75 42.6 12.35 43.3 6.6 38.75 3.25 34.2 0.0 27.1 0.0 19.75 0.0 14.7 3.15 12.35 4.55 10.85 6.5 L10.1 7.6 M23.5 17.85 Q24.25 18.4 24.15 19.3 24.05 20.25 23.1 20.85 L20.7 21.3 18.3 20.85 Q17.6 20.25 17.75 19.3 17.8 18.35 18.7 17.8 19.65 17.3 21.2 17.3 22.75 17.3 23.5 17.85 M36.45 40.25 L38.7 38.15 38.8 38.0 39.15 37.55 39.6 36.9 Q41.4 34.0 41.95 30.2 42.6 25.35 40.0 23.2 L40.05 23.2 Q38.9 21.0 37.65 20.3 M35.5 42.3 L38.7 38.15 M19.3 31.95 Q21.6 31.95 22.5 32.9 L22.9 33.3 Q23.45 34.1 23.25 35.6 23.05 37.35 21.8 38.25 20.65 39.2 18.5 39.2 13.95 39.2 14.45 35.6 14.9 31.95 19.3 31.95 20.2 33.3 22.9 33.3 M6.1 25.4 L5.4 27.1" fill="none" stroke="url(#gradient3)" stroke-linecap="round" stroke-linejoin="round" stroke-width="2.0"/>
    <path d="M8.0 25.75 L8.95 26.35 9.35 26.95 9.3 27.65 8.8 28.15 Q8.0 28.45 7.3 29.0 L7.25 29.05 Q5.55 30.15 4.45 31.85 2.85 34.3 2.45 37.75 2.05 40.75 2.9 44.6 L2.85 44.55 Q2.05 43.45 1.6 42.2 0.75 39.7 1.15 36.65 1.55 33.2 3.15 30.75 4.25 29.05 5.95 27.95 L6.0 27.9 Q6.7 27.35 7.5 27.05 L7.9 26.75 8.0 26.55 8.05 25.85 8.0 25.75 M12.0 12.15 L11.95 12.2 10.95 12.85 10.9 12.85 Q9.55 13.8 8.7 14.95 L8.75 14.85 8.3 15.4 8.25 15.5 8.05 15.85 7.95 16.05 Q6.55 18.0 6.25 20.55 5.95 22.5 6.45 24.35 5.75 23.55 5.35 22.55 L5.35 22.45 Q4.75 20.45 5.05 18.35 5.35 15.8 6.75 13.85 L6.85 13.65 7.05 13.3 7.1 13.2 7.55 12.65 7.5 12.75 Q8.35 11.6 9.7 10.65 L9.75 10.65 10.75 10.0 10.8 9.95 Q15.65 6.95 22.65 6.95 29.35 6.95 33.8 10.05 35.95 11.65 36.75 13.95 L35.0 12.25 Q30.55 9.15 23.85 9.15 16.85 9.15 12.0 12.15 M25.2 19.15 L25.3 19.25 Q26.5 20.15 26.35 21.6 26.2 23.0 24.85 23.9 L24.75 23.95 Q23.7 24.5 21.9 24.5 19.9 24.5 19.0 23.9 L18.85 23.8 Q17.85 23.0 17.9 21.8 18.85 22.3 20.7 22.3 22.5 22.3 23.55 21.75 L23.65 21.7 Q25.0 20.8 25.15 19.4 L25.2 19.15 M24.3 34.25 L24.45 34.4 24.9 34.9 24.95 34.95 Q25.7 35.95 25.45 37.95 25.25 39.85 24.0 40.95 L24.0 41.0 23.6 41.2 Q21.3 42.2 19.0 42.2 16.25 42.2 15.05 41.05 14.05 40.25 13.55 37.4 13.75 38.4 14.55 39.05 L14.65 39.1 Q15.8 40.2 18.5 40.2 21.05 40.2 22.45 39.05 L22.4 39.05 Q24.0 37.95 24.25 35.75 L24.3 34.25 M32.3 27.55 Q31.9 27.4 31.8 27.05 31.6 26.7 31.75 26.35 L32.0 26.0 32.1 26.55 Q32.2 26.9 32.6 27.05 L33.5 27.7 35.5 29.8 36.35 31.6 36.45 32.0 Q33.25 28.05 32.3 27.55" fill="#ffffff" fill-opacity="0.3019608" fill-rule="evenodd" stroke="none"/>
  </g>
  <defs>
    <linearGradient gradientTransform="matrix(0.0052, 0.0123, -0.0255, 0.0109, 16.0, 20.5)" gradientUnits="userSpaceOnUse" id="gradient0" spreadMethod="pad" x1="-819.2" x2="819.2">
      <stop offset="0.011764705882352941" stop-color="#809f0a"/>
      <stop offset="1.0" stop-color="#acd40e"/>
    </linearGradient>
    <linearGradient gradientTransform="matrix(0.0108, 0.0277, -0.018, 0.007, 32.8, 27.05)" gradientUnits="userSpaceOnUse" id="gradient1" spreadMethod="pad" x1="-819.2" x2="819.2">
      <stop offset="0.011764705882352941" stop-color="#4e5f06"/>
      <stop offset="1.0" stop-color="#212703"/>
    </linearGradient>
    <linearGradient gradientTransform="matrix(0.001, 0.0, 0.0, 0.001, 6.25, 26.25)" gradientUnits="userSpaceOnUse" id="gradient2" spreadMethod="pad" x1="-819.2" x2="819.2">
      <stop offset="0.011764705882352941" stop-color="#4e5f06"/>
      <stop offset="1.0" stop-color="#212703"/>
    </linearGradient>
    <linearGradient gradientTransform="matrix(0.0092, 0.0191, -0.0096, 0.0047, -328.2, 196.4)" gradientUnits="userSpaceOnUse" id="gradient3" spreadMethod="pad" x1="-819.2" x2="819.2">
      <stop offset="0.011764705882352941" stop-color="#4e5f06"/>
      <stop offset="1.0" stop-color="#212703"/>
    </linearGradient>
  </defs>
</svg>
