<?xml version="1.0" encoding="UTF-8" standalone="no"?>
<svg xmlns:xlink="http://www.w3.org/1999/xlink" height="52.5px" width="44.3px" xmlns="http://www.w3.org/2000/svg">
  <g transform="matrix(1.0, 0.0, 0.0, 1.0, 1.0, 1.0)">
    <path d="M34.5 11.45 L34.45 11.45 34.45 11.4 34.5 11.45" fill="url(#gradient0)" fill-rule="evenodd" stroke="none"/>
    <path d="M38.95 5.5 L38.9 5.5 38.9 5.45 38.95 5.5" fill="url(#gradient1)" fill-rule="evenodd" stroke="none"/>
    <path d="M34.45 11.4 L34.45 11.45 34.45 11.4" fill="url(#gradient2)" fill-rule="evenodd" stroke="none"/>
    <path d="M20.3 18.4 L20.3 18.45 20.2 18.4 20.3 18.4" fill="url(#gradient3)" fill-rule="evenodd" stroke="none"/>
    <path d="M34.1 39.75 L34.4 39.2 38.2 34.45 Q36.7 37.1 34.6 39.1 L34.1 39.75" fill="url(#gradient4)" fill-rule="evenodd" stroke="none"/>
    <path d="M34.45 11.45 L34.5 11.45 Q38.9 17.0 37.55 28.25 36.7 34.65 34.4 39.2 L34.1 39.75 Q32.5 42.85 30.15 45.05 26.1 50.5 16.1 50.5 6.25 50.5 2.55 44.9 0.85 42.15 0.2 37.95 -0.3 33.85 0.45 28.25 1.5 19.8 4.55 14.7 L4.75 14.5 6.75 11.6 8.2 10.25 Q13.2 5.95 21.8 5.95 31.55 5.95 34.45 11.45 M20.3 18.4 L20.2 18.4 Q17.55 18.4 17.05 19.6 16.15 21.7 15.35 28.25 L14.75 33.75 14.85 37.0 Q15.05 38.05 17.7 38.05 20.3 38.05 20.9 36.8 L22.1 32.1 22.7 28.25 Q23.5 21.85 23.05 19.25 22.85 18.4 20.3 18.4" fill="url(#gradient5)" fill-rule="evenodd" stroke="none"/>
    <path d="M34.5 11.45 L34.45 11.4 34.45 11.45 Q31.55 5.95 21.8 5.95 13.2 5.95 8.2 10.25 L9.4 8.15 Q10.1 7.0 10.95 6.0 L11.25 5.65 Q16.4 0.0 26.25 0.0 36.1 0.0 38.9 5.5 L38.95 5.5 Q43.35 11.05 41.95 22.3 41.0 29.55 38.2 34.45 L34.4 39.2 Q36.7 34.65 37.55 28.25 38.9 17.0 34.5 11.45" fill="url(#gradient6)" fill-rule="evenodd" stroke="none"/>
    <path d="M20.2 18.4 L20.3 18.45 19.8 22.3 19.2 27.8 Q19.1 29.95 19.3 31.05 19.55 32.1 22.1 32.1 L20.9 36.8 Q20.3 38.05 17.7 38.05 15.05 38.05 14.85 37.0 L14.75 33.75 15.35 28.25 Q16.15 21.7 17.05 19.6 17.55 18.4 20.2 18.4" fill="url(#gradient7)" fill-rule="evenodd" stroke="none"/>
    <path d="M20.3 18.45 L20.3 18.4 20.2 18.4" fill="none" stroke="url(#gradient8)" stroke-linecap="round" stroke-linejoin="round" stroke-width="2.0"/>
    <path d="M34.5 11.45 L34.45 11.4 34.45 11.45 Q31.55 5.95 21.8 5.95 13.2 5.95 8.2 10.25 L6.75 11.6 4.75 14.5 4.55 14.7 Q1.5 19.8 0.45 28.25 -0.3 33.85 0.2 37.95 0.85 42.15 2.55 44.9 6.25 50.5 16.1 50.5 26.1 50.5 30.15 45.05 32.5 42.85 34.1 39.75 L34.4 39.2 Q36.7 34.65 37.55 28.25 38.9 17.0 34.5 11.45 M38.9 5.5 Q36.1 0.0 26.25 0.0 16.4 0.0 11.25 5.65 L10.95 6.0 Q10.1 7.0 9.4 8.15 L8.2 10.25 M38.95 5.5 L38.9 5.45 38.9 5.5 M6.75 11.6 L9.4 8.15 M34.1 39.75 L34.6 39.1 Q36.7 37.1 38.2 34.45 L34.4 39.2 M38.2 34.45 Q41.0 29.55 41.95 22.3 43.35 11.05 38.95 5.5" fill="none" stroke="url(#gradient9)" stroke-linecap="round" stroke-linejoin="round" stroke-width="2.0"/>
    <path d="M20.3 18.45 L19.8 22.3 19.2 27.8 Q19.1 29.95 19.3 31.05 19.55 32.1 22.1 32.1 L22.7 28.25 Q23.5 21.85 23.05 19.25 22.85 18.4 20.3 18.4 M22.1 32.1 L20.9 36.8 Q20.3 38.05 17.7 38.05 15.05 38.05 14.85 37.0 L14.75 33.75 15.35 28.25 Q16.15 21.7 17.05 19.6 17.55 18.4 20.2 18.4" fill="none" stroke="url(#gradient10)" stroke-linecap="round" stroke-linejoin="round" stroke-width="2.0"/>
    <path d="M25.15 19.3 L25.25 19.5 Q25.7 24.15 24.9 30.6 L24.3 34.5 23.05 39.4 23.0 39.45 Q22.3 41.25 18.9 41.25 15.2 41.25 14.25 38.95 L14.3 38.15 15.0 38.65 17.7 39.05 Q21.1 39.05 21.8 37.25 L21.85 37.2 23.1 32.3 23.7 28.4 Q24.4 22.75 24.15 20.0 L24.05 19.1 24.05 19.05 Q23.95 18.3 23.25 17.9 24.9 18.7 25.15 19.3 M35.35 14.9 L34.95 14.3 34.85 14.15 Q32.1 9.15 23.0 9.15 14.8 9.15 10.05 13.2 L8.8 14.4 6.8 17.3 6.6 17.5 Q3.65 22.4 2.65 30.6 1.9 36.0 2.4 40.0 L2.4 40.05 Q2.8 42.7 3.65 44.75 L3.4 44.35 3.4 44.4 Q1.8 41.8 1.2 37.85 L1.2 37.8 Q0.7 33.8 1.45 28.4 2.45 20.2 5.4 15.3 L5.6 15.1 7.6 12.2 8.85 11.0 Q13.6 6.95 21.8 6.95 30.9 6.95 33.65 11.95 L33.75 12.1 Q34.7 13.3 35.35 14.9" fill="#ffffff" fill-opacity="0.3019608" fill-rule="evenodd" stroke="none"/>
  </g>
  <defs>
    <linearGradient gradientTransform="matrix(0.0, 0.0, 0.0, 0.0, 34.45, 11.4)" gradientUnits="userSpaceOnUse" id="gradient0" spreadMethod="pad" x1="-819.2" x2="819.2">
      <stop offset="0.011764705882352941" stop-color="#4e5f06"/>
      <stop offset="1.0" stop-color="#212703"/>
    </linearGradient>
    <linearGradient gradientTransform="matrix(0.0, 0.0, 0.0, 0.0, 38.9, 5.45)" gradientUnits="userSpaceOnUse" id="gradient1" spreadMethod="pad" x1="-819.2" x2="819.2">
      <stop offset="0.011764705882352941" stop-color="#4e5f06"/>
      <stop offset="1.0" stop-color="#212703"/>
    </linearGradient>
    <linearGradient gradientTransform="matrix(0.0067, 0.025, -0.0189, 0.0051, 28.1, 22.55)" gradientUnits="userSpaceOnUse" id="gradient2" spreadMethod="pad" x1="-819.2" x2="819.2">
      <stop offset="0.011764705882352941" stop-color="#4e5f06"/>
      <stop offset="1.0" stop-color="#212703"/>
    </linearGradient>
    <linearGradient gradientTransform="matrix(1.0E-4, 0.0, 0.0, 0.0, 20.25, 18.4)" gradientUnits="userSpaceOnUse" id="gradient3" spreadMethod="pad" x1="-819.2" x2="819.2">
      <stop offset="0.011764705882352941" stop-color="#4e5f06"/>
      <stop offset="1.0" stop-color="#212703"/>
    </linearGradient>
    <linearGradient gradientTransform="matrix(0.0025, 0.0, 0.0, 0.0032, 36.15, 37.1)" gradientUnits="userSpaceOnUse" id="gradient4" spreadMethod="pad" x1="-819.2" x2="819.2">
      <stop offset="0.011764705882352941" stop-color="#4e5f06"/>
      <stop offset="1.0" stop-color="#212703"/>
    </linearGradient>
    <linearGradient gradientTransform="matrix(0.0073, 0.0127, -0.0235, 0.0136, 15.75, 23.2)" gradientUnits="userSpaceOnUse" id="gradient5" spreadMethod="pad" x1="-819.2" x2="819.2">
      <stop offset="0.011764705882352941" stop-color="#9966cc"/>
      <stop offset="1.0" stop-color="#d69bed"/>
    </linearGradient>
    <linearGradient gradientTransform="matrix(0.0208, 0.0, 0.0, 0.0239, 25.25, 19.6)" gradientUnits="userSpaceOnUse" id="gradient6" spreadMethod="pad" x1="-819.2" x2="819.2">
      <stop offset="0.011764705882352941" stop-color="#8b53c6"/>
      <stop offset="1.0" stop-color="#391155"/>
    </linearGradient>
    <linearGradient gradientTransform="matrix(0.0045, 0.0, 0.0, 0.012, 18.4, 28.2)" gradientUnits="userSpaceOnUse" id="gradient7" spreadMethod="pad" x1="-819.2" x2="819.2">
      <stop offset="0.011764705882352941" stop-color="#8b53c6"/>
      <stop offset="1.0" stop-color="#391155"/>
    </linearGradient>
    <linearGradient gradientTransform="matrix(0.0092, 0.0191, -0.0096, 0.0047, -401.35, 260.1)" gradientUnits="userSpaceOnUse" id="gradient8" spreadMethod="pad" x1="-819.2" x2="819.2">
      <stop offset="0.011764705882352941" stop-color="#4e5f06"/>
      <stop offset="1.0" stop-color="#212703"/>
    </linearGradient>
    <linearGradient gradientTransform="matrix(0.027, 0.0, 0.0, 0.032, 21.15, 25.25)" gradientUnits="userSpaceOnUse" id="gradient9" spreadMethod="pad" x1="-819.2" x2="819.2">
      <stop offset="0.011764705882352941" stop-color="#7b46b0"/>
      <stop offset="1.0" stop-color="#3d145b"/>
    </linearGradient>
    <linearGradient gradientTransform="matrix(0.0064, 0.0, 0.0, 0.0132, 18.95, 28.2)" gradientUnits="userSpaceOnUse" id="gradient10" spreadMethod="pad" x1="-819.2" x2="819.2">
      <stop offset="0.011764705882352941" stop-color="#7b46b0"/>
      <stop offset="1.0" stop-color="#3d145b"/>
    </linearGradient>
  </defs>
</svg>
