<?xml version="1.0" encoding="UTF-8" standalone="no"?>
<svg xmlns:xlink="http://www.w3.org/1999/xlink" height="51.75px" width="46.35px" xmlns="http://www.w3.org/2000/svg">
  <g transform="matrix(1.0, 0.0, 0.0, 1.0, 1.0, 1.0)">
    <path d="M10.95 6.45 L14.6 1.5 15.25 0.65 15.4 0.5 Q16.05 0.0 16.85 0.0 L42.4 0.0 Q43.25 0.0 43.8 0.6 44.45 1.25 44.35 2.15 L43.35 9.8 42.8 10.95 42.7 11.1 42.5 11.3 42.55 11.35 38.65 16.5 38.9 15.75 39.9 8.05 Q40.05 7.15 39.35 6.55 38.85 5.9 37.95 5.9 L12.4 5.9 Q11.65 5.9 10.95 6.45 M9.1 29.35 L13.0 32.05 13.85 32.3 14.95 32.2 Q17.0 31.5 19.95 31.5 L20.1 31.5 21.15 31.6 Q22.3 31.75 23.0 32.3 24.0 33.15 23.85 34.4 23.65 35.85 22.2 36.75 20.5 37.5 18.15 37.5 L14.55 37.25 11.55 36.35 8.75 35.25 7.4 34.75 Q6.95 34.4 6.5 34.35 L8.6 30.15 9.1 29.35 M37.4 39.5 Q38.2 37.45 38.5 35.05 39.0 31.35 38.15 28.55 37.25 25.7 35.1 23.75 32.95 21.75 29.65 20.75 L26.65 20.15 22.3 19.85 19.85 19.95 18.05 20.25 18.75 17.85 36.45 17.85 Q37.35 17.85 38.1 17.25 L38.4 16.95 39.55 17.85 Q41.65 19.75 42.6 22.6 43.45 25.45 42.95 29.1 42.5 32.7 41.0 35.4 L39.45 37.55 37.4 39.5" fill="url(#gradient0)" fill-rule="evenodd" stroke="none"/>
    <path d="M10.95 6.45 Q11.65 5.9 12.4 5.9 L37.95 5.9 Q38.85 5.9 39.35 6.55 40.05 7.15 39.9 8.05 L38.9 15.75 38.65 16.5 38.4 16.95 38.1 17.25 Q37.35 17.85 36.45 17.85 L18.75 17.85 18.05 20.25 19.85 19.95 22.3 19.85 26.65 20.15 29.65 20.75 Q32.95 21.75 35.1 23.75 37.25 25.7 38.15 28.55 39.0 31.35 38.5 35.05 38.2 37.45 37.4 39.5 L36.55 41.3 Q34.95 44.2 32.0 46.15 29.65 47.65 26.65 48.55 22.55 49.75 17.25 49.75 11.25 49.75 7.0 48.55 L3.3 47.45 1.05 46.45 Q0.25 46.15 0.15 45.3 -0.15 44.5 0.25 43.7 L4.2 36.1 4.9 35.0 5.65 34.45 6.5 34.35 Q6.95 34.4 7.4 34.75 L8.75 35.25 11.55 36.35 14.55 37.25 18.15 37.5 Q20.5 37.5 22.2 36.75 23.65 35.85 23.85 34.4 24.0 33.15 23.0 32.3 22.3 31.75 21.15 31.6 L20.1 31.5 19.95 31.5 Q17.0 31.5 14.95 32.2 L13.85 32.3 13.0 32.05 9.1 29.35 6.65 27.65 5.95 26.8 Q5.7 26.2 5.8 25.55 L10.05 7.8 Q10.1 7.4 10.5 7.0 L10.85 6.55 10.95 6.45" fill="url(#gradient1)" fill-rule="evenodd" stroke="none"/>
    <path d="M42.7 11.1 L42.8 10.95 43.35 9.8 44.35 2.15 Q44.45 1.25 43.8 0.6 43.25 0.0 42.4 0.0 L16.85 0.0 Q16.05 0.0 15.4 0.5 L15.25 0.65 14.6 1.5 10.95 6.45 Q11.65 5.9 12.4 5.9 L37.95 5.9 Q38.85 5.9 39.35 6.55 40.05 7.15 39.9 8.05 L38.9 15.75 38.65 16.5 42.55 11.35 42.7 11.1 M10.95 6.45 L10.85 6.55 10.5 7.0 Q10.1 7.4 10.05 7.8 L5.8 25.55 Q5.7 26.2 5.95 26.8 L6.65 27.65 9.1 29.35 13.0 32.05 13.85 32.3 14.95 32.2 Q17.0 31.5 19.95 31.5 L20.1 31.5 21.15 31.6 Q22.3 31.75 23.0 32.3 24.0 33.15 23.85 34.4 23.65 35.85 22.2 36.75 20.5 37.5 18.15 37.5 L14.55 37.25 11.55 36.35 8.75 35.25 7.4 34.75 Q6.95 34.4 6.5 34.35 L5.65 34.45 4.9 35.0 4.2 36.1 0.25 43.7 Q-0.15 44.5 0.15 45.3 0.25 46.15 1.05 46.45 L3.3 47.45 7.0 48.55 Q11.25 49.75 17.25 49.75 22.55 49.75 26.65 48.55 29.65 47.65 32.0 46.15 34.95 44.2 36.55 41.3 L37.4 39.5 Q38.2 37.45 38.5 35.05 39.0 31.35 38.15 28.55 37.25 25.7 35.1 23.75 32.95 21.75 29.65 20.75 L26.65 20.15 22.3 19.85 19.85 19.95 18.05 20.25 18.75 17.85 36.45 17.85 Q37.35 17.85 38.1 17.25 L38.4 16.95 38.65 16.5 M37.4 39.5 L39.45 37.55 41.0 35.4 Q42.5 32.7 42.95 29.1 43.45 25.45 42.6 22.6 41.65 19.75 39.55 17.85 L38.4 16.95 M39.45 37.55 L36.55 41.3 M9.1 29.35 L8.6 30.15 4.9 35.0" fill="none" stroke="url(#gradient2)" stroke-linecap="round" stroke-linejoin="round" stroke-width="2.0"/>
    <path d="M12.4 9.9 L12.25 10.15 12.25 10.25 8.15 27.45 7.25 26.85 7.3 26.85 6.85 26.35 6.8 25.7 6.8 25.8 11.05 8.05 11.05 7.95 11.2 7.7 11.55 7.25 11.6 7.25 Q12.0 6.9 12.4 6.9 L37.95 6.9 Q38.35 6.9 38.55 7.15 L38.7 7.3 38.95 7.9 38.9 7.95 38.75 9.1 13.6 9.1 Q13.2 9.1 12.8 9.45 L12.75 9.45 12.4 9.9 M19.95 20.95 L22.3 20.85 26.5 21.15 26.55 21.15 29.4 21.7 29.35 21.7 Q32.4 22.65 34.45 24.5 36.1 26.0 36.95 28.1 L35.65 26.7 Q33.6 24.85 30.55 23.9 L30.6 23.9 27.75 23.35 27.7 23.35 23.5 23.05 19.5 23.0 19.15 23.0 18.15 23.15 17.4 23.2 16.8 22.75 Q16.6 22.35 16.7 22.0 L17.25 20.8 17.8 21.2 18.55 21.15 18.65 21.1 19.9 20.95 19.95 20.95 M24.9 33.8 Q26.25 34.95 26.05 36.75 25.8 38.65 23.95 39.8 L23.8 39.9 Q21.95 40.7 19.35 40.7 L15.6 40.45 12.35 39.5 12.4 39.5 9.6 38.4 8.35 37.95 8.0 37.75 7.6 37.55 7.25 37.6 6.75 37.95 6.35 38.7 6.3 38.8 2.55 46.1 1.6 45.6 1.4 45.55 1.15 45.2 1.1 44.95 Q0.95 44.55 1.15 44.15 L1.15 44.2 5.1 36.6 5.15 36.5 Q5.3 36.05 5.55 35.75 5.75 35.55 6.05 35.4 L6.4 35.35 6.8 35.55 7.15 35.75 Q7.35 35.75 8.4 36.2 L11.2 37.3 11.15 37.3 14.4 38.25 18.15 38.5 Q20.75 38.5 22.6 37.7 L22.75 37.6 Q24.6 36.45 24.85 34.55 L24.9 33.8" fill="#ffffff" fill-opacity="0.3019608" fill-rule="evenodd" stroke="none"/>
  </g>
  <defs>
    <linearGradient gradientTransform="matrix(0.0049, 0.0132, -0.0189, 0.007, 30.85, 12.65)" gradientUnits="userSpaceOnUse" id="gradient0" spreadMethod="pad" x1="-819.2" x2="819.2">
      <stop offset="0.011764705882352941" stop-color="#4e5f06"/>
      <stop offset="1.0" stop-color="#212703"/>
    </linearGradient>
    <linearGradient gradientTransform="matrix(0.0056, 0.0145, -0.0289, 0.0111, 18.1, 21.3)" gradientUnits="userSpaceOnUse" id="gradient1" spreadMethod="pad" x1="-819.2" x2="819.2">
      <stop offset="0.011764705882352941" stop-color="#809f0a"/>
      <stop offset="1.0" stop-color="#acd40e"/>
    </linearGradient>
    <linearGradient gradientTransform="matrix(0.0092, 0.0191, -0.0096, 0.0047, -199.45, 132.95)" gradientUnits="userSpaceOnUse" id="gradient2" spreadMethod="pad" x1="-819.2" x2="819.2">
      <stop offset="0.011764705882352941" stop-color="#4e5f06"/>
      <stop offset="1.0" stop-color="#212703"/>
    </linearGradient>
  </defs>
</svg>
