<?xml version="1.0" encoding="UTF-8" standalone="no"?>
<svg xmlns:xlink="http://www.w3.org/1999/xlink" height="43.0px" width="86.0px" xmlns="http://www.w3.org/2000/svg">
  <g transform="matrix(1.0, 0.0, 0.0, 1.0, 43.0, 21.5)">
    <path d="M0.1 21.5 L-43.0 0.0 0.1 -21.5 43.0 0.0 0.1 21.5" fill="#00cccc" fill-opacity="0.0" fill-rule="evenodd" stroke="none"/>
    <path d="M20.1 -0.5 Q20.05 -4.75 14.2 -7.75 8.3 -10.8 -0.1 -10.8 -8.45 -10.8 -14.3 -7.75 -20.2 -4.75 -20.2 -0.5 -20.2 3.75 -14.3 6.7 -8.45 9.7 -0.1 9.75 8.3 9.7 14.2 6.7 20.05 3.75 20.1 -0.5 M16.6 8.5 Q9.75 12.0 -0.05 12.0 -9.8 12.0 -16.65 8.5 -23.6 4.95 -23.6 0.0 -23.6 -4.95 -16.65 -8.45 -9.8 -12.0 -0.05 -12.0 9.75 -12.0 16.6 -8.45 23.5 -4.95 23.5 0.0 23.5 4.95 16.6 8.5" fill="#000000" fill-rule="evenodd" stroke="none"/>
  </g>
</svg>
