<?xml version="1.0" encoding="UTF-8" standalone="no"?>
<svg xmlns:xlink="http://www.w3.org/1999/xlink" height="51.05px" width="30.35px" xmlns="http://www.w3.org/2000/svg">
  <g transform="matrix(1.0, 0.0, 0.0, 1.0, 1.0, 1.0)">
    <path d="M6.3 5.9 L5.85 6.5 6.2 5.95 6.3 5.9" fill="url(#gradient0)" fill-rule="evenodd" stroke="none"/>
    <path d="M1.7 12.0 L1.75 11.9 1.85 11.85 1.7 12.0" fill="url(#gradient1)" fill-rule="evenodd" stroke="none"/>
    <path d="M1.85 11.85 L3.05 11.2 5.15 10.7 6.55 10.25 9.05 9.4 11.05 8.25 13.75 5.9 22.15 5.9 Q23.05 5.9 23.5 6.55 24.0 7.25 23.9 8.05 L18.95 46.9 18.55 48.05 18.4 48.25 18.2 48.45 Q17.5 49.05 16.55 49.05 L6.95 49.05 Q6.15 49.05 5.6 48.45 5.0 47.75 5.15 46.9 L8.45 21.2 Q7.6 22.1 5.9 22.7 L2.4 23.75 Q1.3 24.1 0.6 23.5 -0.1 22.85 0.05 21.65 L1.1 13.25 1.5 12.2 1.7 12.0 1.85 11.85" fill="url(#gradient2)" fill-rule="evenodd" stroke="none"/>
    <path d="M6.3 5.9 Q6.8 5.45 7.45 5.3 L11.0 4.35 13.55 3.45 15.5 2.3 18.2 0.0 26.6 0.0 Q27.5 0.0 27.9 0.6 28.45 1.3 28.35 2.15 L23.4 41.05 23.2 41.7 22.7 42.45 22.65 42.5 22.6 42.6 18.55 48.05 18.95 46.9 23.9 8.05 Q24.0 7.25 23.5 6.55 23.05 5.9 22.15 5.9 L13.75 5.9 11.05 8.25 9.05 9.4 6.55 10.25 5.15 10.7 3.05 11.2 1.85 11.85 5.85 6.5 6.3 5.9" fill="url(#gradient3)" fill-rule="evenodd" stroke="none"/>
    <path d="M18.55 48.05 L22.6 42.6 22.65 42.5 22.7 42.45 23.2 41.7 23.4 41.05 28.35 2.15 Q28.45 1.3 27.9 0.6 27.5 0.0 26.6 0.0 L18.2 0.0 15.5 2.3 13.55 3.45 11.0 4.35 7.45 5.3 Q6.8 5.45 6.3 5.9 L5.85 6.5 1.85 11.85 3.05 11.2 5.15 10.7 6.55 10.25 9.05 9.4 11.05 8.25 13.75 5.9 22.15 5.9 Q23.05 5.9 23.5 6.55 24.0 7.25 23.9 8.05 L18.95 46.9 18.55 48.05 18.4 48.25 18.2 48.45 Q17.5 49.05 16.55 49.05 L6.95 49.05 Q6.15 49.05 5.6 48.45 5.0 47.75 5.15 46.9 L8.45 21.2 Q7.6 22.1 5.9 22.7 L2.4 23.75 Q1.3 24.1 0.6 23.5 -0.1 22.85 0.05 21.65 L1.1 13.25 1.5 12.2 1.7 12.0 1.75 11.9 1.85 11.85 1.7 12.0 M6.3 5.9 L6.2 5.95 5.85 6.5 M22.7 42.45 L22.6 42.6" fill="none" stroke="url(#gradient4)" stroke-linecap="round" stroke-linejoin="round" stroke-width="2.0"/>
    <path d="M5.45 11.65 L6.8 11.25 6.9 11.2 9.45 10.3 9.45 10.35 11.65 9.1 11.7 9.05 14.15 6.9 22.15 6.9 Q22.5 6.9 22.7 7.15 L22.9 7.95 22.75 9.1 15.35 9.1 12.9 11.25 12.85 11.3 10.65 12.55 10.65 12.5 8.1 13.4 8.0 13.45 6.65 13.85 6.6 13.9 4.5 14.4 4.55 14.35 Q4.05 14.5 3.75 14.8 L3.65 14.85 3.55 15.0 Q3.35 15.3 3.3 15.65 L3.3 15.6 2.4 22.75 2.2 22.8 2.1 22.8 1.25 22.75 Q0.95 22.4 1.05 21.8 L2.1 13.4 2.1 13.45 Q2.15 13.1 2.35 12.8 L2.45 12.65 2.55 12.6 Q2.85 12.3 3.35 12.15 L3.3 12.2 5.4 11.7 5.45 11.65 M8.55 20.2 L10.3 20.0 10.75 20.45 10.85 21.05 7.5 48.05 6.95 48.05 6.35 47.8 Q6.05 47.45 6.15 47.1 L6.15 47.05 9.45 21.35 9.35 20.75 8.9 20.3 8.55 20.2" fill="#ffffff" fill-opacity="0.3019608" fill-rule="evenodd" stroke="none"/>
  </g>
  <defs>
    <linearGradient gradientTransform="matrix(3.0E-4, 0.0, 0.0, 4.0E-4, 6.05, 6.2)" gradientUnits="userSpaceOnUse" id="gradient0" spreadMethod="pad" x1="-819.2" x2="819.2">
      <stop offset="0.011764705882352941" stop-color="#4e5f06"/>
      <stop offset="1.0" stop-color="#212703"/>
    </linearGradient>
    <linearGradient gradientTransform="matrix(1.0E-4, 0.0, 0.0, 1.0E-4, 1.75, 11.9)" gradientUnits="userSpaceOnUse" id="gradient1" spreadMethod="pad" x1="-819.2" x2="819.2">
      <stop offset="0.011764705882352941" stop-color="#4e5f06"/>
      <stop offset="1.0" stop-color="#212703"/>
    </linearGradient>
    <linearGradient gradientTransform="matrix(0.0057, 0.0212, -0.0168, 0.0045, 14.95, 29.05)" gradientUnits="userSpaceOnUse" id="gradient2" spreadMethod="pad" x1="-819.2" x2="819.2">
      <stop offset="0.011764705882352941" stop-color="#9966cc"/>
      <stop offset="1.0" stop-color="#d69bed"/>
    </linearGradient>
    <linearGradient gradientTransform="matrix(0.0322, 0.0, 0.0, 0.0172, 20.4, 12.15)" gradientUnits="userSpaceOnUse" id="gradient3" spreadMethod="pad" x1="-819.2" x2="819.2">
      <stop offset="0.011764705882352941" stop-color="#8b53c6"/>
      <stop offset="1.0" stop-color="#391155"/>
    </linearGradient>
    <linearGradient gradientTransform="matrix(0.0185, 0.0, 0.0, 0.0312, 14.15, 24.5)" gradientUnits="userSpaceOnUse" id="gradient4" spreadMethod="pad" x1="-819.2" x2="819.2">
      <stop offset="0.011764705882352941" stop-color="#7b46b0"/>
      <stop offset="1.0" stop-color="#3d145b"/>
    </linearGradient>
  </defs>
</svg>
