<?xml version="1.0" encoding="UTF-8" standalone="no"?>
<svg xmlns:xlink="http://www.w3.org/1999/xlink" height="51.05px" width="46.0px" xmlns="http://www.w3.org/2000/svg">
  <g transform="matrix(1.0, 0.0, 0.0, 1.0, 1.0, 1.0)">
    <path d="M6.1 24.15 L5.75 24.55 5.75 24.45 6.1 24.15" fill="url(#gradient0)" fill-rule="evenodd" stroke="none"/>
    <path d="M32.75 42.6 L35.7 42.6 35.05 43.0 34.15 43.15 32.7 43.15 32.75 42.6" fill="url(#gradient1)" fill-rule="evenodd" stroke="none"/>
    <path d="M5.65 25.8 L23.3 6.75 24.25 6.2 Q24.8 5.9 25.15 5.9 L35.25 5.9 Q36.15 5.9 36.7 6.55 37.3 7.2 37.2 8.05 L34.35 30.15 37.7 30.15 Q38.6 30.15 39.2 30.8 39.65 31.5 39.6 32.3 L38.5 40.45 38.45 41.0 37.75 41.95 Q37.05 42.6 36.1 42.6 L35.7 42.6 32.75 42.6 32.15 46.9 32.1 47.4 31.35 48.45 Q30.65 49.05 29.75 49.05 L19.35 49.05 Q18.45 49.05 17.95 48.45 17.35 47.75 17.45 46.9 L18.0 42.6 1.9 42.6 Q1.0 42.6 0.5 42.0 -0.1 41.4 0.0 40.5 L1.35 30.4 5.65 25.8 M20.35 24.25 L20.7 21.3 18.05 24.25 12.55 30.15 19.6 30.15 20.35 24.25" fill="url(#gradient2)" fill-rule="evenodd" stroke="none"/>
    <path d="M6.1 24.15 L27.75 0.8 Q28.1 0.45 28.65 0.25 L29.65 0.0 39.65 0.0 Q40.6 0.0 41.2 0.6 41.7 1.25 41.65 2.15 L38.8 24.25 42.2 24.25 Q43.05 24.25 43.6 24.85 44.1 25.55 44.0 26.45 L42.95 34.55 42.55 35.65 42.5 35.7 42.45 35.85 42.25 36.0 42.3 36.05 38.45 41.0 38.5 40.45 39.6 32.3 Q39.65 31.5 39.2 30.8 38.6 30.15 37.7 30.15 L34.35 30.15 37.2 8.05 Q37.3 7.2 36.7 6.55 36.15 5.9 35.25 5.9 L25.15 5.9 Q24.8 5.9 24.25 6.2 L23.3 6.75 5.65 25.8 5.75 24.55 6.1 24.15 M20.35 24.25 L19.6 30.15 12.55 30.15 18.05 24.25 20.35 24.25" fill="url(#gradient3)" fill-rule="evenodd" stroke="none"/>
    <path d="M42.45 35.85 L42.5 35.7 42.55 35.65 42.95 34.55 44.0 26.45 Q44.1 25.55 43.6 24.85 43.05 24.25 42.2 24.25 L38.8 24.25 41.65 2.15 Q41.7 1.25 41.2 0.6 40.6 0.0 39.65 0.0 L29.65 0.0 28.65 0.25 Q28.1 0.45 27.75 0.8 L6.1 24.15 5.75 24.55 5.65 25.8 23.3 6.75 24.25 6.2 Q24.8 5.9 25.15 5.9 L35.25 5.9 Q36.15 5.9 36.7 6.55 37.3 7.2 37.2 8.05 L34.35 30.15 37.7 30.15 Q38.6 30.15 39.2 30.8 39.65 31.5 39.6 32.3 L38.5 40.45 38.45 41.0 42.3 36.05 42.45 35.85 M6.1 24.15 L5.75 24.45 5.75 24.55 1.35 30.4 5.65 25.8 M1.35 30.4 L0.0 40.5 Q-0.1 41.4 0.5 42.0 1.0 42.6 1.9 42.6 L18.0 42.6 17.45 46.9 Q17.35 47.75 17.95 48.45 18.45 49.05 19.35 49.05 L29.75 49.05 Q30.65 49.05 31.35 48.45 L32.1 47.4 32.15 46.9 32.75 42.6 35.7 42.6 36.1 42.6 Q37.05 42.6 37.75 41.95 L38.45 41.0 M32.7 43.15 L34.15 43.15 35.05 43.0 35.7 42.6 M35.05 43.0 L32.1 47.4" fill="none" stroke="url(#gradient4)" stroke-linecap="round" stroke-linejoin="round" stroke-width="2.0"/>
    <path d="M18.05 24.25 L20.7 21.3 20.35 24.25 19.6 30.15 12.55 30.15 18.05 24.25" fill="none" stroke="url(#gradient5)" stroke-linecap="round" stroke-linejoin="round" stroke-width="2.0"/>
    <path d="M22.3 20.2 L22.8 20.6 22.9 21.2 22.55 26.55 22.55 26.6 21.8 32.5 21.5 33.1 20.8 33.35 12.35 33.35 11.65 33.1 Q11.35 32.8 11.35 32.4 L11.6 30.4 11.85 30.9 12.55 31.15 19.6 31.15 20.3 30.9 20.6 30.3 21.35 24.4 21.35 24.35 21.7 21.4 21.6 20.8 21.1 20.4 20.75 20.3 22.3 20.2 M24.6 7.15 L24.75 7.1 25.15 6.9 35.25 6.9 Q35.65 6.9 35.95 7.2 L36.0 7.25 36.2 7.95 36.05 9.1 26.35 9.1 25.95 9.3 25.8 9.35 Q25.45 9.45 25.25 9.65 L3.5 33.05 2.4 41.6 1.9 41.6 1.3 41.35 1.2 41.3 Q0.95 41.0 1.0 40.65 L2.3 30.85 24.05 7.45 Q24.25 7.25 24.6 7.15 M38.4 31.4 L38.6 32.2 38.45 33.35 34.15 33.35 33.65 33.2 33.25 32.8 33.15 32.25 33.35 30.1 33.45 30.6 33.85 31.0 34.35 31.15 37.7 31.15 38.35 31.35 38.4 31.4 M18.55 41.75 L18.15 41.6 20.15 41.85 20.5 42.3 20.6 42.85 19.8 48.05 19.35 48.05 18.75 47.8 18.7 47.8 Q18.4 47.45 18.45 47.05 L19.0 42.75 18.9 42.2 18.55 41.75" fill="#ffffff" fill-opacity="0.3019608" fill-rule="evenodd" stroke="none"/>
  </g>
  <defs>
    <linearGradient gradientTransform="matrix(2.0E-4, 0.0, 0.0, 2.0E-4, 5.9, 24.35)" gradientUnits="userSpaceOnUse" id="gradient0" spreadMethod="pad" x1="-819.2" x2="819.2">
      <stop offset="0.011764705882352941" stop-color="#4e5f06"/>
      <stop offset="1.0" stop-color="#212703"/>
    </linearGradient>
    <linearGradient gradientTransform="matrix(0.0018, 0.0, 0.0, 3.0E-4, 34.2, 42.85)" gradientUnits="userSpaceOnUse" id="gradient1" spreadMethod="pad" x1="-819.2" x2="819.2">
      <stop offset="0.011764705882352941" stop-color="#4e5f06"/>
      <stop offset="1.0" stop-color="#212703"/>
    </linearGradient>
    <linearGradient gradientTransform="matrix(0.0065, 0.0113, -0.026, 0.0149, 18.45, 24.05)" gradientUnits="userSpaceOnUse" id="gradient2" spreadMethod="pad" x1="-819.2" x2="819.2">
      <stop offset="0.011764705882352941" stop-color="#9966cc"/>
      <stop offset="1.0" stop-color="#d69bed"/>
    </linearGradient>
    <linearGradient gradientTransform="matrix(0.0325, 0.0071, -0.0017, 0.0077, 32.8, 6.6)" gradientUnits="userSpaceOnUse" id="gradient3" spreadMethod="pad" x1="-819.2" x2="819.2">
      <stop offset="0.011764705882352941" stop-color="#8b53c6"/>
      <stop offset="1.0" stop-color="#391155"/>
    </linearGradient>
    <linearGradient gradientTransform="matrix(0.0254, 0.0, 0.0, 0.0276, 19.8, 27.45)" gradientUnits="userSpaceOnUse" id="gradient4" spreadMethod="pad" x1="-819.2" x2="819.2">
      <stop offset="0.011764705882352941" stop-color="#7b46b0"/>
      <stop offset="1.0" stop-color="#3d145b"/>
    </linearGradient>
    <linearGradient gradientTransform="matrix(0.0062, 0.0, 0.0, 0.0066, 16.6, 25.7)" gradientUnits="userSpaceOnUse" id="gradient5" spreadMethod="pad" x1="-819.2" x2="819.2">
      <stop offset="0.011764705882352941" stop-color="#7b46b0"/>
      <stop offset="1.0" stop-color="#3d145b"/>
    </linearGradient>
  </defs>
</svg>
