<?xml version="1.0" encoding="UTF-8" standalone="no"?>
<svg xmlns:xlink="http://www.w3.org/1999/xlink" height="52.5px" width="43.1px" xmlns="http://www.w3.org/2000/svg">
  <g transform="matrix(1.0, 0.0, 0.0, 1.0, 1.0, 1.0)">
    <path d="M6.15 10.0 L6.7 9.6 Q12.0 5.95 20.75 5.95 29.8 5.95 33.2 10.85 37.8 16.15 36.3 27.8 35.5 34.0 33.65 38.4 L33.2 39.45 32.75 40.3 Q31.1 43.4 28.65 45.45 22.65 50.5 13.7 50.5 L5.95 49.8 1.85 48.8 Q0.55 48.0 0.2 47.4 L0.0 46.35 1.0 38.6 Q1.15 37.3 2.15 36.75 L2.2 36.7 4.35 36.6 4.95 36.9 6.55 37.7 11.65 39.25 11.75 39.3 11.8 39.3 15.15 39.45 Q19.0 39.45 20.1 36.55 L20.7 35.35 Q20.75 35.0 20.4 34.9 L18.5 35.25 14.95 35.5 Q9.05 35.5 5.4 33.25 L3.4 31.6 Q-0.35 27.75 0.55 20.7 1.0 16.85 2.7 13.95 L4.4 11.65 6.15 10.0 M19.15 17.0 Q17.25 17.05 16.05 18.05 14.85 19.05 14.65 20.95 14.1 25.05 18.3 25.05 19.95 25.05 21.55 24.15 L22.2 23.35 22.95 21.95 22.9 19.65 22.85 19.1 22.75 18.3 Q22.25 17.0 19.3 17.0 L19.15 17.0" fill="url(#gradient0)" fill-rule="evenodd" stroke="none"/>
    <path d="M19.15 17.0 Q19.8 19.1 22.75 19.1 L22.85 19.1 22.9 19.65 22.95 21.95 22.2 23.35 21.55 24.15 Q19.95 25.05 18.3 25.05 14.1 25.05 14.65 20.95 14.85 19.05 16.05 18.05 17.25 17.05 19.15 17.0" fill="url(#gradient1)" fill-rule="evenodd" stroke="none"/>
    <path d="M6.15 10.0 Q6.7 8.6 7.55 7.4 L7.75 7.1 8.05 6.75 8.8 5.8 Q9.8 4.6 11.2 3.65 16.45 0.0 25.2 0.0 34.3 0.0 37.65 4.95 42.25 10.25 40.75 21.9 39.95 28.1 38.1 32.5 L37.2 34.4 Q35.75 37.0 33.8 38.9 L33.2 39.45 33.65 38.4 Q35.5 34.0 36.3 27.8 37.8 16.15 33.2 10.85 29.8 5.95 20.75 5.95 12.0 5.95 6.7 9.6 L6.15 10.0 M5.4 33.25 Q9.05 35.5 14.95 35.5 L18.5 35.25 20.4 34.9 Q20.75 35.0 20.7 35.35 L20.1 36.55 Q19.0 39.45 15.15 39.45 L11.8 39.3 11.75 39.3 11.65 39.25 6.55 37.7 4.95 36.9 4.35 36.6 2.2 36.7 5.35 33.6 5.4 33.25" fill="url(#gradient2)" fill-rule="evenodd" stroke="none"/>
    <path d="M33.2 39.45 L33.8 38.9 Q35.75 37.0 37.2 34.4 L38.1 32.5 Q39.95 28.1 40.75 21.9 42.25 10.25 37.65 4.95 34.3 0.0 25.2 0.0 16.45 0.0 11.2 3.65 9.8 4.6 8.8 5.8 L8.05 6.75 7.75 7.1 7.55 7.4 Q6.7 8.6 6.15 10.0 L6.7 9.6 Q12.0 5.95 20.75 5.95 29.8 5.95 33.2 10.85 37.8 16.15 36.3 27.8 35.5 34.0 33.65 38.4 L33.2 39.45 32.75 40.3 33.8 38.9 M22.85 19.1 L22.75 19.1 Q19.8 19.1 19.15 17.0 17.25 17.05 16.05 18.05 14.85 19.05 14.65 20.95 14.1 25.05 18.3 25.05 19.95 25.05 21.55 24.15 L22.2 23.35 22.95 21.95 22.9 19.65 22.85 19.1 22.75 18.3 Q22.25 17.0 19.3 17.0 L19.15 17.0 M4.4 11.65 L7.55 7.4 M6.15 10.0 L4.4 11.65 2.7 13.95 Q1.0 16.85 0.55 20.7 -0.35 27.75 3.4 31.6 L5.4 33.25 Q9.05 35.5 14.95 35.5 L18.5 35.25 20.4 34.9 Q20.75 35.0 20.7 35.35 L20.1 36.55 Q19.0 39.45 15.15 39.45 L11.8 39.3 11.75 39.3 11.65 39.25 6.55 37.7 4.95 36.9 4.35 36.6 2.2 36.7 2.15 36.75 Q1.15 37.3 1.0 38.6 L0.0 46.35 0.2 47.4 Q0.55 48.0 1.85 48.8 L5.95 49.8 13.7 50.5 Q22.65 50.5 28.65 45.45 31.1 43.4 32.75 40.3 M5.4 33.25 L5.35 33.6 2.2 36.7" fill="none" stroke="url(#gradient3)" stroke-linecap="round" stroke-linejoin="round" stroke-width="2.0"/>
    <path d="M7.35 10.4 L7.3 10.45 Q12.35 6.95 20.75 6.95 29.2 6.95 32.4 11.45 L32.45 11.5 Q33.55 12.8 34.3 14.55 L33.65 13.7 33.6 13.65 Q30.4 9.15 21.95 9.15 13.55 9.15 8.5 12.65 L8.55 12.6 8.0 13.0 6.35 14.55 4.8 16.65 Q3.2 19.4 2.75 23.05 2.2 27.1 3.35 30.0 0.8 26.55 1.55 20.85 2.0 17.2 3.6 14.45 L5.15 12.35 Q5.9 11.5 6.8 10.8 L7.35 10.4 M23.1 36.5 L23.0 36.85 22.4 38.0 Q21.1 41.45 18.1 42.0 L14.2 42.4 Q13.35 42.25 12.55 42.4 L7.35 40.85 7.3 40.8 5.75 40.0 5.65 40.0 5.2 39.75 3.9 39.8 3.75 39.85 3.85 39.85 Q3.3 40.15 3.2 40.95 L2.3 47.9 1.1 46.95 1.0 46.45 2.0 38.75 Q2.1 37.95 2.65 37.65 L2.55 37.65 2.7 37.6 4.0 37.55 4.45 37.8 4.55 37.8 6.1 38.6 6.15 38.65 11.35 40.2 11.4 40.25 11.75 40.3 15.15 40.45 Q19.7 40.45 21.0 37.0 L21.4 36.15 21.6 35.85 21.7 35.5 21.7 34.95 22.1 34.95 Q23.3 35.3 23.1 36.5 M15.75 26.9 Q15.05 26.2 14.85 25.0 16.0 26.05 18.3 26.05 20.15 26.05 21.95 25.1 22.6 24.9 23.1 23.85 L23.9 22.3 23.95 21.95 23.9 19.6 23.85 18.9 23.85 18.85 Q24.65 19.3 24.9 20.15 L24.95 20.35 25.05 21.1 25.1 21.8 25.15 24.15 25.1 24.5 24.3 26.05 Q23.8 27.1 23.15 27.3 21.35 28.25 19.5 28.25 16.85 28.25 15.75 26.9 M2.2 37.7 L2.4 37.7 2.15 37.75 2.2 37.7" fill="#ffffff" fill-opacity="0.3019608" fill-rule="evenodd" stroke="none"/>
  </g>
  <defs>
    <linearGradient gradientTransform="matrix(0.0129, 0.0224, -0.0249, 0.0143, 16.4, 28.4)" gradientUnits="userSpaceOnUse" id="gradient0" spreadMethod="pad" x1="-819.2" x2="819.2">
      <stop offset="0.011764705882352941" stop-color="#9966cc"/>
      <stop offset="1.0" stop-color="#d69bed"/>
    </linearGradient>
    <linearGradient gradientTransform="matrix(1.0, 0.0, 0.0, 1.0, 0.0, 0.0)" gradientUnits="userSpaceOnUse" id="gradient1" spreadMethod="pad" x1="-819.2" x2="819.2">
      <stop offset="0.011764705882352941" stop-color="#8b53c6"/>
      <stop offset="1.0" stop-color="#391155"/>
    </linearGradient>
    <linearGradient gradientTransform="matrix(0.028, 0.0, 0.0, 0.0201, 26.0, 19.85)" gradientUnits="userSpaceOnUse" id="gradient2" spreadMethod="pad" x1="-819.2" x2="819.2">
      <stop offset="0.011764705882352941" stop-color="#8b53c6"/>
      <stop offset="1.0" stop-color="#391155"/>
    </linearGradient>
    <linearGradient gradientTransform="matrix(0.0423, -0.0294, 0.0183, 0.0262, 20.3, 25.45)" gradientUnits="userSpaceOnUse" id="gradient3" spreadMethod="pad" x1="-819.2" x2="819.2">
      <stop offset="0.011764705882352941" stop-color="#7b46b0"/>
      <stop offset="1.0" stop-color="#3d145b"/>
    </linearGradient>
  </defs>
</svg>
