<?xml version="1.0" encoding="UTF-8" standalone="no"?>
<svg xmlns:xlink="http://www.w3.org/1999/xlink" height="24.35px" width="13.65px" xmlns="http://www.w3.org/2000/svg">
  <g transform="matrix(1.0, 0.0, 0.0, 1.0, 6.45, 22.3)">
    <path d="M2.4 -20.75 Q6.2 -19.65 6.2 -14.8 L6.2 -14.75 6.1 -14.0 3.65 -13.65 3.95 -14.4 3.95 -14.45 Q4.35 -16.05 3.85 -17.0 3.3 -18.05 1.8 -18.35 L1.75 -18.35 1.4 -18.35 Q-1.05 -18.45 -1.3 -15.85 -1.85 -14.4 -2.6 -13.9 L-4.25 -13.85 -4.25 -13.9 -4.6 -14.1 -4.7 -14.15 Q-5.45 -14.7 -5.4 -15.75 L-4.4 -17.05 Q-3.0 -18.55 -1.25 -19.0 0.9 -19.45 2.4 -20.75" fill="#e2fe1f" fill-rule="evenodd" stroke="none"/>
    <path d="M-5.4 -15.75 L-5.1 -17.25 Q-3.15 -21.0 0.45 -21.05 L2.4 -20.75 Q0.9 -19.45 -1.25 -19.0 -3.0 -18.55 -4.4 -17.05 L-5.4 -15.75 M6.1 -14.0 Q5.6 -12.6 3.25 -10.1 L2.8 -9.6 2.75 -9.55 2.8 -9.45 Q1.65 -8.0 2.15 -6.45 2.15 -4.95 -0.15 -4.65 L-1.0 -4.8 -1.7 -5.2 Q-2.2 -5.65 -2.25 -6.3 L-2.25 -6.35 -2.25 -7.35 -1.85 -8.65 Q-1.25 -9.8 0.2 -10.7 2.85 -12.4 3.65 -13.65 L6.1 -14.0 M-4.25 -13.85 L-4.25 -13.9 -4.25 -13.85" fill="url(#gradient0)" fill-rule="evenodd" stroke="none"/>
    <path d="M0.2 -10.7 L0.15 -10.7 0.2 -10.7" fill="url(#gradient1)" fill-rule="evenodd" stroke="none"/>
    <path d="M-0.15 -1.7 Q0.9 -1.7 1.6 -1.15 2.3 -0.6 2.3 0.15 2.3 0.9 1.6 1.5 0.9 2.05 -0.15 2.05 L-0.5 2.05 -0.9 2.0 Q-1.45 1.85 -1.85 1.5 -2.55 0.9 -2.55 0.15 -2.55 -0.6 -1.9 -1.15 L-1.85 -1.15 Q-1.15 -1.7 -0.15 -1.7" fill="url(#gradient2)" fill-rule="evenodd" stroke="none"/>
    <path d="M4.85 -11.4 Q6.8 -13.75 6.7 -15.05 6.7 -21.5 0.45 -21.8 -3.45 -21.8 -5.6 -17.7 -6.7 -14.65 -4.45 -13.7 -2.2 -12.65 -1.05 -15.85 -0.8 -18.35 1.7 -18.1 4.2 -17.65 3.45 -14.8 3.15 -13.4 -0.1 -11.4 L-1.9 -9.8" fill="none" stroke="#ffffcc" stroke-linecap="round" stroke-linejoin="round" stroke-opacity="0.4509804" stroke-width="1.0"/>
  </g>
  <defs>
    <linearGradient gradientTransform="matrix(5.0E-4, 0.0087, -0.007, 4.0E-4, 0.6, -12.3)" gradientUnits="userSpaceOnUse" id="gradient0" spreadMethod="pad" x1="-819.2" x2="819.2">
      <stop offset="0.050980392156862744" stop-color="#66cc00"/>
      <stop offset="1.0" stop-color="#a5e12a"/>
    </linearGradient>
    <linearGradient gradientTransform="matrix(0.0054, 0.007, -0.0059, 0.0046, 18.4, -13.55)" gradientUnits="userSpaceOnUse" id="gradient1" spreadMethod="pad" x1="-819.2" x2="819.2">
      <stop offset="0.050980392156862744" stop-color="#66cc00"/>
      <stop offset="1.0" stop-color="#a5e12a"/>
    </linearGradient>
    <linearGradient gradientTransform="matrix(3.0E-4, 0.0024, -0.0029, 4.0E-4, 0.05, 1.15)" gradientUnits="userSpaceOnUse" id="gradient2" spreadMethod="pad" x1="-819.2" x2="819.2">
      <stop offset="0.050980392156862744" stop-color="#66cc00"/>
      <stop offset="1.0" stop-color="#a5e12a"/>
    </linearGradient>
  </defs>
</svg>
