<?xml version="1.0" encoding="UTF-8" standalone="no"?>
<svg xmlns:xlink="http://www.w3.org/1999/xlink" height="23.1px" width="12.6px" xmlns="http://www.w3.org/2000/svg">
  <g transform="matrix(1.0, 0.0, 0.0, 1.0, 5.4, 21.05)">
    <path d="M5.75 -13.3 L4.9 -12.0 3.25 -10.1 2.8 -9.6 2.75 -9.55 2.8 -9.45 Q1.65 -8.0 2.15 -6.45 2.15 -4.95 -0.15 -4.65 L-1.0 -4.8 -1.7 -5.2 Q-2.2 -5.65 -2.25 -6.3 L-2.25 -6.35 Q-2.6 -9.0 0.2 -10.7 L2.05 -12.0 3.55 -13.55 5.75 -13.3" fill="#f9fe85" fill-rule="evenodd" stroke="none"/>
    <path d="M3.55 -13.55 L3.95 -14.45 3.95 -14.4 Q4.35 -16.05 3.85 -17.0 3.3 -18.05 1.8 -18.35 L1.75 -18.35 1.4 -18.35 Q-1.05 -18.45 -1.3 -15.85 -1.85 -14.4 -2.6 -13.9 L-4.25 -13.85 -4.25 -13.9 -4.6 -14.1 -4.7 -14.15 Q-5.9 -15.05 -5.1 -17.25 -3.15 -21.0 0.45 -21.05 6.2 -20.75 6.2 -14.8 L6.2 -14.75 5.75 -13.3 3.55 -13.55" fill="url(#gradient0)" fill-rule="evenodd" stroke="none"/>
    <path d="M0.2 -10.7 L0.15 -10.7 0.2 -10.7" fill="url(#gradient1)" fill-rule="evenodd" stroke="none"/>
    <path d="M1.6 1.5 Q0.9 2.05 -0.15 2.05 L-0.5 2.05 -0.9 2.0 Q-1.45 1.85 -1.85 1.5 -2.55 0.9 -2.55 0.15 -2.55 -0.6 -1.9 -1.15 L-1.85 -1.15 Q-1.15 -1.7 -0.15 -1.7 0.9 -1.7 1.6 -1.15 2.3 -0.6 2.3 0.15 2.3 0.9 1.6 1.5" fill="url(#gradient2)" fill-rule="evenodd" stroke="none"/>
    <path d="M2.6 -17.8 Q4.05 -17.05 3.45 -14.8 3.15 -13.4 -0.1 -11.4 -3.15 -9.5 -2.75 -6.55 -2.7 -4.7 -0.15 -4.4 2.45 -4.7 2.4 -6.45 1.8 -8.25 3.6 -10.0 6.85 -13.4 6.7 -15.05 6.7 -17.0 6.15 -18.4 M-4.45 -13.7 Q-2.3 -12.7 -1.15 -15.55" fill="none" stroke="#ffffcc" stroke-linecap="round" stroke-linejoin="round" stroke-opacity="0.4509804" stroke-width="1.0"/>
  </g>
  <defs>
    <linearGradient gradientTransform="matrix(5.0E-4, 0.0087, -0.007, 4.0E-4, 0.6, -12.3)" gradientUnits="userSpaceOnUse" id="gradient0" spreadMethod="pad" x1="-819.2" x2="819.2">
      <stop offset="0.050980392156862744" stop-color="#66cc00"/>
      <stop offset="1.0" stop-color="#a5e12a"/>
    </linearGradient>
    <linearGradient gradientTransform="matrix(0.0054, 0.007, -0.0059, 0.0046, 18.4, -13.55)" gradientUnits="userSpaceOnUse" id="gradient1" spreadMethod="pad" x1="-819.2" x2="819.2">
      <stop offset="0.050980392156862744" stop-color="#66cc00"/>
      <stop offset="1.0" stop-color="#a5e12a"/>
    </linearGradient>
    <linearGradient gradientTransform="matrix(3.0E-4, 0.0024, -0.0029, 4.0E-4, 0.05, 1.15)" gradientUnits="userSpaceOnUse" id="gradient2" spreadMethod="pad" x1="-819.2" x2="819.2">
      <stop offset="0.050980392156862744" stop-color="#66cc00"/>
      <stop offset="1.0" stop-color="#a5e12a"/>
    </linearGradient>
  </defs>
</svg>
