<?xml version="1.0" encoding="UTF-8" standalone="no"?>
<svg xmlns:xlink="http://www.w3.org/1999/xlink" height="31.0px" width="32.0px" xmlns="http://www.w3.org/2000/svg">
  <g transform="matrix(1.0, 0.0, 0.0, 1.0, 0.5, 0.55)">
    <path d="M3.85 3.85 L0.0 0.0 7.7 0.0 3.85 3.85" fill="#ffffff" fill-rule="evenodd" stroke="none"/>
    <path d="M0.0 0.0 L3.85 3.85 0.0 7.7 0.0 0.0" fill="#cccccc" fill-rule="evenodd" stroke="none"/>
    <path d="M3.85 3.85 L7.7 0.0 0.0 0.0 0.0 7.7 3.85 3.85 Z" fill="none" stroke="#000000" stroke-linecap="round" stroke-linejoin="round" stroke-width="1.0"/>
    <path d="M21.7 4.8 L26.55 8.9 27.0 9.4 Q19.25 18.3 15.7 14.4 L15.65 14.35 21.7 4.8" fill="#ffffff" fill-rule="evenodd" stroke="none"/>
    <path d="M21.7 4.8 L15.65 14.35 15.7 14.4 Q19.25 18.3 27.0 9.4 L27.1 9.6 Q27.8 10.65 27.25 11.5 L25.75 13.0 17.95 21.3 Q18.25 20.75 17.2 19.5 L14.1 16.8 12.45 15.6 15.55 10.6 18.05 6.55 19.8 3.8 19.85 3.7 20.0 3.4 21.7 4.8" fill="#cccccc" fill-rule="evenodd" stroke="none"/>
    <path d="M25.75 13.0 L27.65 14.65 18.35 25.2 16.3 23.5 16.05 23.35 Q14.85 22.45 15.25 21.7 L15.3 21.65 Q15.65 21.3 16.45 21.65 17.3 22.1 17.85 21.35 L17.95 21.3 25.75 13.0" fill="#a2a2a2" fill-rule="evenodd" stroke="none"/>
    <path d="M27.65 14.65 L31.0 18.25 21.4 28.3 18.6 25.45 18.35 25.2 27.65 14.65" fill="#e1e1e1" fill-rule="evenodd" stroke="none"/>
    <path d="M0.2 26.9 L0.2 26.8 16.55 0.6 Q16.95 0.1 17.45 0.0 L18.3 0.1 18.85 0.5 19.4 1.0 19.65 1.3 20.0 1.75 20.3 2.4 20.2 3.1 18.65 1.8 1.7 28.5 Q0.8 28.3 0.2 26.9" fill="#666666" fill-rule="evenodd" stroke="none"/>
    <path d="M12.45 15.6 L3.8 29.3 Q3.55 29.9 2.8 29.9 L2.2 29.9 1.7 29.7 1.65 29.4 1.0 29.1 0.35 28.5 Q0.0 28.3 0.1 27.9 -0.1 27.3 0.2 26.9 0.8 28.3 1.7 28.5 L18.65 1.8 20.2 3.1 20.0 3.3 19.95 3.4 19.85 3.7 19.8 3.8 18.05 6.55 17.15 7.9 17.1 7.95 15.55 10.6 12.45 15.6" fill="#333333" fill-rule="evenodd" stroke="none"/>
    <path d="M20.2 3.1 L20.0 3.4 19.95 3.4 20.0 3.3 20.2 3.1" fill="#8a9991" fill-rule="evenodd" stroke="none"/>
    <path d="M18.05 6.55 L15.55 10.6 17.1 7.95 17.15 7.9 18.05 6.55" fill="#000000" fill-rule="evenodd" stroke="none"/>
    <path d="M15.3 21.65 L17.2 19.5 Q18.25 20.75 17.95 21.3 L17.85 21.35 Q17.3 22.1 16.45 21.65 15.65 21.3 15.3 21.65" fill="#595959" fill-rule="evenodd" stroke="none"/>
    <path d="M27.0 9.4 L26.55 8.9 21.7 4.8 20.0 3.4 20.2 3.1 20.3 2.4 20.0 1.75 19.65 1.3 19.4 1.0 18.85 0.5 18.3 0.1 17.45 0.0 Q16.95 0.1 16.55 0.6 L0.2 26.8 0.2 26.9 Q-0.1 27.3 0.1 27.9 0.0 28.3 0.35 28.5 L1.0 29.1 1.65 29.4 1.7 29.7 2.2 29.9 2.8 29.9 Q3.55 29.9 3.8 29.3 L12.45 15.6 14.1 16.8 17.2 19.5 15.3 21.65 15.25 21.7 Q14.85 22.45 16.05 23.35 L16.3 23.5 18.35 25.2 18.6 25.45 21.4 28.3 31.0 18.25 27.65 14.65 25.75 13.0 27.25 11.5 Q27.8 10.65 27.1 9.6 L27.0 9.4 M19.95 3.4 L20.0 3.4" fill="none" stroke="#000000" stroke-linecap="round" stroke-linejoin="round" stroke-width="1.0"/>
  </g>
</svg>
