<?xml version="1.0" encoding="UTF-8" standalone="no"?>
<svg xmlns:xlink="http://www.w3.org/1999/xlink" height="40.95px" width="49.95px" xmlns="http://www.w3.org/2000/svg">
  <g transform="matrix(1.0, 0.0, 0.0, 1.0, 1.5, 1.5)">
    <path d="M9.35 0.05 L9.65 0.1 11.35 0.3 13.0 0.55 14.95 1.05 Q18.0 2.05 20.65 4.1 L23.3 6.55 26.3 4.1 Q27.75 2.95 29.35 2.15 31.55 1.05 33.95 0.55 L35.6 0.3 37.3 0.1 37.6 0.05 37.65 0.0 37.8 0.1 37.85 0.1 37.9 0.1 37.1 3.4 36.6 5.15 36.5 5.5 35.7 7.6 33.0 12.25 31.8 13.7 31.75 13.75 31.3 14.1 33.4 16.25 35.2 18.2 37.15 20.4 38.05 21.5 38.9 20.55 43.8 19.15 38.15 24.9 42.85 29.85 42.95 29.85 42.85 29.95 43.7 30.65 Q45.1 30.5 46.05 31.45 L46.7 32.3 Q47.0 32.9 46.95 33.8 46.85 35.3 45.65 36.5 44.7 37.75 43.0 37.9 41.55 38.1 40.55 36.95 L40.0 36.05 39.8 34.65 34.1 29.0 28.2 34.85 29.6 29.8 30.45 29.0 30.35 29.0 25.45 24.65 23.5 22.6 23.15 22.95 Q20.1 26.25 16.6 29.0 L16.5 29.0 17.35 29.8 18.75 34.75 18.75 34.85 12.85 29.0 7.15 34.65 7.15 35.0 Q7.05 36.25 6.4 36.95 5.4 38.1 3.95 37.9 2.25 37.75 1.3 36.5 0.1 35.3 0.0 33.8 L0.0 33.7 Q-0.05 32.25 0.9 31.45 1.85 30.5 3.25 30.65 L4.1 29.95 4.0 29.85 4.1 29.85 8.8 24.9 3.15 19.15 3.3 19.2 8.05 20.55 8.9 21.5 Q11.85 17.9 14.4 15.4 L14.7 15.05 15.3 14.45 15.55 14.0 15.15 13.65 14.5 13.0 13.95 12.25 11.65 8.35 11.25 7.6 10.45 5.5 10.4 5.2 10.35 5.15 10.25 4.85 9.85 3.4 9.6 2.6 9.1 0.35 9.3 0.1 9.35 0.05" fill="#000000" fill-rule="evenodd" stroke="none"/>
    <path d="M9.35 0.05 L9.65 0.1 11.35 0.3 13.0 0.55 14.95 1.05 Q18.0 2.05 20.65 4.1 L23.3 6.55 26.3 4.1 Q27.75 2.95 29.35 2.15 31.55 1.05 33.95 0.55 L35.6 0.3 37.3 0.1 37.6 0.05 37.65 0.0 37.8 0.1 37.85 0.1 M37.9 0.1 L37.1 3.4 36.6 5.15 36.5 5.5 35.7 7.6 33.0 12.25 31.8 13.7 31.75 13.75 31.3 14.1 33.4 16.25 35.2 18.2 37.15 20.4 38.05 21.5 38.9 20.55 43.8 19.15 38.15 24.9 42.85 29.85 42.95 29.85 42.85 29.95 43.7 30.65 Q45.1 30.5 46.05 31.45 L46.7 32.3 Q47.0 32.9 46.95 33.8 46.85 35.3 45.65 36.5 44.7 37.75 43.0 37.9 41.55 38.1 40.55 36.95 L40.0 36.05 39.8 34.65 34.1 29.0 28.2 34.85 29.6 29.8 30.45 29.0 30.35 29.0 25.45 24.65 23.5 22.6 23.15 22.95 Q20.1 26.25 16.6 29.0 L16.5 29.0 17.35 29.8 18.75 34.75 18.75 34.85 12.85 29.0 7.15 34.65 7.15 35.0 Q7.05 36.25 6.4 36.95 5.4 38.1 3.95 37.9 2.25 37.75 1.3 36.5 0.1 35.3 0.0 33.8 L0.0 33.7 Q-0.05 32.25 0.9 31.45 1.85 30.5 3.25 30.65 L4.1 29.95 4.0 29.85 4.1 29.85 8.8 24.9 3.15 19.15 3.3 19.2 8.05 20.55 8.9 21.5 Q11.85 17.9 14.4 15.4 L14.7 15.05 15.3 14.45 15.55 14.0 15.15 13.65 14.5 13.0 13.95 12.25 11.65 8.35 11.25 7.6 10.45 5.5 10.4 5.2 10.35 5.15 10.25 4.85 9.85 3.4 9.6 2.6 9.1 0.35" fill="none" stroke="#000000" stroke-linecap="round" stroke-linejoin="round" stroke-width="3.0"/>
  </g>
</svg>
