<?xml version="1.0" encoding="UTF-8" standalone="no"?>
<svg xmlns:xlink="http://www.w3.org/1999/xlink" height="39.05px" width="38.65px" xmlns="http://www.w3.org/2000/svg">
  <g transform="matrix(1.0, 0.0, 0.0, 1.0, 11.2, 145.65)">
    <path d="M-7.05 -144.65 Q-2.85 -143.75 0.65 -141.05 10.35 -132.6 18.05 -123.6 L18.9 -124.55 23.8 -125.95 18.15 -120.15 22.85 -115.2 22.95 -115.2 22.85 -115.1 23.75 -114.4 Q25.15 -114.55 26.1 -113.6 27.05 -112.7 26.95 -111.25 26.85 -109.75 25.65 -108.5 24.7 -107.3 23.05 -107.1 21.55 -106.95 20.6 -108.1 19.8 -108.85 19.8 -110.35 L14.1 -116.05 8.15 -110.2 9.55 -115.25 10.45 -116.05 Q6.7 -118.95 3.55 -122.45 -4.15 -130.45 -6.05 -132.9 L-8.8 -137.55 -9.55 -139.65 -9.65 -140.0 -10.2 -141.75 Q-10.7 -143.15 -10.7 -145.15 L-10.35 -145.05 -8.7 -144.9 -7.05 -144.65 Z" fill="none" stroke="#483e39" stroke-linecap="round" stroke-linejoin="round" stroke-width="1.0"/>
    <path d="M12.65 -118.25 L12.4 -117.95 12.5 -117.95 12.65 -118.25" fill="#62a3ac" fill-rule="evenodd" stroke="none"/>
    <path d="M-10.85 -144.95 L-10.95 -145.05 -10.95 -144.95 Q-10.65 -143.15 -10.15 -141.65 L-9.65 -139.9 -9.55 -139.55 -8.75 -137.45 -6.05 -132.8 3.55 -122.35 Q6.7 -118.85 10.4 -115.95 L12.4 -117.95 12.65 -118.25 Q11.8 -118.75 11.5 -119.8 11.25 -120.8 11.8 -121.65 L12.15 -122.2 7.75 -126.65 7.6 -126.55 -10.85 -144.95" fill="#acb9b9" fill-rule="evenodd" stroke="none"/>
    <path d="M18.1 -123.5 L12.55 -129.65 12.5 -129.7 4.45 -137.8 0.7 -140.95 Q-2.8 -143.65 -7.0 -144.55 L-8.65 -144.8 -10.3 -144.95 -10.65 -145.05 Q-10.75 -144.95 -10.85 -144.95 L7.6 -126.55 7.75 -126.65 12.15 -122.2 13.35 -122.95 Q14.4 -123.3 15.35 -122.6 16.0 -122.35 16.15 -121.75 L18.1 -123.5" fill="#ffffff" fill-rule="evenodd" stroke="none"/>
    <path d="M14.15 -115.95 L19.8 -110.25 19.8 -110.8 23.75 -114.3 21.4 -113.4 20.85 -113.5 21.15 -115.45 19.75 -114.2 Q18.15 -114.2 17.75 -115.7 L17.1 -117.25 19.05 -119.2 18.15 -120.1 14.15 -115.95" fill="#24160f" fill-rule="evenodd" stroke="none"/>
    <path d="M23.75 -114.3 L22.9 -115.0 22.95 -115.1 22.9 -115.1 19.05 -119.2 17.1 -117.25 17.75 -115.7 Q18.15 -114.2 19.75 -114.2 L21.15 -115.45 20.85 -113.5 21.4 -113.4 23.75 -114.3" fill="#6b4825" fill-rule="evenodd" stroke="none"/>
    <path d="M8.75 -111.9 L8.2 -110.1 14.15 -115.95 18.15 -120.1 22.45 -124.45 20.25 -123.85 16.85 -120.1 15.45 -118.65 13.95 -117.25 8.75 -111.9 M22.0 -112.3 L21.05 -111.2 20.95 -110.35 Q20.85 -109.2 21.4 -108.7 22.2 -107.9 23.25 -108.05 24.3 -108.15 25.05 -109.05 25.75 -109.8 25.95 -110.7 26.1 -111.75 25.15 -112.45 L25.15 -112.3 Q25.15 -111.5 24.65 -111.15 24.0 -110.45 23.4 -110.6 22.7 -110.45 22.45 -110.8 21.85 -111.3 22.0 -111.9 L22.0 -112.3" fill="#000000" fill-rule="evenodd" stroke="none"/>
    <path d="M22.95 -113.05 L22.55 -112.65 Q22.35 -112.45 22.45 -112.2 L22.7 -111.55 Q22.95 -111.2 23.5 -111.3 23.95 -111.2 24.35 -111.55 L24.7 -112.45 24.65 -112.7 Q24.8 -113.05 24.45 -113.25 L23.75 -113.5 22.95 -113.05" fill="#6f6f6f" fill-rule="evenodd" stroke="none"/>
    <path d="M22.45 -124.45 L23.85 -125.85 18.95 -124.45 18.1 -123.5 16.15 -121.75 Q16.0 -122.35 15.35 -122.6 14.4 -123.3 13.35 -122.95 L12.15 -122.2 11.8 -121.65 Q11.25 -120.8 11.5 -119.8 11.8 -118.75 12.65 -118.25 L12.5 -117.95 12.4 -117.95 10.4 -115.95 10.45 -115.95 9.6 -115.15 8.75 -111.9 13.95 -117.25 15.45 -118.65 16.85 -120.1 20.25 -123.85 22.45 -124.45 M19.8 -110.25 Q19.8 -108.75 20.6 -108.0 21.55 -106.85 23.05 -107.0 24.7 -107.2 25.7 -108.4 26.9 -109.65 27.0 -111.15 27.1 -112.65 26.1 -113.5 25.15 -114.45 23.75 -114.3 L19.8 -110.8 19.8 -110.25 M22.95 -113.05 L23.75 -113.5 24.45 -113.25 Q24.8 -113.05 24.65 -112.7 L24.7 -112.45 24.35 -111.55 Q23.95 -111.2 23.5 -111.3 22.95 -111.2 22.7 -111.55 L22.45 -112.2 Q22.35 -112.45 22.55 -112.65 L22.95 -113.05 M22.0 -112.3 L22.0 -111.9 Q21.85 -111.3 22.45 -110.8 22.7 -110.45 23.4 -110.6 24.0 -110.45 24.65 -111.15 25.15 -111.5 25.15 -112.3 L25.15 -112.45 Q26.1 -111.75 25.95 -110.7 25.75 -109.8 25.05 -109.05 24.3 -108.15 23.25 -108.05 22.2 -107.9 21.4 -108.7 20.85 -109.2 20.95 -110.35 L21.05 -111.2 22.0 -112.3" fill="#2d2f39" fill-rule="evenodd" stroke="none"/>
    <path d="M-7.35 -110.05 L-7.7 -110.6 -7.1 -109.8 -7.35 -110.05 M13.7 -129.1 Q10.0 -124.35 5.1 -120.0 -0.95 -126.1 -6.15 -132.1 -2.6 -136.55 2.15 -140.2 8.05 -134.95 13.7 -129.1" fill="#000000" fill-opacity="0.3019608" fill-rule="evenodd" stroke="none"/>
  </g>
</svg>
