<?xml version="1.0" encoding="UTF-8" standalone="no"?>
<svg xmlns:xlink="http://www.w3.org/1999/xlink" height="39.05px" width="38.65px" xmlns="http://www.w3.org/2000/svg">
  <g transform="matrix(1.0, 0.0, 0.0, 1.0, 20.5, 145.65)">
    <path d="M14.0 -144.65 Q9.8 -143.75 6.3 -141.05 -3.4 -132.6 -11.1 -123.6 L-11.95 -124.55 -16.85 -125.95 -11.2 -120.15 -15.9 -115.2 -16.0 -115.2 -15.9 -115.1 -16.8 -114.4 Q-18.2 -114.55 -19.15 -113.6 -20.1 -112.7 -20.0 -111.25 -19.9 -109.75 -18.7 -108.5 -17.75 -107.3 -16.1 -107.1 -14.6 -106.95 -13.65 -108.1 -12.85 -108.85 -12.85 -110.35 L-7.15 -116.05 -1.2 -110.2 -2.6 -115.25 -3.5 -116.05 Q0.25 -118.95 3.4 -122.45 11.1 -130.45 13.0 -132.9 L15.75 -137.55 16.5 -139.65 16.6 -140.0 17.15 -141.75 Q17.65 -143.15 17.65 -145.15 L17.3 -145.05 15.65 -144.9 14.0 -144.65 Z" fill="none" stroke="#483e39" stroke-linecap="round" stroke-linejoin="round" stroke-width="1.0"/>
    <path d="M-5.65 -118.25 L-5.4 -117.95 -5.5 -117.95 -5.65 -118.25" fill="#62a3ac" fill-rule="evenodd" stroke="none"/>
    <path d="M17.85 -144.95 L17.95 -145.05 17.95 -144.95 17.15 -141.65 16.65 -139.9 16.55 -139.55 15.75 -137.45 13.05 -132.8 Q11.1 -130.35 3.45 -122.35 0.3 -118.85 -3.4 -115.95 L-5.4 -117.95 -5.65 -118.25 Q-4.8 -118.75 -4.5 -119.8 -4.25 -120.8 -4.8 -121.65 L-5.15 -122.2 -0.75 -126.65 -0.6 -126.55 17.85 -144.95" fill="#acb9b9" fill-rule="evenodd" stroke="none"/>
    <path d="M-11.1 -123.5 L-5.55 -129.65 -5.5 -129.7 2.55 -137.8 6.3 -140.95 Q9.8 -143.65 14.0 -144.55 L15.65 -144.8 17.3 -144.95 17.65 -145.05 Q17.75 -144.95 17.85 -144.95 L-0.6 -126.55 -0.75 -126.65 -5.15 -122.2 -6.35 -122.95 Q-7.4 -123.3 -8.35 -122.6 -9.0 -122.35 -9.15 -121.75 L-11.1 -123.5" fill="#ffffff" fill-rule="evenodd" stroke="none"/>
    <path d="M-7.15 -115.95 L-12.8 -110.25 -12.8 -110.8 -16.75 -114.3 -14.4 -113.4 -13.85 -113.5 -14.15 -115.45 -12.75 -114.2 Q-11.15 -114.2 -10.75 -115.7 L-10.1 -117.25 -12.05 -119.2 -11.15 -120.1 -7.15 -115.95" fill="#24160f" fill-rule="evenodd" stroke="none"/>
    <path d="M-16.75 -114.3 L-15.9 -115.0 -15.95 -115.1 -15.9 -115.1 -12.05 -119.2 -10.1 -117.25 -10.75 -115.7 Q-11.15 -114.2 -12.75 -114.2 L-14.15 -115.45 -13.85 -113.5 -14.4 -113.4 -16.75 -114.3" fill="#6b4825" fill-rule="evenodd" stroke="none"/>
    <path d="M-1.75 -111.9 L-1.2 -110.1 -7.15 -115.95 -11.15 -120.1 -15.45 -124.45 -13.25 -123.85 -9.85 -120.1 -8.45 -118.65 -6.95 -117.25 -1.75 -111.9 M-15.0 -112.3 L-14.05 -111.2 -13.95 -110.35 Q-13.85 -109.2 -14.4 -108.7 -15.2 -107.9 -16.25 -108.05 -17.3 -108.15 -18.05 -109.05 -18.75 -109.8 -18.95 -110.7 -19.1 -111.75 -18.15 -112.45 L-18.15 -112.3 Q-18.15 -111.5 -17.65 -111.15 -17.0 -110.45 -16.4 -110.6 -15.7 -110.45 -15.45 -110.8 -14.85 -111.3 -15.0 -111.9 L-15.0 -112.3" fill="#000000" fill-rule="evenodd" stroke="none"/>
    <path d="M-15.95 -113.05 L-15.55 -112.65 Q-15.35 -112.45 -15.45 -112.2 L-15.7 -111.55 Q-15.95 -111.2 -16.5 -111.3 -16.95 -111.2 -17.35 -111.55 L-17.7 -112.45 -17.65 -112.7 Q-17.8 -113.05 -17.45 -113.25 L-16.75 -113.5 -15.95 -113.05" fill="#6f6f6f" fill-rule="evenodd" stroke="none"/>
    <path d="M-15.45 -124.45 L-16.85 -125.85 -11.95 -124.45 -11.1 -123.5 -9.15 -121.75 Q-9.0 -122.35 -8.35 -122.6 -7.4 -123.3 -6.35 -122.95 L-5.15 -122.2 -4.8 -121.65 Q-4.25 -120.8 -4.5 -119.8 -4.8 -118.75 -5.65 -118.25 L-5.5 -117.95 -5.4 -117.95 -3.4 -115.95 -3.45 -115.95 -2.6 -115.15 -1.75 -111.9 -6.95 -117.25 -8.45 -118.65 -9.85 -120.1 -13.25 -123.85 -15.45 -124.45 M-12.8 -110.25 Q-12.8 -108.75 -13.6 -108.0 -14.55 -106.85 -16.05 -107.0 -17.7 -107.2 -18.7 -108.4 -19.9 -109.65 -20.0 -111.15 -20.1 -112.65 -19.1 -113.5 -18.15 -114.45 -16.75 -114.3 L-12.8 -110.8 -12.8 -110.25 M-15.95 -113.05 L-16.75 -113.5 -17.45 -113.25 Q-17.8 -113.05 -17.65 -112.7 L-17.7 -112.45 -17.35 -111.55 Q-16.95 -111.2 -16.5 -111.3 -15.95 -111.2 -15.7 -111.55 L-15.45 -112.2 Q-15.35 -112.45 -15.55 -112.65 L-15.95 -113.05 M-15.0 -112.3 L-15.0 -111.9 Q-14.85 -111.3 -15.45 -110.8 -15.7 -110.45 -16.4 -110.6 -17.0 -110.45 -17.65 -111.15 -18.15 -111.5 -18.15 -112.3 L-18.15 -112.45 Q-19.1 -111.75 -18.95 -110.7 -18.75 -109.8 -18.05 -109.05 -17.3 -108.15 -16.25 -108.05 -15.2 -107.9 -14.4 -108.7 -13.85 -109.2 -13.95 -110.35 L-14.05 -111.2 -15.0 -112.3" fill="#2d2f39" fill-rule="evenodd" stroke="none"/>
  </g>
</svg>
