<?xml version="1.0" encoding="UTF-8" standalone="no"?>
<svg xmlns:xlink="http://www.w3.org/1999/xlink" height="53.0px" width="96.05px" xmlns="http://www.w3.org/2000/svg">
  <g transform="matrix(1.0, 0.0, 0.0, 1.0, 48.0, 26.0)">
    <path d="M45.3 -3.95 Q47.0 -3.1 47.7 -1.3 48.4 0.5 47.7 2.3 47.0 4.1 45.3 5.0 L2.3 26.5 Q1.2 27.0 0.05 27.0 L-2.15 26.5 -45.2 5.0 Q-46.95 4.1 -47.65 2.3 -48.35 0.5 -47.65 -1.3 -46.95 -3.1 -45.2 -3.95 L-2.15 -25.45 Q-1.1 -26.0 0.05 -26.0 1.2 -26.0 2.3 -25.45 L45.3 -3.95 M46.8 -0.95 Q46.2 -2.4 44.85 -3.05 L1.85 -24.55 0.05 -25.0 -1.7 -24.55 -44.75 -3.05 Q-46.15 -2.4 -46.7 -0.95 -47.3 0.5 -46.7 1.95 -46.15 3.4 -44.8 4.1 L-1.75 25.6 0.05 26.0 Q1.0 26.0 1.85 25.6 L44.85 4.1 Q46.2 3.4 46.8 1.95 47.35 0.5 46.8 -0.95" fill="#1a78d5" fill-opacity="0.3019608" fill-rule="evenodd" stroke="none"/>
    <path d="M45.85 -0.55 Q46.25 0.5 45.85 1.6 45.45 2.65 44.4 3.2 L1.4 24.7 0.05 25.0 -1.3 24.7 -44.35 3.2 Q-45.4 2.65 -45.8 1.6 -46.2 0.5 -45.8 -0.55 -45.4 -1.65 -44.35 -2.15 L-1.3 -23.65 0.05 -24.0 1.4 -23.65 44.4 -2.15 Q45.45 -1.65 45.85 -0.55 M44.95 -0.2 Q44.65 -0.95 43.95 -1.3 L0.95 -22.8 0.05 -23.0 -0.85 -22.8 -43.9 -1.3 Q-44.6 -0.95 -44.85 -0.2 -45.15 0.5 -44.85 1.25 -44.6 1.95 -43.9 2.3 L-0.85 23.8 0.05 24.0 0.95 23.8 43.95 2.3 Q44.65 1.95 44.95 1.25 45.2 0.5 44.95 -0.2" fill="#1a78d5" fill-opacity="0.7019608" fill-rule="evenodd" stroke="none"/>
    <path d="M45.85 -0.55 Q45.45 -1.65 44.4 -2.15 L1.4 -23.65 0.05 -24.0 -1.3 -23.65 -44.35 -2.15 Q-45.4 -1.65 -45.8 -0.55 -46.2 0.5 -45.8 1.6 -45.4 2.65 -44.35 3.2 L-1.3 24.7 0.05 25.0 1.4 24.7 44.4 3.2 Q45.45 2.65 45.85 1.6 46.25 0.5 45.85 -0.55 M46.8 -0.95 Q47.35 0.5 46.8 1.95 46.2 3.4 44.85 4.1 L1.85 25.6 Q1.0 26.0 0.05 26.0 L-1.75 25.6 -44.8 4.1 Q-46.15 3.4 -46.7 1.95 -47.3 0.5 -46.7 -0.95 -46.15 -2.4 -44.75 -3.05 L-1.7 -24.55 0.05 -25.0 1.85 -24.55 44.85 -3.05 Q46.2 -2.4 46.8 -0.95" fill="#1a78d5" fill-opacity="0.5019608" fill-rule="evenodd" stroke="none"/>
    <path d="M44.0 0.85 L43.5 1.4 0.5 22.9 0.05 23.0 -0.4 22.9 -43.45 1.4 -43.9 0.85 -43.9 0.15 -43.45 -0.4 -0.4 -21.9 0.05 -22.0 0.5 -21.9 43.5 -0.4 44.0 0.15 44.0 0.85 M40.8 0.5 L0.05 -19.85 -40.75 0.5 0.05 20.9 40.8 0.5" fill="#ffffff" fill-opacity="0.8" fill-rule="evenodd" stroke="none"/>
    <path d="M44.95 -0.2 Q45.2 0.5 44.95 1.25 44.65 1.95 43.95 2.3 L0.95 23.8 0.05 24.0 -0.85 23.8 -43.9 2.3 Q-44.6 1.95 -44.85 1.25 -45.15 0.5 -44.85 -0.2 -44.6 -0.95 -43.9 -1.3 L-0.85 -22.8 0.05 -23.0 0.95 -22.8 43.95 -1.3 Q44.65 -0.95 44.95 -0.2 M44.0 0.85 L44.0 0.15 43.5 -0.4 0.5 -21.9 0.05 -22.0 -0.4 -21.9 -43.45 -0.4 -43.9 0.15 -43.9 0.85 -43.45 1.4 -0.4 22.9 0.05 23.0 0.5 22.9 43.5 1.4 44.0 0.85 M-40.75 0.5 L0.05 -19.85 40.8 0.5 -40.75 0.5" fill="#1a78d5" fill-opacity="0.9019608" fill-rule="evenodd" stroke="none"/>
    <path d="M-40.75 0.5 L0.05 -19.85 40.8 0.5 0.05 20.9 -40.75 0.5 40.8 0.5" fill="none" stroke="#ffffff" stroke-linecap="round" stroke-linejoin="round" stroke-width="1.0"/>
  </g>
</svg>
