<?xml version="1.0" encoding="UTF-8" standalone="no"?>
<svg xmlns:xlink="http://www.w3.org/1999/xlink" height="24.6px" width="13.15px" xmlns="http://www.w3.org/2000/svg">
  <g transform="matrix(1.0, 0.0, 0.0, 1.0, 2.3, -5.0)">
    <path d="M5.6 8.95 Q3.1 8.7 2.85 11.2 1.7 14.4 -0.55 13.35 -2.8 12.4 -1.7 9.35 0.45 5.25 4.35 5.25 10.6 5.55 10.6 12.0 10.75 13.65 7.5 17.05 5.7 18.8 6.3 20.6 6.35 22.35 3.75 22.65 1.2 22.35 1.15 20.5 0.75 17.55 3.8 15.65 7.05 13.65 7.35 12.25 8.1 9.4 5.6 8.95" fill="url(#gradient0)" fill-rule="evenodd" stroke="none"/>
    <path d="M3.75 29.35 Q2.55 29.35 1.7 28.65 0.85 27.9 0.85 26.95 0.85 25.95 1.7 25.25 2.55 24.6 3.75 24.6 5.0 24.6 5.8 25.25 6.7 25.95 6.7 26.95 6.7 27.9 5.8 28.65 5.0 29.35 3.75 29.35" fill="url(#gradient1)" fill-rule="evenodd" stroke="none"/>
    <path d="M5.6 8.95 Q8.1 9.4 7.35 12.25 7.05 13.65 3.8 15.65 0.75 17.55 1.15 20.5 1.2 22.35 3.75 22.65 6.35 22.35 6.3 20.6 5.7 18.8 7.5 17.05 10.75 13.65 10.6 12.0 10.6 5.55 4.35 5.25 0.45 5.25 -1.7 9.35 -2.8 12.4 -0.55 13.35 1.7 14.4 2.85 11.2 3.1 8.7 5.6 8.95 M3.75 29.35 Q2.55 29.35 1.7 28.65 0.85 27.9 0.85 26.95 0.85 25.95 1.7 25.25 2.55 24.6 3.75 24.6 5.0 24.6 5.8 25.25 6.7 25.95 6.7 26.95 6.7 27.9 5.8 28.65 5.0 29.35 3.75 29.35" fill="none" stroke="#02738e" stroke-linecap="round" stroke-linejoin="round" stroke-width="0.5"/>
  </g>
  <defs>
    <linearGradient gradientTransform="matrix(0.0, -0.0089, 0.0077, 0.0, 4.25, 13.75)" gradientUnits="userSpaceOnUse" id="gradient0" spreadMethod="pad" x1="-819.2" x2="819.2">
      <stop offset="0.050980392156862744" stop-color="#029cc1"/>
      <stop offset="1.0" stop-color="#33ccff"/>
    </linearGradient>
    <linearGradient gradientTransform="matrix(0.0, -0.0014, 0.0036, 0.0, 3.75, 27.45)" gradientUnits="userSpaceOnUse" id="gradient1" spreadMethod="pad" x1="-819.2" x2="819.2">
      <stop offset="0.050980392156862744" stop-color="#029cc1"/>
      <stop offset="1.0" stop-color="#33ccff"/>
    </linearGradient>
  </defs>
</svg>
