<?xml version="1.0" encoding="UTF-8" standalone="no"?>
<svg xmlns:xlink="http://www.w3.org/1999/xlink" height="15.0px" width="19.0px" xmlns="http://www.w3.org/2000/svg">
  <g transform="matrix(1.0, 0.0, 0.0, 1.0, 0.0, 0.0)">
    <path d="M16.95 12.25 L16.95 11.35 16.95 3.65 16.95 3.55 Q16.7 2.05 15.25 2.25 L4.25 2.25 Q2.65 2.25 1.3 3.2 L0.8 3.55 Q0.9 2.35 1.3 1.75 L1.55 1.4 Q2.25 0.85 3.7 0.85 L15.15 0.85 Q16.6 0.85 17.3 1.4 18.0 2.05 18.1 3.55 L18.1 10.55 18.1 10.75 18.1 10.95 18.1 11.45 17.6 11.95 16.95 12.25" fill="url(#gradient0)" fill-rule="evenodd" stroke="none"/>
    <path d="M15.85 0.0 Q19.0 0.0 19.0 3.15 L19.0 11.85 Q19.0 15.0 15.85 15.0 L3.15 15.0 Q0.0 15.0 0.0 11.85 L0.0 3.15 Q0.0 0.0 3.15 0.0 L15.85 0.0 M18.55 9.7 L18.55 3.15 Q18.55 0.5 15.85 0.5 L3.15 0.5 Q0.5 0.5 0.5 3.15 L0.5 9.7 0.5 11.85 Q0.5 14.5 3.15 14.5 L15.85 14.5 Q18.55 14.5 18.55 11.85 L18.55 9.7" fill="#3d220d" fill-rule="evenodd" stroke="none"/>
    <path d="M0.5 9.7 Q0.55 12.45 3.4 12.45 L15.65 12.45 16.95 12.25 16.95 13.6 Q17.95 12.95 18.1 11.45 18.5 10.75 18.55 9.7 L18.55 11.85 Q18.55 14.5 15.85 14.5 L3.15 14.5 Q0.5 14.5 0.5 11.85 L0.5 9.7" fill="url(#gradient1)" fill-rule="evenodd" stroke="none"/>
    <path d="M0.5 9.7 L0.5 3.15 Q0.5 0.5 3.15 0.5 L15.85 0.5 Q18.55 0.5 18.55 3.15 L18.55 9.7 Q18.5 10.75 18.1 11.45 L18.1 10.95 18.1 10.75 18.1 10.55 18.1 3.55 Q18.0 2.05 17.3 1.4 16.6 0.85 15.15 0.85 L3.7 0.85 Q2.25 0.85 1.55 1.4 L1.3 1.75 Q0.9 2.35 0.8 3.55 L1.3 3.2 Q2.65 2.25 4.25 2.25 L15.25 2.25 Q16.7 2.05 16.95 3.55 L16.95 3.65 16.95 11.35 16.95 12.25 15.65 12.45 3.4 12.45 Q0.55 12.45 0.5 9.7" fill="url(#gradient2)" fill-rule="evenodd" stroke="none"/>
    <path d="M16.95 12.25 L17.6 11.95 18.1 11.45 Q17.95 12.95 16.95 13.6 L16.95 12.25" fill="url(#gradient3)" fill-rule="evenodd" stroke="none"/>
  </g>
  <defs>
    <linearGradient gradientTransform="matrix(0.0, 0.0052, -0.0072, 0.0, 56.1, 6.7)" gradientUnits="userSpaceOnUse" id="gradient0" spreadMethod="pad" x1="-819.2" x2="819.2">
      <stop offset="0.0" stop-color="#f59f37"/>
      <stop offset="1.0" stop-color="#f17410"/>
    </linearGradient>
    <linearGradient gradientTransform="matrix(0.0, -0.0025, 0.0658, 0.0, 91.25, 12.9)" gradientUnits="userSpaceOnUse" id="gradient1" spreadMethod="pad" x1="-819.2" x2="819.2">
      <stop offset="0.011764705882352941" stop-color="#a43903"/>
      <stop offset="1.0" stop-color="#ed6008"/>
    </linearGradient>
    <linearGradient gradientTransform="matrix(0.0, 0.0029, -0.0489, 0.0, -1.0, 7.75)" gradientUnits="userSpaceOnUse" id="gradient2" spreadMethod="pad" x1="-819.2" x2="819.2">
      <stop offset="0.011764705882352941" stop-color="#f27b2b"/>
      <stop offset="1.0" stop-color="#f15b0f"/>
    </linearGradient>
    <linearGradient gradientTransform="matrix(0.0, 0.0011, -8.0E-4, 0.0, 65.2, 12.55)" gradientUnits="userSpaceOnUse" id="gradient3" spreadMethod="pad" x1="-819.2" x2="819.2">
      <stop offset="0.0" stop-color="#e67007"/>
      <stop offset="1.0" stop-color="#c44f03"/>
    </linearGradient>
  </defs>
</svg>
