<?xml version="1.0" encoding="UTF-8" standalone="no"?>
<svg xmlns:xlink="http://www.w3.org/1999/xlink" height="50.0px" width="50.0px" xmlns="http://www.w3.org/2000/svg">
  <g transform="matrix(1.0, 0.0, 0.0, 1.0, 0.0, 0.0)">
    <path d="M50.0 0.0 L50.0 50.0 0.0 50.0 0.0 0.0 50.0 0.0" fill="#f76666" fill-opacity="0.0" fill-rule="evenodd" stroke="none"/>
    <path d="M50.0 7.3 L50.0 42.7 Q50.0 50.0 42.7 50.0 L7.3 50.0 Q0.0 50.0 0.0 42.7 L0.0 7.3 Q0.0 0.0 7.3 0.0 L42.7 0.0 Q50.0 0.0 50.0 7.3 M44.5 11.2 Q44.5 5.5 38.8 5.5 L11.15 5.5 Q5.45 5.5 5.45 11.2 L5.45 38.85 Q5.45 44.55 11.15 44.55 L38.8 44.55 Q44.5 44.55 44.5 38.85 L44.5 11.2" fill="#ffffff" fill-rule="evenodd" stroke="none"/>
    <path d="M19.15 11.7 Q21.25 9.6 23.35 11.7 L35.1 23.45 Q37.2 25.55 35.1 27.65 L23.35 39.4 Q21.25 41.5 19.15 39.4 L19.15 11.7" fill="#ffffff" fill-rule="evenodd" stroke="none"/>
  </g>
</svg>
