<?xml version="1.0" encoding="UTF-8" standalone="no"?>
<svg xmlns:xlink="http://www.w3.org/1999/xlink" height="30.0px" width="30.0px" xmlns="http://www.w3.org/2000/svg">
  <g transform="matrix(1.0, 0.0, 0.0, 1.0, -0.1, -0.05)">
    <path d="M29.1 5.15 L28.4 2.85 Q27.8 1.95 26.8 1.45 L26.85 1.5 25.65 1.15 24.3 1.05 6.0 1.05 Q4.55 1.05 3.55 1.45 L2.85 1.85 Q1.85 2.55 1.45 3.95 L1.35 4.1 1.3 4.25 1.3 4.3 1.3 4.4 1.1 5.35 1.1 24.0 Q1.1 29.05 6.0 29.05 L8.35 29.05 9.95 29.05 12.2 29.05 12.6 29.05 16.45 29.05 22.7 29.05 24.3 29.05 Q29.1 29.05 29.1 24.0 L29.1 5.7 29.1 5.15 M27.2 0.55 Q30.05 1.8 30.1 5.7 L30.1 24.0 Q30.1 30.05 24.3 30.05 L22.7 30.05 16.45 30.05 12.6 30.05 12.2 30.05 9.95 30.05 8.35 30.05 6.0 30.05 Q0.1 30.05 0.1 24.0 L0.1 5.7 0.3 4.2 0.5 3.55 Q1.15 1.35 3.15 0.55 4.35 0.05 6.0 0.05 L24.3 0.05 27.2 0.55" fill="url(#gradient0)" fill-rule="evenodd" stroke="none"/>
    <path d="M29.1 5.15 L29.1 5.7 29.1 24.0 Q29.1 29.05 24.3 29.05 L22.7 29.05 16.45 29.05 12.6 29.05 12.2 29.05 9.95 29.05 8.35 29.05 6.0 29.05 Q1.1 29.05 1.1 24.0 L1.1 5.35 1.3 4.4 1.3 4.3 1.3 4.25 1.35 4.1 1.45 3.95 Q1.85 2.55 2.85 1.85 L3.55 1.45 Q4.55 1.05 6.0 1.05 L24.3 1.05 25.65 1.15 26.85 1.5 26.8 1.45 Q27.8 1.95 28.4 2.85 L29.1 5.15" fill="url(#gradient1)" fill-rule="evenodd" stroke="none"/>
    <path d="M23.75 13.65 L23.7 13.8 18.5 19.05 18.35 19.1 18.2 19.05 14.55 15.4 14.5 15.25 14.55 15.1 19.7 9.9 19.9 9.8 20.05 9.9 23.7 13.5 23.75 13.65 M21.9 7.7 L22.05 7.65 22.2 7.7 25.85 11.35 25.9 11.5 25.85 11.65 24.65 12.85 24.5 12.9 24.35 12.85 20.7 9.2 20.65 9.05 20.7 8.9 21.9 7.7 M21.05 7.0 L19.9 8.2 19.9 8.15 19.75 8.35 Q19.5 7.15 18.05 7.15 L9.35 7.15 Q7.6 7.15 7.55 8.8 L7.75 8.8 Q8.15 8.8 8.4 9.05 L8.65 9.7 8.4 10.35 7.75 10.6 7.55 10.6 7.55 12.2 7.75 12.2 Q8.15 12.2 8.4 12.45 L8.65 13.1 8.4 13.75 7.75 14.0 7.55 14.0 7.55 15.8 7.75 15.8 Q8.15 15.8 8.4 16.05 L8.65 16.7 8.4 17.35 7.75 17.6 7.55 17.6 7.55 19.15 7.75 19.15 Q8.15 19.15 8.4 19.45 L8.65 20.05 8.4 20.75 7.75 20.95 7.55 20.95 7.75 22.15 Q8.2 22.75 9.35 22.75 L18.05 22.75 Q19.85 22.75 19.85 20.95 L19.85 19.35 21.65 17.55 21.65 20.95 Q21.65 24.55 18.05 24.55 L9.35 24.55 Q7.05 24.55 6.2 23.05 5.75 22.25 5.75 20.95 L5.4 20.95 4.8 20.75 Q4.5 20.45 4.5 20.05 4.5 19.7 4.8 19.45 5.05 19.15 5.4 19.15 L5.75 19.15 5.75 17.6 5.4 17.6 4.8 17.35 4.5 16.7 Q4.5 16.3 4.8 16.05 5.05 15.8 5.4 15.8 L5.75 15.8 5.75 14.0 5.4 14.0 4.8 13.75 4.5 13.1 Q4.5 12.7 4.8 12.45 5.05 12.2 5.4 12.2 L5.75 12.2 5.75 10.6 5.4 10.6 4.8 10.35 Q4.5 10.1 4.5 9.7 4.5 9.3 4.8 9.05 5.05 8.8 5.4 8.8 L5.75 8.8 Q5.8 5.35 9.35 5.35 L18.05 5.35 Q20.35 5.35 21.2 6.85 L21.1 7.0 21.05 7.0 M17.5 19.5 L17.55 19.6 17.5 19.8 17.4 19.85 13.05 20.9 12.95 20.9 12.8 20.85 12.75 20.7 12.75 20.65 12.8 20.6 13.85 16.35 13.95 16.2 14.1 16.2 14.25 16.25 17.5 19.5" fill="#ffffff" fill-opacity="0.5019608" fill-rule="evenodd" stroke="none"/>
  </g>
  <defs>
    <linearGradient gradientTransform="matrix(0.0, -0.0176, 0.0177, 0.0, 15.1, 14.95)" gradientUnits="userSpaceOnUse" id="gradient0" spreadMethod="pad" x1="-819.2" x2="819.2">
      <stop offset="0.01568627450980392" stop-color="#ffffff" stop-opacity="0.3019608"/>
      <stop offset="1.0" stop-color="#000000" stop-opacity="0.6"/>
    </linearGradient>
    <linearGradient gradientTransform="matrix(0.0, 0.0045, -0.0171, 0.0, 15.1, 5.2)" gradientUnits="userSpaceOnUse" id="gradient1" spreadMethod="pad" x1="-819.2" x2="819.2">
      <stop offset="0.01568627450980392" stop-color="#000000" stop-opacity="0.5019608"/>
      <stop offset="1.0" stop-color="#000000" stop-opacity="0.3019608"/>
    </linearGradient>
  </defs>
</svg>
